<?xml version="1.0" encoding="UTF-8" standalone="no"?>
<svg
   xmlns:dc="http://purl.org/dc/elements/1.1/"
   xmlns:cc="http://creativecommons.org/ns#"
   xmlns:rdf="http://www.w3.org/1999/02/22-rdf-syntax-ns#"
   xmlns:svg="http://www.w3.org/2000/svg"
   xmlns="http://www.w3.org/2000/svg"
   xmlns:sodipodi="http://sodipodi.sourceforge.net/DTD/sodipodi-0.dtd"
   xmlns:inkscape="http://www.inkscape.org/namespaces/inkscape"
   id="Layer_1"
   data-name="Layer 1"
   viewBox="0 0 512 512"
   version="1.1"
   sodipodi:docname="pulley.svg"
   inkscape:version="1.0.1 (3bc2e813f5, 2020-09-07)">
  <metadata
     id="metadata112">
    <rdf:RDF>
      <cc:Work
         rdf:about="">
        <dc:format>image/svg+xml</dc:format>
        <dc:type
           rdf:resource="http://purl.org/dc/dcmitype/StillImage" />
      </cc:Work>
    </rdf:RDF>
  </metadata>
  <sodipodi:namedview
     pagecolor="#ffffff"
     bordercolor="#666666"
     borderopacity="1"
     objecttolerance="10"
     gridtolerance="10"
     guidetolerance="10"
     inkscape:pageopacity="0"
     inkscape:pageshadow="2"
     inkscape:window-width="1920"
     inkscape:window-height="985"
     id="namedview110"
     showgrid="false"
     inkscape:zoom="1.4785156"
     inkscape:cx="256"
     inkscape:cy="174.83751"
     inkscape:window-x="0"
     inkscape:window-y="27"
     inkscape:window-maximized="1"
     inkscape:current-layer="Layer_1"
     inkscape:document-rotation="0" />
  <defs
     id="defs91">
    <style
       id="style89">.cls-1{fill:#adb8bc;}.cls-2{fill:#dfe5e8;}.cls-3{fill:#f4536a;}.cls-4{fill:#d0d9dd;}.cls-5{fill:#ee374b;}</style>
  </defs>
  <title
     id="title93">lollipop-flat</title>
  <path
     class="cls-2"
     d="m 409.14309,216.59609 -1.66,-6.45 -3.41,5.68 c -35.74,60 -88.06002,50.43 -143.45001,40.33 l -0.78,-0.14 c 44.43,-29.57 89.42999,-60.83 76.58999,-135.03999 l -0.22,-1.28 -1.13,-0.65 a 157.29,157.29 0 0 0 -118.80999,-16.09 l -5.45,1.42 4.45,3.45 c 48.55,37.77 46.7,84.59999 37.62,137.41999 -26.88,-40 -58.86,-82.3 -131.92,-69.67 l -1.28,0.22 -0.65,1.13 a 157.26,157.26 0 0 0 -16.09,118.81 l 1.41,5.45 3.46,-4.45 c 37.77,-48.55 84.6,-46.7 137.42,-37.62 -40,26.88 -82.31,58.87 -69.67,131.92 l 0.22,1.28 1.12,0.64 a 157.25,157.25 0 0 0 78.81,21.23 159.33,159.33 0 0 0 39.69,-5.05 l 6.45,-1.66 -5.73,-3.41 c -60,-35.72 -50.44,-88 -40.36,-143.39 l 0.17,-0.92 0.26,0.38 c 27.89,41.86 59.47999,89.29 134.82001,76.27 l 1.28,-0.22 0.65,-1.13 a 157.29,157.29 0 0 0 16.19,-118.46 z"
     id="path97" />
  <path
     class="cls-3"
     d="m 408.79001,218.675 0.59,-1 -0.29,-1.12 a 157,157 0 0 0 -74.06002,-97.54 l -5.13,-3 1,5.84 c 12.13,70.32 -28.9,99.3 -73.43,129 10.07,-56.51 13.57,-106.65 -38.85,-147.43 l -1.4,-0.81 -1,0.29 a 157.13,157.13 0 0 0 -97.19,74 l -3,5.13 5.84,-1 c 73,-12.63 103.39,32.87 130.2,73 l 0.21,0.31 v 0 l 0.26,0.37 c -57.21,-10.29 -107.93,-14.36 -149.38,39 l -0.54,1 0.28,1.07 a 157.13,157.13 0 0 0 74,97.19 l 5.13,3 -1,-5.84 c -12.19,-70.43 29.72,-101.19 68.74,-127.34 -9.82,53.77 -18.55,109 43.45,146 l 1,0.59 1.12,-0.29 a 157,157 0 0 0 97.55002,-74.07 l 3,-5.13 -5.84,1 c -68.71002,11.9 -98.41002,-27.81 -125.62002,-68.44 53.29,9.7 107.79002,17.65 144.36002,-43.78 z"
     id="path99" />
</svg>
