<?xml version="1.0" encoding="UTF-8" standalone="no"?>
<!-- Generator: Adobe Illustrator 24.0.1, SVG Export Plug-In . SVG Version: 6.00 Build 0)  -->

<svg
   xmlns:dc="http://purl.org/dc/elements/1.1/"
   xmlns:cc="http://creativecommons.org/ns#"
   xmlns:rdf="http://www.w3.org/1999/02/22-rdf-syntax-ns#"
   xmlns:svg="http://www.w3.org/2000/svg"
   xmlns="http://www.w3.org/2000/svg"
   xmlns:sodipodi="http://sodipodi.sourceforge.net/DTD/sodipodi-0.dtd"
   xmlns:inkscape="http://www.inkscape.org/namespaces/inkscape"
   version="1.1"
   x="0px"
   y="0px"
   viewBox="0 0 2000 848.45"
   style="enable-background:new 0 0 2000 848.45;"
   xml:space="preserve"
   id="svg434"
   sodipodi:docname="letters.svg"
   inkscape:version="0.92.5 (2060ec1f9f, 2020-04-08)"><metadata
   id="metadata440"><rdf:RDF><cc:Work
       rdf:about=""><dc:format>image/svg+xml</dc:format><dc:type
         rdf:resource="http://purl.org/dc/dcmitype/StillImage" /><dc:title /></cc:Work></rdf:RDF></metadata><defs
   id="defs438" /><sodipodi:namedview
   pagecolor="#ffffff"
   bordercolor="#666666"
   borderopacity="1"
   objecttolerance="10"
   gridtolerance="10"
   guidetolerance="10"
   inkscape:pageopacity="0"
   inkscape:pageshadow="2"
   inkscape:window-width="1920"
   inkscape:window-height="1053"
   id="namedview436"
   showgrid="false"
   inkscape:zoom="0.87149999"
   inkscape:cx="1001.5926"
   inkscape:cy="419.4869"
   inkscape:window-x="0"
   inkscape:window-y="27"
   inkscape:window-maximized="1"
   inkscape:current-layer="ITA_Orig" />
<style
   type="text/css"
   id="style248">
	.st0{fill-rule:evenodd;clip-rule:evenodd;fill:#0A0703;}
	.st1{fill-rule:evenodd;clip-rule:evenodd;fill:#FDC905;}
	.st2{fill-rule:evenodd;clip-rule:evenodd;fill:#034DA1;}
	.st3{fill-rule:evenodd;clip-rule:evenodd;fill:#FFFFFF;}
	.st4{fill-rule:evenodd;clip-rule:evenodd;fill:#E81B23;}
</style>
<g
   id="Layer_1">
</g>
<g
   id="Final">
	<g
   id="ITA_Orig">
		
		
		
		<path
   class="st2"
   d="M1118.27,356.47c9.78,0,19.56-0.01,29.34,0.01c4.66,0.01,4.69,0.03,5.77,4.52    c8.2,34.3,16.39,68.61,24.59,102.91c8.76,36.64,17.54,73.27,26.3,109.9c3.3,13.82,6.59,27.65,9.84,41.48    c0.97,4.15,0.84,4.34-3.46,4.36c-13.89,0.05-27.79,0.03-41.69,0.01c-4.96-0.01-5.01-0.03-6.17-4.84    c-3.56-14.82-7.07-29.65-10.6-44.47c-1.46-6.13-1.47-6.13-7.54-6.13c-18.19,0-36.37-0.01-54.56,0c-4.87,0-4.91,0.02-6.06,4.76    c-3.68,15.14-7.33,30.29-10.99,45.43c-1.26,5.2-1.26,5.24-6.37,5.25c-13.55,0.02-27.11,0.01-40.66,0.01    c-0.69,0-1.37-0.02-2.06-0.02c-1.93,0.03-2.91-0.79-2.54-2.82c0.19-1.01,0.35-2.02,0.59-3.02c9.61-39.95,19.24-79.9,28.82-119.86    c10.51-43.79,20.97-87.59,31.45-131.38c0.12-0.5,0.2-1.01,0.32-1.51c1.19-4.53,1.19-4.56,5.83-4.57    C1098.37,356.45,1108.32,356.47,1118.27,356.47z M1118.29,429.23c-0.36,0-0.72-0.01-1.09-0.02    c-7.09,29.72-14.18,59.44-21.29,89.22c7.62,1,39.84,0.69,43.6-0.42C1132.44,488.43,1125.36,458.83,1118.29,429.23z"
   id="path257" />
		
		
		
		<path
   class="st2"
   d="M998.86,277.81c39.8,0,79.6,0,119.4,0c6.64,0,6.24-0.44,6.24,6.01c0,11.32,0.02,22.65-0.01,33.97    c-0.01,4.76-0.05,4.81-4.84,4.81c-29.51,0.02-59.01,0.01-88.52,0.01c-7.34,0-6.75-0.59-6.75,6.54c0,58.15,0,116.31,0,174.46    c0,1.2,0.02,2.4,0,3.6c-0.07,4.46-0.07,4.51-4.57,4.52c-14.07,0.03-28.13,0.03-42.2,0c-4.34-0.01-4.39-0.07-4.4-4.68    c-0.02-23.85-0.01-47.69-0.01-71.54c0-35.33,0-70.68,0-106.01c0-1.37-0.06-2.74,0-4.11c0.08-1.96-0.82-2.84-2.76-2.78    c-1.37,0.04-2.74-0.01-4.12-0.01c-28.65,0-57.3,0-85.94,0c-1.2,0-2.4,0.04-3.6-0.01c-3.55-0.15-3.65-0.16-3.68-3.92    c-0.06-10.29-0.02-20.58-0.02-30.88c0-2.4,0.05-4.8,0.01-7.21c-0.03-1.93,0.85-2.83,2.78-2.78c1.37,0.03,2.74-0.02,4.12-0.02    C919.6,277.81,959.23,277.81,998.86,277.81z"
   id="path265" />
		
		
		
		
		<path
   class="st2"
   d="M923.89,488.71c0,41.33,0,82.65-0.01,123.98c0,6.92,0.54,6.3-6.42,6.31c-12.86,0.02-25.72,0-38.58,0    c-5.99,0-5.67,0.32-5.67-5.51c0-28.63,0-57.27,0-85.91c0-54.7,0-109.4,0.01-164.11c0-6.89-0.58-6.35,6.39-6.36    c12.69-0.01,25.38-0.01,38.07,0c6.59,0.01,6.21-0.43,6.21,6.06C923.89,405.03,923.89,446.87,923.89,488.71z"
   id="path275" />
		
		
		
		
		
		
		
		
		
		
		
		
		
		
		
		
		
		
		
		
		
		
		
		
		
		
		
		
		
		
		
		
		
		
		
		<path
   class="st2"
   d="M1118.27,356.47c9.78,0,19.56-0.01,29.34,0.01c4.66,0.01,4.69,0.03,5.77,4.52    c8.2,34.3,16.39,68.61,24.59,102.91c8.76,36.64,17.54,73.27,26.3,109.9c3.3,13.82,6.59,27.65,9.84,41.48    c0.97,4.15,0.84,4.34-3.46,4.36c-13.89,0.05-27.79,0.03-41.69,0.01c-4.96-0.01-5.01-0.03-6.17-4.84    c-3.56-14.82-7.07-29.65-10.6-44.47c-1.46-6.13-1.47-6.13-7.54-6.13c-18.19,0-36.37-0.01-54.56,0c-4.87,0-4.91,0.02-6.06,4.76    c-3.68,15.14-7.33,30.29-10.99,45.43c-1.26,5.2-1.26,5.24-6.37,5.25c-13.55,0.02-27.11,0.01-40.66,0.01    c-0.69,0-1.37-0.02-2.06-0.02c-1.93,0.03-2.91-0.79-2.54-2.82c0.19-1.01,0.35-2.02,0.59-3.02c9.61-39.95,19.24-79.9,28.82-119.86    c10.51-43.79,20.97-87.59,31.45-131.38c0.12-0.5,0.2-1.01,0.32-1.51c1.19-4.53,1.19-4.56,5.83-4.57    C1098.37,356.45,1108.32,356.47,1118.27,356.47z M1118.29,429.23c-0.36,0-0.72-0.01-1.09-0.02    c-7.09,29.72-14.18,59.44-21.29,89.22c7.62,1,39.84,0.69,43.6-0.42C1132.44,488.43,1125.36,458.83,1118.29,429.23z"
   id="path347" />
		
		
		
		<path
   class="st2"
   d="M998.86,277.81c39.8,0,79.6,0,119.4,0c6.64,0,6.24-0.44,6.24,6.01c0,11.32,0.02,22.65-0.01,33.97    c-0.01,4.76-0.05,4.81-4.84,4.81c-29.51,0.02-59.01,0.01-88.52,0.01c-7.34,0-6.75-0.59-6.75,6.54c0,58.15,0,116.31,0,174.46    c0,1.2,0.02,2.4,0,3.6c-0.07,4.46-0.07,4.51-4.57,4.52c-14.07,0.03-28.13,0.03-42.2,0c-4.34-0.01-4.39-0.07-4.4-4.68    c-0.02-23.85-0.01-47.69-0.01-71.54c0-35.33,0-70.68,0-106.01c0-1.37-0.06-2.74,0-4.11c0.08-1.96-0.82-2.84-2.76-2.78    c-1.37,0.04-2.74-0.01-4.12-0.01c-28.65,0-57.3,0-85.94,0c-1.2,0-2.4,0.04-3.6-0.01c-3.55-0.15-3.65-0.16-3.68-3.92    c-0.06-10.29-0.02-20.58-0.02-30.88c0-2.4,0.05-4.8,0.01-7.21c-0.03-1.93,0.85-2.83,2.78-2.78c1.37,0.03,2.74-0.02,4.12-0.02    C919.6,277.81,959.23,277.81,998.86,277.81z"
   id="path355" />
		
		
		
		
		<path
   class="st2"
   d="M923.89,488.71c0,41.33,0,82.65-0.01,123.98c0,6.92,0.54,6.3-6.42,6.31c-12.86,0.02-25.72,0-38.58,0    c-5.99,0-5.67,0.32-5.67-5.51c0-28.63,0-57.27,0-85.91c0-54.7,0-109.4,0.01-164.11c0-6.89-0.58-6.35,6.39-6.36    c12.69-0.01,25.38-0.01,38.07,0c6.59,0.01,6.21-0.43,6.21,6.06C923.89,405.03,923.89,446.87,923.89,488.71z"
   id="path365" />
		
		
		
		
		
		
		
		
		
		
		
		
		
		
		
		
		
		
		
		
		
		
		
		
		
		
		
		
		
		
		
		
	</g>
</g>
<g
   id="Colors">
</g>
</svg>