<?xml version="1.0" encoding="utf-8"?>
<!-- Generator: Adobe Illustrator 24.0.1, SVG Export Plug-In . SVG Version: 6.00 Build 0)  -->
<svg version="1.1" xmlns="http://www.w3.org/2000/svg" xmlns:xlink="http://www.w3.org/1999/xlink" x="0px" y="0px"
	 viewBox="0 0 2000 848.45" style="enable-background:new 0 0 2000 848.45;" xml:space="preserve">
<style type="text/css">
	.st0{fill-rule:evenodd;clip-rule:evenodd;fill:#0A0703;}
	.st1{fill-rule:evenodd;clip-rule:evenodd;fill:#FDC905;}
	.st2{fill-rule:evenodd;clip-rule:evenodd;fill:#034DA1;}
	.st3{fill-rule:evenodd;clip-rule:evenodd;fill:#FFFFFF;}
	.st4{fill-rule:evenodd;clip-rule:evenodd;fill:#E81B23;}
</style>
<g id="Layer_1">
</g>
<g id="Final">
	<g id="ITA_Orig">
		<path class="st0" d="M973.11,771.26c-3.83-2.61-8.42-2.16-12.66-2.97c-8.24-1.58-16.54-2.94-24.86-4.02
			c-2.88-0.37-3.19-1.58-3.08-3.99c0.39-8.74,0.59-17.49,0.89-26.24c0.14-3.97,0.14-3.92-3.83-5.12c-5.57-1.69-11.19-3.26-16.63-5.3
			c-2.73-1.02-3.94-0.25-5.32,1.96c-4.63,7.41-9.43,14.72-14.18,22.06c-2.15,3.33-2.2,3.35-5.46,1.77
			c-11.25-5.44-22.46-10.97-33.76-16.31c-2.48-1.18-3.15-2.35-2.14-5.05c3.15-8.51,5.92-17.16,9.06-25.67
			c0.87-2.36,0.67-3.61-1.53-5.04c-5.03-3.26-9.95-6.72-14.71-10.36c-2.23-1.71-3.67-1.42-5.69,0.27
			c-6.97,5.83-14.13,11.44-21.13,17.23c-1.59,1.32-2.66,1.57-4.28-0.01c-9.94-9.7-19.97-19.3-30.3-29.26
			c1.99-2.65,3.9-5.21,5.82-7.75c4.24-5.61,8.42-11.27,12.79-16.77c1.45-1.83,1.4-3.02-0.1-4.82c-3.83-4.62-7.61-9.3-11.01-14.24
			c-1.79-2.6-3.33-2.56-5.94-1.49c-8.23,3.37-16.63,6.34-24.84,9.75c-2.68,1.11-3.88,0.64-5.16-1.87
			c-4.52-8.85-9.31-17.56-13.89-26.38c-1.19-2.29-2.75-3.52-5.28-4.33c-18.48-5.91-34.66-15.52-47.41-30.4
			c-9.84-11.49-15.86-24.72-17.77-39.78c-0.83-6.57,0.33-12.97,1.36-19.41c1.17-7.25,2.38-5.57-4.3-7.7
			c-82.17-26.23-164.38-52.37-246.57-78.53c-64.91-20.66-129.81-41.33-194.71-62c-9.5-3.02-17.77-8.02-24.42-15.53
			c-5.47-6.18-9.15-13.29-10.28-21.48c-0.36-2.64-1.46-3.85-3.78-4.7c-4.21-1.53-8.03-3.83-11.61-6.52
			c-8.89-6.66-14.59-15.36-16.41-26.38c-0.35-2.09-0.94-3.31-2.95-4.19c-13.56-5.95-23.38-15.38-27.38-30.04
			c-0.47-1.73-1.67-2.39-3.14-3.05c-13.61-6.05-22.02-16.45-25.58-30.85c-0.31-1.25-0.24-2.78-1.91-3.24c0-3.43,0-6.86,0-10.29
			c14.75,0.46,29.49,0.86,44.24,1.4c33.43,1.21,66.86,2.5,100.3,3.73c22.29,0.82,44.58,1.57,66.87,2.39
			c42.52,1.58,85.04,3.2,127.56,4.77c31.89,1.18,63.78,2.26,95.67,3.44c41.49,1.54,82.98,3.17,124.47,4.7
			c32.92,1.21,65.84,2.27,98.76,3.52c8.73,0.33,17.52,0.35,26.09,2.4c2.14,0.51,3.05-0.33,4.11-1.94c1.78-2.73,3.64-5.44,5.79-7.86
			c18.53-20.86,41.33-29.69,68.79-22.63c22.43,5.77,37.3,20.79,46.65,41.63c0.8,1.79,1.02,3.9,2.74,5.45
			c2.31-7.92,4.81-15.56,7.96-22.98c5.72-13.45,13.08-26,20.81-38.36c8.33-13.32,12.22-27.85,10.97-43.6
			c-1.66-20.95-9.93-38.98-24.28-54.28c-4.34-4.63-4.27-7.11,0.27-11.51c2.4,0,4.8,0,7.21,0c3.96,2,8.4,2.08,12.61,3.06
			c75.69,17.6,134.46,82.75,144.03,159.8c0.15,1.24,0.14,2.55,1.36,3.85c2.64-6.23,5.57-11.81,9.28-16.97
			c22.13-30.82,62.24-38.48,92.74-17.67c8.18,5.58,14.94,12.59,20.12,21.03c1.16,1.9,2.26,2.53,4.54,1.92
			c4.98-1.34,10.12-1.63,15.28-1.77c11.83-0.32,23.66-0.83,35.48-1.27c33.43-1.25,66.85-2.51,100.27-3.74
			c22.97-0.85,45.94-1.65,68.91-2.49c33.08-1.22,66.17-2.47,99.25-3.69c22.45-0.83,44.91-1.6,67.36-2.43
			c32.74-1.22,65.48-2.48,98.22-3.69c23.48-0.86,46.97-1.63,70.45-2.51c40.79-1.52,81.59-3.09,122.38-4.6
			c1.49-0.05,3.08-0.54,4.69,0.55c0,2.78,0,5.68,0,8.58c-2.11,16.26-10.75,27.8-25.38,34.95c-1.85,0.9-3.4,1.53-4.09,3.97
			c-3.99,13.94-13.32,23.25-26.32,29.1c-2.15,0.97-3.55,1.99-3.85,4.66c-1.72,15.45-10.84,25.61-24.32,32
			c-4.28,2.03-6.12,4.31-7.3,9.03c-4.37,17.45-16.37,28.17-33.05,33.59c-38.4,12.48-76.89,24.66-115.36,36.93
			c-109.21,34.83-218.42,69.64-327.63,104.46c-0.65,0.21-1.28,0.5-1.95,0.63c-2.28,0.44-2.87,1.55-2.47,3.96
			c5.48,32.77-7.95,57.35-33.64,76.36c-10.57,7.82-22.48,13.05-35.18,16.4c-3,0.79-5.03,2.06-6.52,4.99
			c-4.26,8.4-9.03,16.54-13.37,24.9c-1.26,2.44-2.5,2.63-4.82,1.65c-8.19-3.47-16.51-6.65-24.66-10.2
			c-2.61-1.15-3.88-0.58-5.42,1.64c-3.53,5.06-7.27,9.98-11.12,14.79c-1.47,1.84-1.41,3.08-0.02,4.9
			c5.54,7.2,10.93,14.52,16.38,21.79c1.04,1.39,2.14,2.55,0.26,4.34c-10.19,9.68-20.28,19.46-30.59,29.39
			c-6.31-5.07-12.44-9.99-18.58-14.92c-1.87-1.5-3.82-2.93-5.58-4.56c-1.42-1.32-2.49-1.13-3.96-0.04
			c-4.97,3.66-9.96,7.3-15.11,10.68c-2.22,1.46-2.88,2.65-1.89,5.35c3.09,8.34,5.69,16.87,8.75,25.23c0.98,2.67,0.57,3.8-2.05,5.03
			c-11.47,5.37-22.85,10.92-34.18,16.59c-2.43,1.22-3.54,0.67-4.88-1.46c-4.64-7.4-9.55-14.64-14.16-22.06
			c-1.44-2.31-2.71-2.74-5.33-1.76c-5.44,2.04-11.01,3.79-16.63,5.23c-2.8,0.71-3.41,2.04-3.34,4.65
			c0.25,8.91,0.17,17.84,0.49,26.75c0.1,2.8-0.74,3.83-3.49,4.19c-12.91,1.73-25.8,3.58-38.67,5.52c-2.3,0.34-2.51-1.01-2.92-2.54
			c-2.24-8.44-4.5-16.87-6.77-25.3c-1.09-4.08-1.11-4.04-5.47-4.03c-6,0.02-12.01,0-18.01-0.03c-1.59-0.01-2.87-0.12-3.45,2.02
			c-2.7,9.91-5.6,19.76-8.39,29.65c-0.11,0.41,0.18,0.93,0.29,1.4C975.85,771.26,974.48,771.26,973.11,771.26z M1008.7,123.07
			c-0.52-0.55-1.11-1.63-1.83-0.95c-0.51,0.49,0.37,1.31,1.03,1.74c0.26,0.62,0.46,1.3,0.8,1.87
			c19.04,31.81,23.53,66.34,19.38,102.54c-1.48,12.97-4.18,25.66-7.63,38.23c-1.06,3.86-1,3.96,3.13,3.99
			c8.06,0.06,16.12,0.05,24.17,0c4.45-0.02,4.46-0.08,4.67-4.6c0.95-20.96,0.1-41.83-4.35-62.38
			c-5.73-26.49-14.21-51.84-31.39-73.52C1014.36,127.08,1011.9,124.76,1008.7,123.07z M941.18,101.07l-0.12-0.16l0.11,0.12
			c1.27,2.03,2.58,4.05,3.82,6.1c8.02,13.31,12.73,27.72,13.54,43.23c0.9,17.33-3.86,33.23-13.18,47.79
			c-5.46,8.53-10.62,17.23-15.08,26.32c-6.53,13.29-11.59,27.09-14.1,41.74c-0.7,4.09-0.69,4.19,3.17,4.27
			c4.11,0.08,8.24-0.15,12.35,0.07c2.95,0.17,3.8-1.25,4.31-3.81c2.5-12.73,7.42-24.57,13.68-35.88c3.41-6.15,6.78-12.32,9.66-18.74
			c7.95-17.75,12.89-36.17,11.68-55.81c-1.29-21-9.49-38.75-25.5-52.66C944.23,102.57,943.07,101.18,941.18,101.07z M441,233.22
			c0-0.02,0-0.04,0-0.06c-12.68-0.46-25.37-0.93-38.06-1.39c-22.63-0.81-45.26-1.6-67.88-2.43c-33.25-1.23-66.51-2.49-99.76-3.74
			c-24.51-0.92-49.02-1.88-73.53-2.77c-16.97-0.62-33.94-1.17-50.92-1.72c-3.72-0.12-3.73-0.04-2.9,3.77
			c3.24,15.01,15.01,26.19,30.37,28.24c17.5,2.34,35.05,4.29,52.58,6.43c18.38,2.24,36.76,4.48,55.13,6.72
			c21.1,2.58,42.2,5.15,63.3,7.72c18.04,2.2,36.07,4.38,54.11,6.59c21.1,2.58,42.19,5.2,63.3,7.77c20.93,2.55,41.87,5.03,62.8,7.59
			c23.82,2.91,47.63,5.92,71.45,8.83c21.1,2.58,42.21,5.05,63.31,7.62c21.61,2.63,43.22,5.28,64.82,7.97
			c13.27,1.65,26.62,2.84,39.76,5.2c18.81,3.38,32.66,13.79,40.12,31.72c4.61,11.07,5.08,22.62,2.87,34.36
			c-2.22,11.84-3.27,23.73-1.71,35.8c3.92,30.36,19.31,52.28,47.41,64.79c14.14,6.29,29.04,7.8,44.31,5.56
			c3.89-0.57,3.91-0.73,3.95-4.39c0.05-4.46-0.17-8.93,0.08-13.38c0.15-2.74-1-3.62-3.45-3.86c-6.18-0.61-12.12-2.21-17.89-4.48
			c-39.02-15.34-57.1-60.43-39.01-97.31c3.33-6.8,7.56-13.04,11.83-19.27c3.98-5.8,7.91-11.62,11.3-17.8
			c13.66-24.87,6.84-54.1-10.98-71.5c-13.25-12.92-29.39-19.54-47.6-20.46c-28.95-1.45-57.93-2.23-86.9-3.28
			c-22.8-0.83-45.6-1.61-68.4-2.46c-31.88-1.19-63.76-2.44-95.64-3.62C493.12,235.03,467.06,234.14,441,233.22z M1191.57,488.27
			c22.69-11.75,38.4-36.81,39.96-62.82c0.78-12.93-0.73-25.66-2.48-38.43c-3.93-28.67,12.12-55.91,44.21-61.58
			c10.12-1.79,20.38-2.77,30.59-4.02c21.1-2.59,42.22-5.08,63.32-7.66c23.66-2.9,47.3-5.88,70.96-8.76
			c24-2.93,48.01-5.76,72.01-8.69c26.55-3.25,53.09-6.59,79.64-9.83c24-2.93,48.01-5.74,72.01-8.68
			c34.89-4.27,69.77-8.64,104.66-12.91c32-3.91,64.01-7.71,96-11.63c17.02-2.08,29.8-14.96,31.53-31.73c-1.6-0.85-3.33-0.38-5-0.32
			c-46.8,1.71-93.61,3.45-140.42,5.17c-46.63,1.72-93.27,3.43-139.91,5.14c-37.55,1.38-75.1,2.74-112.65,4.12
			c-47.32,1.74-94.64,3.5-141.96,5.22c-40.46,1.47-80.93,2.82-121.39,4.41c-14.89,0.59-28.59,5.13-40.84,13.81
			c-24.69,17.5-34.38,51.26-18.13,79.47c3.08,5.36,6.5,10.49,9.95,15.61c3.94,5.83,7.88,11.64,11.22,17.85
			c7.79,14.47,9.86,29.78,6.98,45.86c-2.23,12.45-7.44,23.53-15.73,33.02c-2.32,2.66-2.87,4.99-1.9,8.27
			c1.41,4.76,2.34,9.66,3.57,14.47C1189.01,478.4,1189.74,483.33,1191.57,488.27z M1118.27,356.47c-9.95,0-19.9-0.02-29.85,0.01
			c-4.64,0.01-4.64,0.05-5.83,4.57c-0.13,0.5-0.2,1.01-0.32,1.51c-10.48,43.79-20.94,87.59-31.45,131.38
			c-9.58,39.96-19.21,79.91-28.82,119.86c-0.24,1-0.4,2.02-0.59,3.02c-0.37,2.04,0.61,2.85,2.54,2.82c0.69-0.01,1.37,0.02,2.06,0.02
			c13.55,0,27.11,0.02,40.66-0.01c5.1-0.01,5.11-0.05,6.37-5.25c3.66-15.14,7.31-30.29,10.99-45.43c1.15-4.74,1.2-4.75,6.06-4.76
			c18.19-0.01,36.37-0.01,54.56,0c6.07,0,6.08,0,7.54,6.13c3.53,14.82,7.04,29.65,10.6,44.47c1.16,4.81,1.21,4.83,6.17,4.84
			c13.9,0.02,27.8,0.03,41.69-0.01c4.3-0.02,4.43-0.2,3.46-4.36c-3.25-13.83-6.53-27.66-9.84-41.48
			c-8.76-36.64-17.54-73.27-26.3-109.9c-8.2-34.3-16.39-68.61-24.59-102.91c-1.08-4.49-1.11-4.51-5.77-4.52
			C1137.83,356.46,1128.05,356.47,1118.27,356.47z M1180.63,644.23c-2.11-3.75-4.25-6.7-5.52-9.98c-2.32-5.98-6.26-8.1-12.59-7.32
			c-4.38,0.54-4.48,0.09-5.57-4.44c-3.83-15.81-7.7-31.61-11.4-47.45c-0.61-2.6-1.59-3.54-4.36-3.52
			c-15.61,0.14-31.22,0.12-46.83,0.02c-2.55-0.02-3.46,0.81-4.04,3.31c-3.7,16.01-7.61,31.98-11.47,47.96
			c-1.02,4.2-1.06,4.23-5.34,4.23c-19.38,0.01-38.77,0.01-58.16-0.01c-1.16,0-2.39,0.3-3.59-0.54c0.27-1.45,0.47-2.98,0.83-4.47
			c14.84-62.12,29.68-124.25,44.57-186.36c0.64-2.65,0.44-4.88-0.99-7.31c-7.32-12.4-14.46-24.89-21.69-37.33
			c-0.56-0.96-0.82-2.24-2.59-2.68c0,1.75,0,3.39,0,5.03c0,40.14,0.01,80.29-0.02,120.43c0,6.1,0.91,5.32-5.53,5.34
			c-18.53,0.03-37.06,0.03-55.58,0c-5.63,0-4.88,0.54-4.88-4.97c-0.02-40.31,0-80.63-0.03-120.94c0-1.75,0.32-3.58-0.56-5.91
			c-1.32,2.18-2.31,3.76-3.24,5.36c-9.17,15.88-18.24,31.81-27.56,47.6c-2.1,3.55-2.95,7.06-2.94,11.15
			c0.09,56.61,0.06,113.22,0.06,169.83c0,5.84,0.63,5.48-5.6,5.48c-18.18,0-36.37,0.02-54.55-0.01c-6.07-0.01-5.59,0.76-5.6-5.39
			c-0.01-19.04,0.01-38.08-0.04-57.12c0-0.98,0.73-2.32-1.01-3.15c-15.91,27.57-31.79,55.08-48.01,83.17
			C938.37,644.23,1059.04,644.23,1180.63,644.23z M734.19,335.1c-0.65-0.59-0.87-0.93-1.16-1.01c-1.48-0.44-2.95-0.99-4.46-1.17
			c-196.47-24.07-392.95-48.11-589.43-72.14c-0.15-0.02-0.33,0.09-0.47,0.17c-0.13,0.08-0.23,0.2-0.48,0.4
			c0.73,3.72,2.66,6.94,4.99,9.9c6.55,8.32,15.27,13.17,25.54,15.14c25.91,4.98,51.85,9.77,77.78,14.67
			c35.52,6.72,71.02,13.49,106.54,20.19c35.52,6.7,71.06,13.32,106.57,20.01c33.84,6.37,67.66,12.81,101.5,19.19
			c37.21,7.02,74.42,14,111.63,21.02c9.76,1.84,19.51,3.77,29.28,5.56c1.73,0.32,3.73,1.31,5.25-0.64
			c3.18-4.06,6.61-7.89,10.28-11.5c0.76-0.75,1.04-1.73,1.28-2.75C721.97,359.06,726.96,346.72,734.19,335.1z M1864.48,260.7
			c-3.83-0.34-6.84,0.52-9.88,0.89c-21.1,2.51-42.21,5.04-63.31,7.61c-21.44,2.61-42.87,5.27-64.31,7.89
			c-18.04,2.21-36.07,4.39-54.11,6.6c-21.1,2.58-42.19,5.2-63.29,7.77c-20.93,2.54-41.87,5.01-62.8,7.57
			c-21.1,2.58-42.18,5.24-63.28,7.81c-21.1,2.58-42.2,5.05-63.3,7.63c-21.1,2.58-42.18,5.25-63.28,7.82
			c-23.82,2.91-47.66,5.69-71.47,8.64c-5.72,0.71-11.56,1.06-16.95,3.35c-0.36,1.86,0.92,3,1.64,4.29
			c3.77,6.75,7.54,13.62,9.43,21.07c2.47,9.73,6.76,18.04,14.02,25.01c1.95,1.87,3.37,2.81,6.11,2.27
			c21.7-4.19,43.43-8.23,65.15-12.34c39.56-7.46,79.13-14.94,118.69-22.41c39.23-7.41,78.45-14.84,117.68-22.23
			c40.92-7.71,81.84-15.39,122.75-23.09c36.54-6.88,73.08-13.74,109.6-20.68c6.11-1.16,11.81-3.59,16.94-7.16
			C1856.97,274.5,1861.93,268.79,1864.48,260.7z M998.86,277.81c-39.63,0-79.25,0-118.88,0c-1.37,0-2.75,0.05-4.12,0.02
			c-1.93-0.05-2.81,0.85-2.78,2.78c0.04,2.4-0.01,4.8-0.01,7.21c0,10.29-0.04,20.59,0.02,30.88c0.02,3.76,0.12,3.77,3.68,3.92
			c1.2,0.05,2.4,0.01,3.6,0.01c28.65,0,57.3,0,85.94,0c1.37,0,2.74,0.05,4.12,0.01c1.94-0.06,2.84,0.82,2.76,2.78
			c-0.06,1.37,0,2.74,0,4.11c0,35.34,0,70.68,0,106.01c0,23.85-0.01,47.69,0.01,71.54c0,4.61,0.05,4.67,4.4,4.68
			c14.07,0.03,28.13,0.03,42.2,0c4.5-0.01,4.5-0.06,4.57-4.52c0.02-1.2,0-2.4,0-3.6c0-58.15,0-116.31,0-174.46
			c0-7.13-0.59-6.54,6.75-6.54c29.51,0,59.01,0.01,88.52-0.01c4.78,0,4.83-0.05,4.84-4.81c0.03-11.32,0.01-22.65,0.01-33.97
			c0-6.46,0.41-6.01-6.24-6.01C1078.46,277.81,1038.66,277.81,998.86,277.81z M701.6,394.64
			c-178.14-33.56-355.66-67.02-532.98-100.43c-0.87,1.64-0.43,2.6-0.14,3.55c2.33,7.91,7.22,13.9,13.9,18.56
			c5.71,3.99,12.13,6.28,18.82,7.98c38.18,9.68,76.37,19.36,114.54,29.07c107.39,27.32,214.77,54.66,322.16,81.99
			c11.79,3,23.58,5.96,35.37,8.94c4.52,1.14,4.52,1.14,6.53-2.85c1.55-3.07,3.18-6.14,5.48-8.67c3-3.29,4.53-7.03,5.36-11.38
			C692.44,412.09,696.51,403.58,701.6,394.64z M1834.95,293.78c-178.46,33.69-356.14,67.23-533.75,100.76
			c-0.11,1.45,0.56,2.27,1.06,3.15c4.75,8.42,8.26,17.31,10.02,26.84c0.42,2.24,1.28,4.16,2.8,5.91c2.92,3.37,5.32,7.14,7.56,11.01
			c2.14,3.7,2.16,3.71,6.29,2.66c52.29-13.26,104.58-26.49,156.86-39.79c91.12-23.17,182.23-46.37,273.35-69.56
			c14.94-3.8,29.89-7.55,44.81-11.41c8.61-2.23,16.39-6.06,22.57-12.66C1830.79,306.12,1833.8,300.86,1834.95,293.78z
			 M1802.71,331.87c-2.76-0.19-4.67,0.68-6.63,1.18c-110.39,28.01-220.78,56.06-331.16,84.11c-44.32,11.27-88.63,22.55-132.95,33.8
			c-5.17,1.31-4.41,1.31-3.19,5.31c4.5,14.68,4.4,29.38,0.29,44.11c-0.3,1.08-1.26,2.15-0.2,3.33c2.12,0.04,3.99-0.93,5.92-1.54
			c39.49-12.56,78.98-25.18,118.46-37.77c106.55-33.98,213.1-67.97,319.65-101.94c5.43-1.74,10.57-4.05,15.11-7.51
			C1795.62,349.16,1800.9,341.85,1802.71,331.87z M674.4,452.08c-158.43-40.24-316.55-80.4-475.14-120.68
			c1.02,7.73,4.31,13.42,8.9,18.41c5.84,6.37,13.17,10.21,21.34,12.82c91.75,29.2,183.47,58.46,275.2,87.72
			c54.35,17.34,108.69,34.72,163.05,52.02c1.79,0.57,3.61,1.9,5.99,0.94C668.2,486.25,668.5,469.4,674.4,452.08z M923.89,488.71
			c0-41.84,0-83.68,0-125.52c0-6.49,0.38-6.05-6.21-6.06c-12.69,0-25.38-0.01-38.07,0c-6.97,0.01-6.39-0.54-6.39,6.36
			c-0.01,54.7-0.01,109.4-0.01,164.11c0,28.64,0,57.27,0,85.91c0,5.82-0.32,5.51,5.67,5.51c12.86,0,25.72,0.02,38.58,0
			c6.95-0.01,6.42,0.6,6.42-6.31C923.9,571.36,923.89,530.04,923.89,488.71z M815.73,696.26c7.72-6.29,15.03-12.25,22.35-18.21
			c3.94-3.2,3.04-3.09,6.77-0.24c7.37,5.62,14.86,11.08,22.81,15.84c2.67,1.6,2.93,3.1,1.93,5.82c-3.02,8.2-5.66,16.53-8.69,24.73
			c-0.94,2.54-0.3,3.63,1.99,4.7c7.45,3.49,14.89,7.02,22.16,10.86c2.66,1.4,3.84,0.75,5.26-1.52c4.66-7.4,9.54-14.67,14.19-22.07
			c1.33-2.12,2.52-2.6,4.97-1.63c8.76,3.49,17.77,6.26,26.92,8.57c4.74,1.2,4.72,1.26,4.55,6.16c-0.3,8.4-0.55,16.81-0.94,25.2
			c-0.11,2.34,0.59,3.25,3.03,3.6c7.97,1.13,15.9,2.61,23.85,3.85c3.97,0.62,4.02,0.52,5.19-3.54c2.33-8.07,4.61-16.15,6.94-24.21
			c1.15-3.96,1.19-4.02,5.21-3.71c9.09,0.7,18.16,0.61,27.25,0.02c4.63-0.3,4.48-1.17,5.88,4.12c2.14,8.12,4.27,16.24,6.32,24.39
			c0.55,2.19,1.44,3.09,3.92,2.68c8.12-1.34,16.25-2.61,24.42-3.55c3.81-0.44,3.76-1.15,3.7-4.56c-0.15-8.41-0.26-16.82-0.31-25.22
			c-0.03-4.67-0.69-4.02,4.22-5.39c8.76-2.43,17.4-5.2,25.93-8.33c3.8-1.4,3.84-1.4,6.05,2.01c4.58,7.05,9.18,14.09,13.62,21.22
			c1.33,2.12,2.42,2.76,4.88,1.47c7.29-3.8,14.68-7.43,22.15-10.88c2.6-1.21,3.08-2.51,2.1-5.15c-3.04-8.19-5.76-16.5-8.79-24.7
			c-0.88-2.39-0.43-3.63,1.75-4.93c8.1-4.86,15.73-10.41,23.07-16.35c3.87-3.13,3.07-2.73,6.72,0.22
			c6.53,5.29,13.1,10.54,19.54,15.94c1.82,1.53,2.93,1.58,4.68-0.16c6.08-6.05,12.29-11.97,18.55-17.84c1.6-1.5,1.61-2.58,0.29-4.27
			c-4.23-5.41-8.38-10.87-12.38-16.44c-1.48-2.07-3.21-2.73-5.65-2.67c-5.14,0.14-10.3,0.19-15.44-0.02
			c-2.84-0.12-4.73,0.98-6.76,2.85c-53.76,49.67-117.04,70.85-189.87,62.99c-30.38-3.28-58.84-12.77-85.57-27.53
			c-17.52-9.67-33.51-21.42-47.92-35.3c-2.13-2.05-4.23-3.12-7.23-3c-5.31,0.21-10.64,0.1-15.96,0.03
			c-1.98-0.02-3.62,0.25-4.94,2.02c-4.61,6.19-9.31,12.31-14.07,18.39c-1.09,1.39-0.95,2.3,0.26,3.45
			C801.56,682.59,808.46,689.26,815.73,696.26z M894.58,331.32c-1.36-1.23-2.6-0.79-3.72-0.8c-6.86-0.04-13.72-0.01-20.58-0.03
			c-4.83-0.01-4.87-0.03-4.88-4.67c-0.02-16.98-0.02-33.96,0-50.94c0.01-4.63,0.05-4.65,4.95-4.66c11.15-0.02,22.3,0.02,33.45-0.03
			c3.56-0.02,3.92-0.41,2.97-3.9c-2.74-10.15-6.47-19.84-12.78-28.42c-24.96-33.92-72.61-34.1-97.53-0.3
			c-0.98,1.32-2.35,2.49-2.43,4.34c1.06,1.37,2.71,1.49,4.09,2.06c6.85,2.85,13.2,6.52,19.06,11.07
			c27.08,21,34.36,58.57,17.34,87.24c-3.51,5.91-7.36,11.57-11.21,17.24c-3.56,5.25-7.02,10.56-10.01,16.17
			c-16.05,30.13-3.81,67.91,25.56,84.64c0.94,0.54,1.85,1.5,3.54,0.74c-6.51-13.57-7.75-27.87-6.29-42.59
			c1.39-14.08,6.07-26.68,15.75-37.17c3.72-4.03,7.51-8.01,11.47-11.8c1.91-1.83,2.7-3.73,2.55-6.34
			c-0.19-3.42,0.06-6.86-0.08-10.29c-0.1-2.37,0.61-3.47,3.17-3.34c3.25,0.17,6.52,0.03,9.78,0.03c1.39,0,2.72-0.04,3.71-1.3
			C886.79,342.81,891.03,337.28,894.58,331.32z M1181.81,444.7c15.09-21.03,18.73-43,8.15-66.67c-3.3-7.38-8.05-13.94-12.61-20.58
			c-4.36-6.36-8.72-12.72-12.14-19.67c-6.66-13.58-8.49-27.79-5.2-42.53c5.49-24.66,20.65-41.18,43.52-51.1
			c1.65-0.72,3.7-0.76,4.83-2.47c-20.17-33.02-64.01-39.19-91.85-13.01c-8.81,8.29-14.89,18.29-18.68,29.73
			c-0.91,2.76-1.58,5.6-2.36,8.4c-0.63,2.28-0.16,3.68,2.61,3.45c1.36-0.12,2.74-0.02,4.12-0.02c8.92,0,17.83,0.05,26.75-0.03
			c2.31-0.02,3.44,0.6,3.43,3.16c-0.07,18.01-0.07,36.02,0.01,54.02c0.01,2.59-1.07,3.2-3.4,3.15c-5.49-0.11-10.98-0.06-16.47-0.02
			c-1.65,0.02-3.35-0.34-5.4,0.55c2.84,5.43,6.49,10.12,10,14.91c1.68,2.29,3.56,3.21,6.45,3.16c10.29-0.17,20.58,0.02,30.87-0.12
			c2.7-0.04,4.21,0.69,4.41,3.5c0.05,0.67,0.35,1.32,0.51,1.99c6.88,28.82,13.75,57.64,20.62,86.46
			C1180.27,442.11,1180.25,443.37,1181.81,444.7z M722.59,403.79c-0.11,7.8,0.61,16.88,2.91,25.7
			c13.18,50.39,45.01,81.56,96.21,92.15c13,2.68,26.25,2.76,39.28-0.71c4.83-1.29,4.83-1.31,4.85-6.12
			c0.01-1.89,0.03-3.77-0.01-5.66c-0.08-3.72-0.12-3.84-3.77-3.29c-8.72,1.31-17.42,1.26-26.12-0.14
			c-23.01-3.69-42.05-14.32-56.21-32.95c-14.77-19.41-19.16-41.74-17.17-65.58c0.68-8.19,2.33-16.31,2.83-24.5
			c1.07-17.44-4.62-32.03-19.4-42.29c-4.72-3.27-4.8-3.22-7.53,1.61C727.83,360.76,722.54,380.91,722.59,403.79z M1198,516.28
			c2.08,0.05,3.31-0.56,4.58-1.05c20.28-7.88,37.27-20.31,50.61-37.45c21.4-27.5,29.45-58.68,24.84-93.17
			c-2.09-15.66-7.34-30.22-15.21-43.87c-2.09-3.62-2.16-3.61-5.8-1.35c-7.19,4.45-12.59,10.52-16.18,18.17
			c-4.76,10.14-5.58,20.81-3.61,31.66c2.49,13.75,3.54,27.49,1.65,41.41c-3.05,22.54-12.96,41.28-30.49,55.89
			c-3.96,3.3-8.21,6.22-12.76,8.62c-1.85,0.98-2.37,2.07-1.83,4.1C1195.3,504.84,1196.59,510.5,1198,516.28z M715.56,388.49
			c-1.96,1.19-2.8,2.69-3.75,4.02c-18.72,26.49-21.44,54.71-8.14,84.15c10.1,22.36,27.26,38.4,48.36,50.32
			c26.92,15.21,56.03,20.68,86.68,18.55c8.03-0.56,15.98-1.94,23.8-3.97c1.41-0.36,3.27-0.35,3.29-2.51
			c0.04-3.85,0.01-7.7,0.01-11.3c-42.53,8.01-79.3-2.67-110.18-31.54C724.8,467.37,712.41,430.93,715.56,388.49z M687.86,443.45
			c-1.11-0.12-1.35,0.65-1.66,1.19c-10.59,19.01-11.97,38.83-4.16,58.97c7.07,18.25,19.41,32.6,35.38,43.79
			c26.63,18.64,56.43,25.9,88.59,23.84c18.83-1.2,36.15-7.47,52.14-17.41c1.44-0.89,3.53-1.41,3.68-3.7c-1.17-0.5-2.19-0.21-3.18,0
			c-17.63,3.71-35.38,4.22-53.2,1.91c-28.69-3.73-54.67-14.09-77.12-32.52c-18.65-15.31-32-34.2-37.83-57.96
			C689.02,455.58,688.62,449.46,687.86,443.45z M1286.2,388.11c0.27,4.76,0.54,8.69,0.7,12.62c0.17,4.12-0.2,8.22-0.6,12.32
			c-3.69,38.68-21.13,69.68-52.12,93.04c-9.22,6.95-19.39,12.24-30.2,16.32c-4.8,1.82-4.21,0.77-3.22,5.68
			c0.75,3.69,1.74,7.33,2.66,10.98c1.04,4.11,1.07,4.13,5.1,3.25c16.88-3.7,32.79-9.83,47.38-19.18
			c18.59-11.91,33.7-27.1,42.67-47.52c12.75-29.01,10.06-56.73-8.09-82.83C1289.44,391.29,1288.48,389.66,1286.2,388.11z
			 M853.12,565.42c-31.6,15.95-63.54,17.55-96.06,8.94c-32.52-8.61-59.16-26.03-77.46-55.23c-1.59,8.65-1.43,16.93,0.76,25.14
			c5.09,19.06,16.96,33.04,33.08,43.67c16.44,10.83,34.72,16.13,54.3,16.97c25.65,1.1,49.2-5.15,70.36-20.03
			C844.78,580.16,849.47,574.14,853.12,565.42z M1128.49,653.1c-1.51-1.43-2.76-0.94-3.86-0.95c-6.86-0.05-13.72,0.08-20.58-0.08
			c-3.05-0.08-5.63,0.76-8.24,2.25c-35.57,20.26-73.7,28.97-114.57,25.5c-26.84-2.28-52.2-9.57-75.69-22.75
			c-6.38-3.58-12.6-5.57-19.9-5.04c-5.87,0.44-11.81,0.09-17.71,0.09c-0.06,0.39-0.12,0.79-0.18,1.18
			c39.09,29.81,83.35,44.86,132.58,44.39C1047.85,697.25,1090.54,682.23,1128.49,653.1z M1314.34,443.37
			c-1.44,21.87-9.24,41.06-22.79,58.02c-10.3,12.89-22.85,23.13-37.1,31.36c-13.91,8.03-28.8,13.51-44.44,17.05
			c-3.8,0.86-3.84,0.9-2.97,4.72c0.98,4.34,2.02,8.67,3.08,13c0.99,4.05,1.02,4.15,5.07,3.87c7.18-0.51,14.33-1.41,21.36-3
			c24.29-5.47,45.94-16.02,63.34-34.12c14.28-14.87,23.85-32.16,24.67-53.35C1325.09,467.41,1321.97,454.84,1314.34,443.37z
			 M975.74,104.82c0.31,0.41,0.6,0.83,0.94,1.21c22.18,24.33,29.42,53.13,25.55,85.26c-1.82,15.12-6.48,29.4-12.5,43.3
			c-4.5,10.39-8.54,20.95-10.89,32.08c-0.75,3.54-0.61,3.79,3.12,3.82c8.75,0.07,17.5-0.03,26.25,0.07
			c2.48,0.02,3.59-0.85,4.27-3.31c2.53-9.09,4.77-18.22,6.37-27.52c3.99-23.21,4.49-46.4-0.53-69.49
			c-4.75-21.85-14.13-41.43-29.32-58.08C985.41,108.22,980.87,106.15,975.74,104.82z M1322.32,519.11
			c-25.94,39.4-63.75,56.62-109.31,60.15c1.81,7.68,3.6,14.97,5.22,22.31c0.5,2.27,1.68,2.99,3.91,3.03
			c8.06,0.15,16.09,0.12,24.09-1.13c18.46-2.87,35.32-9.5,49.91-21.34c12.42-10.09,21.37-22.57,25.46-38.24
			C1323.73,535.7,1323.78,527.44,1322.32,519.11z M947.22,94.71c1.62,1.43,2.37,2.11,3.15,2.78c19.85,16.97,28.45,39.01,28.47,64.6
			c0.01,14.86-3.32,29.21-8.56,43.13c-3.82,10.13-8.73,19.72-14,29.15c-5.71,10.22-10.13,20.97-12.77,32.41
			c-0.74,3.21-0.38,3.68,2.83,3.72c6.86,0.08,13.72-0.06,20.57,0.06c2.67,0.05,3.87-0.76,4.43-3.59c1.96-9.94,5.33-19.47,9.15-28.85
			c2.52-6.18,5.28-12.28,7.53-18.56c7.58-21.21,10.56-42.92,5.59-65.16c-5.31-23.77-17.97-42.73-38.33-56.35
			C953.19,96.65,951.11,95.11,947.22,94.71z M1082.1,652.33c-56.1,0-112.19,0-168.29,0c24.49,13.43,50.83,19.9,78.48,20.77
			C1023.97,674.1,1054.06,667.46,1082.1,652.33z M845.01,652.64c28.41,25.68,60.38,43.2,96.69,52.44
			c47.25,12.02,93.81,9.23,139.32-8.33c26.22-10.12,49.67-24.76,70.12-44.13c-4.48-0.24-8.54-1.11-12.63,2.22
			c-50.6,41.23-108.52,57.11-172.98,48.19c-39.56-5.47-74.94-21.35-105.93-46.63C855.44,652.99,851.37,651.26,845.01,652.64z
			 M1038.45,150.58c0.17,0.47,0.32,0.94,0.52,1.39c15.28,32.72,21.51,67.33,21.4,103.23c-0.01,3.76-0.45,7.52-0.57,11.28
			c-0.12,3.89-0.06,3.96,3.98,4.02c5.31,0.07,10.62,0.04,15.93,0.01c4.73-0.02,4.78-0.05,4.7-4.85c-0.34-22.16-4.84-43.48-13.2-64
			C1063.45,182.61,1052.68,165.44,1038.45,150.58z M865.62,378.45c-0.53,0.05-0.96-0.05-1.13,0.11
			c-10.17,9.84-18.3,20.89-20.72,35.26c-1.29,7.63-1.83,15.35-1.17,23.07c0.86,10.05,3.73,19.49,9.51,27.9
			c0.97,1.41,1.86,2.96,3.74,3.29c3.17,0.55,6.27,1.69,9.78,1.25C865.62,438.98,865.62,408.73,865.62,378.45z M1041.39,388.07
			c0.74-0.34,1.13-0.41,1.33-0.64c1.03-1.14,2.07-2.29,3.02-3.5c9.25-11.8,17-24.5,23.06-38.21c1.66-3.76,3.18-7.59,4.59-11.45
			c1.25-3.41,1.09-3.64-2.26-3.67c-6.69-0.07-13.38,0.05-20.07-0.06c-2.29-0.04-3.3,0.88-3.99,3.02
			c-3.9,12.08-8.7,23.82-14.25,35.24c-0.61,1.26-1.09,2.47-0.27,3.87C1035.53,377.8,1038.46,382.96,1041.39,388.07z M921.37,330.57
			c3.28,7.5,4.44,14.94,10.05,20.25c1.2,7.64,6.4,13.12,10.56,19.1c4.18,6,8.91,11.57,14.8,16.84c3.02-5.23,6.21-9.75,8.3-14.73
			c1.55-3.7,1.7-7.83-1.3-11.58c-6.74-8.45-12.8-17.4-17.69-27.08c-0.79-1.57-1.58-2.88-3.76-2.84
			C935.66,330.64,928.99,330.57,921.37,330.57z M1110.59,349.02c-2.61-3.71-4.53-6.71-6.72-9.5c-2.28-2.92-2.98-7.64-6.54-8.77
			c-3.59-1.13-7.8-0.22-11.74-0.35c-1.99-0.07-2.97,0.58-3.66,2.59c-7.7,22.23-19.11,42.39-34.31,60.35
			c-1.5,1.77-1.45,3.05-0.31,4.95c3.71,6.15,7.23,12.42,10.84,18.64c0.61,1.06,1.01,2.34,2.19,2.98c0.88-1.03,1.01-2.05,1.25-3.05
			c5.08-21.3,10.17-42.59,15.27-63.88c0.94-3.9,0.97-3.93,4.98-3.94C1091.09,349.01,1100.32,349.02,1110.59,349.02z M808.95,642.8
			c1.85-3.19,3.3-5.91,4.98-8.48c1.22-1.87,1.02-3.23-0.32-5.01c-3.92-5.19-7.86-10.39-11.31-15.89c-1.74-2.77-3.62-3.05-6.38-2.46
			c-5.7,1.23-11.49,1.77-17.32,1.96c-9.75,0.33-19.44-0.21-29.79-2.07c3.4,6.31,6.56,11.95,9.48,17.71c1.26,2.47,2.53,3.02,5.2,1.91
			c7.9-3.28,15.92-6.25,23.9-9.33c4.05-1.56,4.06-1.54,6.53,1.96C798.55,629.68,803.26,636.18,808.95,642.8z M931.89,428.13
			c0.29,0.05,0.57,0.11,0.86,0.17c6.17-10.68,12.26-21.42,18.59-32.01c1.43-2.38,0.71-3.55-0.96-5.16
			c-5.94-5.73-11.21-12.05-16.09-18.71c-0.61-0.83-0.8-2.32-2.41-2.15C931.89,389.59,931.89,408.86,931.89,428.13z M920.4,349.31
			c-2.05-5.34-4.21-10.36-5.86-15.53c-0.83-2.61-2.03-3.72-4.7-3.37c-1.01,0.13-2.07,0.12-3.08,0c-2.36-0.29-3.71,0.68-4.79,2.81
			c-2.24,4.44-5.04,8.55-7.95,12.6c-0.73,1.01-2.1,1.82-1.68,3.49C901.62,349.31,910.86,349.31,920.4,349.31z M1221.51,611.88
			c-0.8,2.37,0.32,4.26,0.76,6.2c2,9.02,2.07,8.94,10.76,12.08c2.02,0.73,3.02,0.37,4-1.54c2.35-4.55,4.97-8.96,7.4-13.46
			c0.7-1.3,1.93-2.46,1.41-4.56C1237.8,612.14,1229.61,611.74,1221.51,611.88z M807.13,609.16c3.71,5.57,7.17,11,11.49,15.91
			c4.88-6.25,4.88-6.25,0.92-11.78c-0.5-0.69-1.01-1.38-1.5-2.08c-3.74-5.33-3.74-5.33-9.73-3.04
			C808.02,608.28,807.8,608.59,807.13,609.16z M964.83,349.54c0.34-0.16,0.69-0.32,1.03-0.48c0-5.12-0.05-10.24,0.02-15.36
			c0.03-2.04-0.47-3.25-2.83-3.16c-3.02,0.12-6.06,0.03-10.04,0.03C956.67,337.76,960.61,343.73,964.83,349.54z M1197.62,627.41
			c-6.37,0-11.84,0-17.81,0c2.43,4.76,4.75,8.95,7.71,13.32C1191.06,636.06,1194.12,632.02,1197.62,627.41z M1039.81,331.2
			c-1.95-1.08-3.85-0.5-5.68-0.6c-1.45-0.08-2.25,0.59-2.25,2.11c0,5.83,0,11.65,0,17.48
			C1035.58,344.08,1038.01,337.77,1039.81,331.2z M836.01,595.95c-5.77,3.01-10.35,5.41-14.99,7.83c1.58,2.95,3.36,5.41,5.74,8.24
			C829.75,606.82,832.57,601.92,836.01,595.95z"/>
		<path class="st1" d="M441,233.22c26.06,0.92,52.11,1.82,78.17,2.78c31.88,1.18,63.76,2.44,95.64,3.62
			c22.8,0.85,45.6,1.63,68.4,2.46c28.97,1.06,57.95,1.83,86.9,3.28c18.22,0.92,34.36,7.53,47.6,20.46
			c17.83,17.4,24.65,46.63,10.98,71.5c-3.39,6.18-7.33,12-11.3,17.8c-4.27,6.22-8.5,12.47-11.83,19.27
			c-18.09,36.88-0.01,81.97,39.01,97.31c5.77,2.27,11.71,3.87,17.89,4.48c2.45,0.24,3.6,1.12,3.45,3.86
			c-0.25,4.45-0.03,8.92-0.08,13.38c-0.04,3.66-0.06,3.82-3.95,4.39c-15.27,2.24-30.17,0.74-44.31-5.56
			c-28.11-12.51-43.49-34.43-47.41-64.79c-1.56-12.08-0.51-23.96,1.71-35.8c2.2-11.74,1.74-23.29-2.87-34.36
			c-7.46-17.93-21.32-28.34-40.12-31.72c-13.14-2.36-26.49-3.55-39.76-5.2c-21.6-2.69-43.21-5.35-64.82-7.97
			c-21.1-2.57-42.21-5.04-63.31-7.62c-23.82-2.91-47.63-5.91-71.45-8.83c-20.93-2.56-41.87-5.04-62.8-7.59
			c-21.1-2.57-42.19-5.19-63.3-7.77c-18.03-2.21-36.07-4.4-54.11-6.59c-21.1-2.57-42.2-5.14-63.3-7.72
			c-18.38-2.24-36.75-4.49-55.13-6.72c-17.53-2.14-35.08-4.09-52.58-6.43c-15.35-2.05-27.12-13.22-30.37-28.24
			c-0.82-3.81-0.82-3.89,2.9-3.77c16.97,0.55,33.95,1.1,50.92,1.72c24.51,0.89,49.02,1.85,73.53,2.77
			c33.25,1.25,66.5,2.51,99.76,3.74c22.63,0.83,45.26,1.62,67.88,2.43c12.69,0.46,25.37,0.93,38.06,1.39
			C441,233.17,441,233.2,441,233.22z"/>
		<path class="st1" d="M1191.57,488.27c-1.83-4.94-2.56-9.87-3.79-14.65c-1.23-4.81-2.17-9.71-3.57-14.47
			c-0.97-3.27-0.42-5.61,1.9-8.27c8.29-9.5,13.5-20.58,15.73-33.02c2.88-16.08,0.81-31.39-6.98-45.86
			c-3.34-6.21-7.28-12.02-11.22-17.85c-3.46-5.11-6.87-10.25-9.95-15.61c-16.25-28.21-6.55-61.97,18.13-79.47
			c12.24-8.67,25.94-13.22,40.84-13.81c40.46-1.59,80.93-2.94,121.39-4.41c47.32-1.72,94.64-3.48,141.96-5.22
			c37.55-1.38,75.1-2.74,112.65-4.12c46.63-1.71,93.27-3.42,139.91-5.14c46.81-1.73,93.62-3.46,140.42-5.17
			c1.67-0.06,3.4-0.53,5,0.32c-1.74,16.77-14.52,29.66-31.53,31.73c-32,3.91-64.01,7.72-96,11.63
			c-34.89,4.27-69.77,8.64-104.66,12.91c-24,2.94-48.01,5.75-72.01,8.68c-26.55,3.24-53.09,6.59-79.64,9.83
			c-24,2.93-48.01,5.76-72.01,8.69c-23.66,2.89-47.3,5.87-70.96,8.76c-21.1,2.58-42.22,5.07-63.32,7.66
			c-10.21,1.25-20.47,2.23-30.59,4.02c-32.09,5.68-48.14,32.92-44.21,61.58c1.75,12.77,3.25,25.5,2.48,38.43
			C1229.98,451.46,1214.27,476.52,1191.57,488.27z"/>
		<path class="st2" d="M1118.27,356.47c9.78,0,19.56-0.01,29.34,0.01c4.66,0.01,4.69,0.03,5.77,4.52
			c8.2,34.3,16.39,68.61,24.59,102.91c8.76,36.64,17.54,73.27,26.3,109.9c3.3,13.82,6.59,27.65,9.84,41.48
			c0.97,4.15,0.84,4.34-3.46,4.36c-13.89,0.05-27.79,0.03-41.69,0.01c-4.96-0.01-5.01-0.03-6.17-4.84
			c-3.56-14.82-7.07-29.65-10.6-44.47c-1.46-6.13-1.47-6.13-7.54-6.13c-18.19,0-36.37-0.01-54.56,0c-4.87,0-4.91,0.02-6.06,4.76
			c-3.68,15.14-7.33,30.29-10.99,45.43c-1.26,5.2-1.26,5.24-6.37,5.25c-13.55,0.02-27.11,0.01-40.66,0.01
			c-0.69,0-1.37-0.02-2.06-0.02c-1.93,0.03-2.91-0.79-2.54-2.82c0.19-1.01,0.35-2.02,0.59-3.02c9.61-39.95,19.24-79.9,28.82-119.86
			c10.51-43.79,20.97-87.59,31.45-131.38c0.12-0.5,0.2-1.01,0.32-1.51c1.19-4.53,1.19-4.56,5.83-4.57
			C1098.37,356.45,1108.32,356.47,1118.27,356.47z M1118.29,429.23c-0.36,0-0.72-0.01-1.09-0.02
			c-7.09,29.72-14.18,59.44-21.29,89.22c7.62,1,39.84,0.69,43.6-0.42C1132.44,488.43,1125.36,458.83,1118.29,429.23z"/>
		<path class="st3" d="M1180.63,644.23c-121.59,0-242.26,0-363.85,0c16.22-28.09,32.1-55.6,48.01-83.17
			c1.74,0.83,1.01,2.17,1.01,3.15c0.05,19.04,0.03,38.08,0.04,57.12c0,6.15-0.47,5.39,5.6,5.39c18.19,0.02,36.37,0.01,54.55,0.01
			c6.23,0,5.6,0.36,5.6-5.48c0.01-56.61,0.03-113.22-0.06-169.83c-0.01-4.09,0.84-7.59,2.94-11.15
			c9.32-15.79,18.39-31.72,27.56-47.6c0.93-1.61,1.92-3.18,3.24-5.36c0.87,2.33,0.55,4.16,0.56,5.91
			c0.02,40.32,0.01,80.63,0.03,120.94c0,5.52-0.75,4.97,4.88,4.97c18.53,0.02,37.05,0.03,55.58,0c6.44-0.01,5.52,0.76,5.53-5.34
			c0.03-40.14,0.02-80.29,0.02-120.43c0-1.64,0-3.28,0-5.03c1.76,0.44,2.03,1.72,2.59,2.68c7.24,12.44,14.37,24.94,21.69,37.33
			c1.43,2.43,1.63,4.66,0.99,7.31c-14.89,62.11-29.73,124.23-44.57,186.36c-0.35,1.49-0.56,3.02-0.83,4.47
			c1.2,0.84,2.43,0.54,3.59,0.54c19.39,0.02,38.77,0.02,58.16,0.01c4.28,0,4.32-0.03,5.34-4.23c3.86-15.98,7.77-31.95,11.47-47.96
			c0.58-2.51,1.49-3.33,4.04-3.31c15.61,0.11,31.22,0.13,46.83-0.02c2.78-0.02,3.76,0.92,4.36,3.52
			c3.71,15.84,7.57,31.64,11.4,47.45c1.1,4.53,1.2,4.98,5.57,4.44c6.32-0.79,10.26,1.34,12.59,7.32
			C1176.38,637.53,1178.52,640.48,1180.63,644.23z"/>
		<path class="st1" d="M734.19,335.1c-7.23,11.62-12.22,23.96-15.37,37.04c-0.24,1.02-0.52,2-1.28,2.75
			c-3.67,3.61-7.1,7.44-10.28,11.5c-1.53,1.94-3.52,0.95-5.25,0.64c-9.77-1.78-19.52-3.71-29.28-5.56
			c-37.21-7.01-74.42-13.99-111.63-21.02c-33.84-6.38-67.66-12.82-101.5-19.19c-35.52-6.69-71.06-13.31-106.57-20.01
			c-35.52-6.7-71.02-13.47-106.54-20.19c-25.92-4.9-51.87-9.69-77.78-14.67c-10.26-1.97-18.99-6.81-25.54-15.14
			c-2.33-2.96-4.26-6.18-4.99-9.9c0.25-0.21,0.35-0.33,0.48-0.4c0.15-0.08,0.32-0.19,0.47-0.17
			c196.48,24.03,392.96,48.07,589.43,72.14c1.52,0.19,2.99,0.74,4.46,1.17C733.32,334.18,733.54,334.52,734.19,335.1z"/>
		<path class="st1" d="M1864.48,260.7c-2.55,8.09-7.51,13.79-13.98,18.31c-5.12,3.58-10.82,6-16.94,7.16
			c-36.53,6.95-73.07,13.81-109.6,20.68c-40.91,7.7-81.83,15.37-122.75,23.09c-39.23,7.39-78.45,14.82-117.68,22.23
			c-39.56,7.48-79.13,14.95-118.69,22.41c-21.72,4.1-43.45,8.14-65.15,12.34c-2.74,0.53-4.16-0.4-6.11-2.27
			c-7.26-6.97-11.55-15.28-14.02-25.01c-1.89-7.45-5.67-14.31-9.43-21.07c-0.72-1.29-2-2.43-1.64-4.29
			c5.39-2.29,11.23-2.64,16.95-3.35c23.81-2.95,47.65-5.74,71.47-8.64c21.1-2.57,42.19-5.25,63.28-7.82
			c21.1-2.58,42.21-5.05,63.3-7.63c21.1-2.58,42.18-5.24,63.28-7.81c20.93-2.56,41.87-5.02,62.8-7.57
			c21.1-2.57,42.19-5.19,63.29-7.77c18.03-2.21,36.07-4.39,54.11-6.6c21.44-2.62,42.87-5.28,64.31-7.89
			c21.1-2.57,42.2-5.1,63.31-7.61C1857.64,261.23,1860.65,260.37,1864.48,260.7z"/>
		<path class="st2" d="M998.86,277.81c39.8,0,79.6,0,119.4,0c6.64,0,6.24-0.44,6.24,6.01c0,11.32,0.02,22.65-0.01,33.97
			c-0.01,4.76-0.05,4.81-4.84,4.81c-29.51,0.02-59.01,0.01-88.52,0.01c-7.34,0-6.75-0.59-6.75,6.54c0,58.15,0,116.31,0,174.46
			c0,1.2,0.02,2.4,0,3.6c-0.07,4.46-0.07,4.51-4.57,4.52c-14.07,0.03-28.13,0.03-42.2,0c-4.34-0.01-4.39-0.07-4.4-4.68
			c-0.02-23.85-0.01-47.69-0.01-71.54c0-35.33,0-70.68,0-106.01c0-1.37-0.06-2.74,0-4.11c0.08-1.96-0.82-2.84-2.76-2.78
			c-1.37,0.04-2.74-0.01-4.12-0.01c-28.65,0-57.3,0-85.94,0c-1.2,0-2.4,0.04-3.6-0.01c-3.55-0.15-3.65-0.16-3.68-3.92
			c-0.06-10.29-0.02-20.58-0.02-30.88c0-2.4,0.05-4.8,0.01-7.21c-0.03-1.93,0.85-2.83,2.78-2.78c1.37,0.03,2.74-0.02,4.12-0.02
			C919.6,277.81,959.23,277.81,998.86,277.81z"/>
		<path class="st1" d="M701.6,394.64c-5.09,8.93-9.16,17.44-10.96,26.76c-0.84,4.35-2.37,8.08-5.36,11.38
			c-2.31,2.53-3.94,5.6-5.48,8.67c-2.01,3.99-2.01,3.99-6.53,2.85c-11.79-2.98-23.58-5.95-35.37-8.94
			c-107.39-27.33-214.77-54.66-322.16-81.99c-38.17-9.71-76.36-19.38-114.54-29.07c-6.69-1.7-13.11-3.99-18.82-7.98
			c-6.67-4.66-11.57-10.65-13.9-18.56c-0.28-0.96-0.73-1.92,0.14-3.55C345.94,327.63,523.46,361.08,701.6,394.64z"/>
		<path class="st1" d="M1834.95,293.78c-1.16,7.08-4.16,12.34-8.44,16.92c-6.17,6.6-13.95,10.43-22.57,12.66
			c-14.92,3.86-29.87,7.61-44.81,11.41c-91.11,23.19-182.23,46.4-273.35,69.56c-52.28,13.29-104.57,26.53-156.86,39.79
			c-4.13,1.04-4.15,1.04-6.29-2.66c-2.24-3.86-4.64-7.63-7.56-11.01c-1.52-1.76-2.38-3.67-2.8-5.91
			c-1.76-9.53-5.27-18.42-10.02-26.84c-0.5-0.89-1.16-1.7-1.06-3.15C1478.81,361.01,1656.49,327.46,1834.95,293.78z"/>
		<path class="st1" d="M1802.71,331.87c-1.81,9.98-7.09,17.29-14.69,23.09c-4.55,3.46-9.68,5.77-15.11,7.51
			c-106.56,33.97-213.1,67.95-319.65,101.94c-39.49,12.6-78.97,25.21-118.46,37.77c-1.94,0.61-3.81,1.58-5.92,1.54
			c-1.06-1.19-0.1-2.26,0.2-3.33c4.11-14.73,4.21-29.42-0.29-44.11c-1.23-4.01-1.99-4,3.19-5.31
			c44.32-11.26,88.63-22.54,132.95-33.8c110.38-28.05,220.77-56.1,331.16-84.11C1798.04,332.55,1799.95,331.68,1802.71,331.87z"/>
		<path class="st1" d="M674.4,452.08c-5.9,17.32-6.21,34.17-0.66,51.23c-2.37,0.96-4.2-0.37-5.99-0.94
			c-54.36-17.3-108.7-34.68-163.05-52.02c-91.73-29.26-183.45-58.52-275.2-87.72c-8.17-2.6-15.5-6.45-21.34-12.82
			c-4.59-5-7.87-10.68-8.9-18.41C357.85,371.67,515.97,411.83,674.4,452.08z"/>
		<path class="st2" d="M923.89,488.71c0,41.33,0,82.65-0.01,123.98c0,6.92,0.54,6.3-6.42,6.31c-12.86,0.02-25.72,0-38.58,0
			c-5.99,0-5.67,0.32-5.67-5.51c0-28.63,0-57.27,0-85.91c0-54.7,0-109.4,0.01-164.11c0-6.89-0.58-6.35,6.39-6.36
			c12.69-0.01,25.38-0.01,38.07,0c6.59,0.01,6.21-0.43,6.21,6.06C923.89,405.03,923.89,446.87,923.89,488.71z"/>
		<path class="st1" d="M815.73,696.26c-7.27-7-14.17-13.67-21.11-20.29c-1.21-1.15-1.35-2.07-0.26-3.45
			c4.76-6.08,9.46-12.2,14.07-18.39c1.32-1.77,2.95-2.04,4.94-2.02c5.32,0.07,10.64,0.17,15.96-0.03c3.01-0.12,5.11,0.95,7.23,3
			c14.41,13.88,30.4,25.63,47.92,35.3c26.72,14.76,55.18,24.25,85.57,27.53c72.83,7.86,136.11-13.32,189.87-62.99
			c2.02-1.87,3.92-2.96,6.76-2.85c5.14,0.21,10.3,0.15,15.44,0.02c2.44-0.06,4.16,0.6,5.65,2.67c4,5.57,8.15,11.04,12.38,16.44
			c1.32,1.69,1.31,2.77-0.29,4.27c-6.26,5.87-12.47,11.79-18.55,17.84c-1.75,1.74-2.86,1.69-4.68,0.16
			c-6.44-5.41-13.01-10.65-19.54-15.94c-3.65-2.95-2.84-3.36-6.72-0.22c-7.34,5.95-14.97,11.49-23.07,16.35
			c-2.17,1.3-2.63,2.54-1.75,4.93c3.03,8.19,5.75,16.5,8.79,24.7c0.98,2.64,0.51,3.95-2.1,5.15c-7.46,3.46-14.86,7.08-22.15,10.88
			c-2.46,1.28-3.56,0.65-4.88-1.47c-4.45-7.13-9.04-14.16-13.62-21.22c-2.21-3.4-2.25-3.4-6.05-2.01
			c-8.53,3.13-17.17,5.9-25.93,8.33c-4.91,1.36-4.25,0.71-4.22,5.39c0.05,8.4,0.16,16.81,0.31,25.22c0.06,3.41,0.11,4.11-3.7,4.56
			c-8.17,0.95-16.31,2.21-24.42,3.55c-2.48,0.41-3.37-0.49-3.92-2.68c-2.05-8.14-4.17-16.27-6.32-24.39
			c-1.4-5.29-1.25-4.41-5.88-4.12c-9.09,0.58-18.17,0.68-27.25-0.02c-4.01-0.31-4.06-0.25-5.21,3.71
			c-2.33,8.07-4.61,16.15-6.94,24.21c-1.17,4.06-1.22,4.16-5.19,3.54c-7.96-1.24-15.88-2.73-23.85-3.85
			c-2.44-0.35-3.14-1.26-3.03-3.6c0.4-8.4,0.64-16.8,0.94-25.2c0.18-4.9,0.19-4.96-4.55-6.16c-9.15-2.32-18.16-5.08-26.92-8.57
			c-2.45-0.98-3.64-0.5-4.97,1.63c-4.65,7.41-9.53,14.67-14.19,22.07c-1.43,2.27-2.6,2.92-5.26,1.52
			c-7.27-3.84-14.71-7.36-22.16-10.86c-2.29-1.07-2.93-2.17-1.99-4.7c3.03-8.2,5.67-16.53,8.69-24.73c1-2.72,0.75-4.22-1.93-5.82
			c-7.95-4.76-15.44-10.22-22.81-15.84c-3.73-2.85-2.83-2.96-6.77,0.24C830.76,684.01,823.45,689.97,815.73,696.26z"/>
		<path class="st1" d="M894.58,331.32c-3.55,5.96-7.79,11.49-12.12,16.96c-0.99,1.25-2.32,1.3-3.71,1.3c-3.26,0-6.53,0.13-9.78-0.03
			c-2.56-0.13-3.27,0.97-3.17,3.34c0.14,3.42-0.11,6.87,0.08,10.29c0.15,2.61-0.65,4.51-2.55,6.34c-3.96,3.79-7.75,7.77-11.47,11.8
			c-9.69,10.49-14.36,23.1-15.75,37.17c-1.46,14.73-0.23,29.02,6.29,42.59c-1.69,0.76-2.6-0.2-3.54-0.74
			c-29.36-16.73-41.6-54.51-25.56-84.64c2.99-5.61,6.45-10.92,10.01-16.17c3.85-5.67,7.7-11.33,11.21-17.24
			c17.03-28.68,9.74-66.24-17.34-87.24c-5.86-4.55-12.21-8.22-19.06-11.07c-1.38-0.57-3.03-0.69-4.09-2.06
			c0.08-1.85,1.46-3.02,2.43-4.34c24.92-33.8,72.57-33.62,97.53,0.3c6.31,8.58,10.04,18.27,12.78,28.42
			c0.94,3.49,0.59,3.88-2.97,3.9c-11.15,0.05-22.3,0.01-33.45,0.03c-4.9,0.01-4.94,0.03-4.95,4.66c-0.02,16.98-0.02,33.96,0,50.94
			c0.01,4.64,0.05,4.66,4.88,4.67c6.86,0.02,13.72-0.02,20.58,0.03C891.98,330.53,893.22,330.09,894.58,331.32z"/>
		<path class="st1" d="M1181.81,444.7c-1.56-1.33-1.54-2.58-1.82-3.74c-6.87-28.82-13.74-57.64-20.62-86.46
			c-0.16-0.67-0.46-1.32-0.51-1.99c-0.21-2.81-1.72-3.54-4.41-3.5c-10.29,0.14-20.58-0.05-30.87,0.12
			c-2.89,0.05-4.77-0.87-6.45-3.16c-3.51-4.8-7.16-9.48-10-14.91c2.05-0.88,3.75-0.53,5.4-0.55c5.49-0.05,10.98-0.09,16.47,0.02
			c2.33,0.05,3.41-0.56,3.4-3.15c-0.08-18.01-0.07-36.02-0.01-54.02c0.01-2.57-1.12-3.18-3.43-3.16
			c-8.92,0.07-17.83,0.03-26.75,0.03c-1.37,0-2.75-0.1-4.12,0.02c-2.77,0.23-3.24-1.16-2.61-3.45c0.77-2.8,1.44-5.64,2.36-8.4
			c3.78-11.43,9.87-21.44,18.68-29.73c27.84-26.19,71.68-20.02,91.85,13.01c-1.13,1.71-3.18,1.75-4.83,2.47
			c-22.87,9.92-38.04,26.44-43.52,51.1c-3.28,14.74-1.46,28.95,5.2,42.53c3.41,6.95,7.78,13.31,12.14,19.67
			c4.56,6.65,9.31,13.2,12.61,20.58C1200.54,401.69,1196.9,423.67,1181.81,444.7z"/>
		<path class="st1" d="M722.59,403.79c-0.05-22.88,5.24-43.03,15.86-61.78c2.73-4.82,2.81-4.88,7.53-1.61
			c14.78,10.25,20.47,24.84,19.4,42.29c-0.5,8.19-2.14,16.31-2.83,24.5c-2,23.85,2.4,46.17,17.17,65.58
			c14.17,18.63,33.21,29.25,56.21,32.95c8.7,1.4,17.4,1.45,26.12,0.14c3.66-0.55,3.69-0.44,3.77,3.29c0.04,1.89,0.02,3.77,0.01,5.66
			c-0.02,4.81-0.02,4.83-4.85,6.12c-13.03,3.47-26.28,3.4-39.28,0.71c-51.2-10.59-83.03-41.76-96.21-92.15
			C723.19,420.67,722.48,411.58,722.59,403.79z"/>
		<path class="st1" d="M1198,516.28c-1.41-5.78-2.71-11.44-4.2-17.05c-0.54-2.03-0.02-3.12,1.83-4.1c4.55-2.41,8.8-5.32,12.76-8.62
			c17.53-14.61,27.43-33.35,30.49-55.89c1.89-13.92,0.84-27.66-1.65-41.41c-1.97-10.85-1.15-21.52,3.61-31.66
			c3.59-7.65,8.99-13.71,16.18-18.17c3.64-2.26,3.71-2.27,5.8,1.35c7.87,13.65,13.12,28.22,15.21,43.87
			c4.6,34.49-3.44,65.67-24.84,93.17c-13.35,17.15-30.34,29.57-50.61,37.45C1201.31,515.72,1200.08,516.32,1198,516.28z"/>
		<path class="st1" d="M715.56,388.49c-3.16,42.44,9.24,78.88,40.07,107.71c30.88,28.87,67.65,39.55,110.18,31.54
			c0,3.6,0.03,7.45-0.01,11.3c-0.03,2.16-1.89,2.15-3.29,2.51c-7.81,2.03-15.76,3.41-23.8,3.97c-30.65,2.13-59.76-3.34-86.68-18.55
			c-21.1-11.92-38.26-27.96-48.36-50.32c-13.3-29.43-10.58-57.65,8.14-84.15C712.76,391.18,713.61,389.68,715.56,388.49z"/>
		<path class="st1" d="M687.86,443.45c0.76,6.01,1.16,12.13,2.63,18.1c5.83,23.76,19.18,42.65,37.83,57.96
			c22.45,18.44,48.44,28.8,77.12,32.52c17.82,2.31,35.58,1.8,53.2-1.91c0.99-0.21,2.01-0.5,3.18,0c-0.14,2.29-2.24,2.8-3.68,3.7
			c-15.99,9.94-33.31,16.21-52.14,17.41c-32.16,2.05-61.96-5.2-88.59-23.84c-15.97-11.18-28.3-25.54-35.38-43.79
			c-7.81-20.14-6.43-39.97,4.16-58.97C686.5,444.1,686.75,443.33,687.86,443.45z"/>
		<path class="st1" d="M1286.2,388.11c2.28,1.55,3.24,3.18,4.28,4.68c18.15,26.09,20.84,53.82,8.09,82.83
			c-8.98,20.42-24.08,35.61-42.67,47.52c-14.59,9.35-30.5,15.48-47.38,19.18c-4.03,0.88-4.06,0.86-5.1-3.25
			c-0.92-3.65-1.91-7.29-2.66-10.98c-1-4.9-1.59-3.86,3.22-5.68c10.81-4.08,20.98-9.37,30.2-16.32
			c30.99-23.36,48.43-54.35,52.12-93.04c0.39-4.1,0.77-8.2,0.6-12.32C1286.74,396.8,1286.47,392.87,1286.2,388.11z"/>
		<path class="st1" d="M853.12,565.42c-3.65,8.72-8.34,14.75-15.02,19.45c-21.16,14.88-44.72,21.13-70.36,20.03
			c-19.58-0.84-37.86-6.14-54.3-16.97c-16.13-10.62-27.99-24.61-33.08-43.67c-2.19-8.21-2.35-16.49-0.76-25.14
			c18.3,29.2,44.93,46.63,77.46,55.23C789.57,582.96,821.51,581.36,853.12,565.42z"/>
		<path class="st1" d="M1128.49,653.1c-37.95,29.13-80.64,44.14-128.16,44.6c-49.23,0.47-93.49-14.58-132.58-44.39
			c0.06-0.39,0.12-0.79,0.18-1.18c5.91,0,11.84,0.35,17.71-0.09c7.3-0.54,13.52,1.45,19.9,5.04c23.48,13.18,48.84,20.47,75.69,22.75
			c40.88,3.48,79.01-5.24,114.57-25.5c2.61-1.49,5.19-2.33,8.24-2.25c6.86,0.16,13.72,0.02,20.58,0.08
			C1125.73,652.16,1126.98,651.67,1128.49,653.1z"/>
		<path class="st1" d="M1314.34,443.37c7.63,11.47,10.75,24.04,10.22,37.55c-0.83,21.18-10.39,38.48-24.67,53.35
			c-17.39,18.1-39.05,28.65-63.34,34.12c-7.04,1.59-14.18,2.48-21.36,3c-4.04,0.29-4.08,0.18-5.07-3.87c-1.06-4.33-2.1-8.66-3.08-13
			c-0.87-3.82-0.84-3.86,2.97-4.72c15.64-3.54,30.53-9.02,44.44-17.05c14.25-8.23,26.8-18.46,37.1-31.36
			C1305.09,484.43,1312.89,465.23,1314.34,443.37z"/>
		<path class="st4" d="M975.74,104.82c5.12,1.33,9.66,3.4,13.25,7.34c15.19,16.65,24.57,36.23,29.32,58.08
			c5.02,23.09,4.53,46.29,0.53,69.49c-1.6,9.3-3.84,18.44-6.37,27.52c-0.68,2.46-1.79,3.33-4.27,3.31
			c-8.75-0.1-17.5,0.01-26.25-0.07c-3.73-0.03-3.87-0.29-3.12-3.82c2.35-11.13,6.38-21.69,10.89-32.08
			c6.03-13.9,10.68-28.18,12.5-43.3c3.87-32.14-3.37-60.94-25.55-85.26C976.34,105.65,976.06,105.22,975.74,104.82z"/>
		<path class="st1" d="M1322.32,519.11c1.47,8.34,1.41,16.59-0.72,24.78c-4.09,15.67-13.04,28.16-25.46,38.24
			c-14.58,11.85-31.45,18.47-49.91,21.34c-8,1.25-16.03,1.28-24.09,1.13c-2.24-0.04-3.41-0.76-3.91-3.03
			c-1.62-7.34-3.4-14.63-5.22-22.31C1258.57,575.72,1296.38,558.51,1322.32,519.11z"/>
		<path class="st4" d="M947.22,94.71c3.88,0.39,5.96,1.94,8.06,3.34c20.36,13.62,33.02,32.58,38.33,56.35
			c4.97,22.24,1.99,43.95-5.59,65.16c-2.25,6.28-5,12.38-7.53,18.56c-3.82,9.37-7.19,18.9-9.15,28.85
			c-0.56,2.83-1.76,3.64-4.43,3.59c-6.85-0.12-13.72,0.02-20.57-0.06c-3.21-0.04-3.57-0.51-2.83-3.72
			c2.63-11.43,7.06-22.18,12.77-32.41c5.27-9.43,10.18-19.02,14-29.15c5.24-13.91,8.57-28.27,8.56-43.13
			c-0.02-25.59-8.61-47.63-28.47-64.6C949.6,96.83,948.84,96.14,947.22,94.71z"/>
		<path class="st4" d="M941.18,101.07c1.89,0.11,3.06,1.5,4.32,2.59c16.02,13.9,24.22,31.66,25.5,52.66
			c1.21,19.64-3.73,38.06-11.68,55.81c-2.87,6.42-6.25,12.59-9.66,18.74c-6.26,11.31-11.18,23.15-13.68,35.88
			c-0.5,2.56-1.36,3.98-4.31,3.81c-4.1-0.22-8.23,0.01-12.35-0.07c-3.86-0.08-3.87-0.18-3.17-4.27c2.51-14.65,7.57-28.45,14.1-41.74
			c4.47-9.09,9.63-17.79,15.08-26.32c9.31-14.57,14.08-30.46,13.18-47.79c-0.81-15.52-5.51-29.93-13.54-43.23
			c-1.24-2.05-2.54-4.07-3.82-6.1L941.18,101.07z"/>
		<path class="st4" d="M1008.71,123.07c3.2,1.69,5.66,4.01,7.97,6.93c17.18,21.68,25.66,47.03,31.39,73.52
			c4.45,20.56,5.29,41.42,4.35,62.38c-0.2,4.52-0.22,4.58-4.67,4.6c-8.05,0.05-16.11,0.06-24.17,0c-4.13-0.03-4.19-0.13-3.13-3.99
			c3.45-12.56,6.14-25.26,7.63-38.23c4.15-36.2-0.34-70.74-19.38-102.54c-0.34-0.57-0.54-1.25-0.8-1.87
			C1008.17,123.6,1008.44,123.33,1008.71,123.07z"/>
		<path class="st1" d="M1082.1,652.33c-28.04,15.12-58.13,21.76-89.8,20.77c-27.66-0.87-53.99-7.34-78.48-20.77
			C969.91,652.33,1026,652.33,1082.1,652.33z"/>
		<path class="st1" d="M845.01,652.64c6.36-1.38,10.43,0.35,14.6,3.76c30.99,25.27,66.37,41.15,105.93,46.63
			c64.46,8.92,122.38-6.96,172.98-48.19c4.09-3.33,8.15-2.46,12.63-2.22c-20.45,19.38-43.9,34.02-70.12,44.13
			c-45.52,17.56-92.07,20.35-139.32,8.33C905.39,695.84,873.43,678.32,845.01,652.64z"/>
		<path class="st4" d="M1038.45,150.58c14.23,14.86,25.01,32.03,32.77,51.08c8.36,20.51,12.85,41.83,13.2,64
			c0.08,4.8,0.03,4.83-4.7,4.85c-5.31,0.03-10.63,0.06-15.93-0.01c-4.04-0.05-4.1-0.12-3.98-4.02c0.12-3.77,0.56-7.53,0.57-11.28
			c0.1-35.9-6.12-70.51-21.4-103.23C1038.76,151.52,1038.62,151.05,1038.45,150.58z"/>
		<path class="st4" d="M1041.39,388.07c-2.93-5.11-5.86-10.27-8.85-15.41c-0.82-1.4-0.34-2.61,0.27-3.87
			c5.55-11.42,10.34-23.16,14.25-35.24c0.69-2.14,1.7-3.06,3.99-3.02c6.69,0.11,13.38-0.01,20.07,0.06
			c3.35,0.03,3.51,0.27,2.26,3.67c-1.41,3.86-2.93,7.69-4.59,11.45c-6.06,13.72-13.81,26.42-23.06,38.21
			c-0.95,1.21-1.99,2.36-3.02,3.5C1042.52,387.66,1042.13,387.73,1041.39,388.07z"/>
		<path class="st4" d="M921.37,330.57c7.62,0,14.3,0.08,20.97-0.04c2.18-0.04,2.97,1.26,3.76,2.84
			c4.89,9.68,10.95,18.62,17.69,27.08c2.99,3.76,2.85,7.88,1.3,11.58c-2.09,4.98-5.28,9.5-8.3,14.73
			c-5.89-5.27-10.63-10.84-14.8-16.84c-4.16-5.98-9.36-11.45-10.56-19.1C925.81,345.51,924.65,338.07,921.37,330.57z"/>
		<path class="st1" d="M808.95,642.8c-5.69-6.62-10.4-13.12-15.03-19.69c-2.47-3.5-2.48-3.51-6.53-1.96
			c-7.98,3.07-16,6.05-23.9,9.33c-2.67,1.11-3.95,0.56-5.2-1.91c-2.92-5.76-6.08-11.4-9.48-17.71c10.35,1.85,20.04,2.4,29.79,2.07
			c5.83-0.2,11.62-0.74,17.32-1.96c2.76-0.59,4.64-0.32,6.38,2.46c3.45,5.5,7.39,10.71,11.31,15.89c1.34,1.77,1.54,3.14,0.32,5.01
			C812.25,636.89,810.81,639.61,808.95,642.8z"/>
		<path class="st1" d="M1221.51,611.88c8.1-0.14,16.29,0.27,24.33-1.28c0.52,2.11-0.71,3.27-1.41,4.56
			c-2.44,4.5-5.05,8.91-7.4,13.46c-0.99,1.91-1.98,2.27-4,1.54c-8.69-3.14-8.75-3.07-10.76-12.08
			C1221.84,616.14,1220.71,614.25,1221.51,611.88z"/>
		<path class="st1" d="M807.13,609.16c0.67-0.57,0.88-0.88,1.18-0.99c5.99-2.29,5.99-2.29,9.73,3.04c0.49,0.7,1,1.39,1.5,2.08
			c3.97,5.53,3.97,5.53-0.92,11.78C814.31,620.16,810.85,614.73,807.13,609.16z"/>
		<path class="st4" d="M964.83,349.54c-4.21-5.8-8.16-11.77-11.81-18.97c3.98,0,7.01,0.09,10.04-0.03c2.36-0.09,2.86,1.12,2.83,3.16
			c-0.07,5.12-0.02,10.24-0.02,15.36C965.51,349.22,965.17,349.38,964.83,349.54z"/>
		<path class="st1" d="M1197.62,627.41c-3.49,4.61-6.56,8.65-10.1,13.32c-2.96-4.37-5.28-8.56-7.71-13.32
			C1185.78,627.41,1191.24,627.41,1197.62,627.41z"/>
		<path class="st4" d="M1039.81,331.2c-1.79,6.57-4.23,12.88-7.92,18.98c0-5.83,0-11.65,0-17.48c0-1.52,0.8-2.19,2.25-2.11
			C1035.95,330.7,1037.85,330.12,1039.81,331.2z"/>
		<path class="st1" d="M836.01,595.95c-3.44,5.97-6.26,10.87-9.25,16.07c-2.38-2.83-4.15-5.29-5.74-8.24
			C825.66,601.36,830.24,598.96,836.01,595.95z"/>
		<path class="st4" d="M1007.9,123.87c-0.65-0.44-1.53-1.26-1.03-1.74c0.72-0.69,1.31,0.4,1.83,0.94
			C1008.44,123.33,1008.17,123.6,1007.9,123.87z"/>
		<polygon class="st4" points="941.17,101.03 941.06,100.91 941.18,101.07 		"/>
		<path class="st0" d="M1118.29,429.23c7.07,29.6,14.15,59.2,21.22,88.78c-3.76,1.11-35.99,1.42-43.6,0.42
			c7.11-29.77,14.2-59.5,21.29-89.22C1117.56,429.22,1117.93,429.23,1118.29,429.23z M1105.33,511.64c7.52,0,14.19,0.03,20.86-0.02
			c3.75-0.03,3.92-0.24,3.13-3.74c-1.25-5.51-2.61-11-3.92-16.5c-2.43-10.15-4.87-20.3-7.3-30.45c-0.24-0.01-0.48-0.02-0.72-0.02
			C1113.44,477.51,1109.5,494.1,1105.33,511.64z"/>
		<path class="st1" d="M1105.33,511.64c4.16-17.53,8.11-34.13,12.05-50.72c0.24,0.01,0.48,0.02,0.72,0.02
			c2.43,10.15,4.87,20.29,7.3,30.45c1.31,5.5,2.67,10.99,3.92,16.5c0.8,3.5,0.62,3.71-3.13,3.74
			C1119.52,511.67,1112.85,511.64,1105.33,511.64z"/>
		<path class="st0" d="M973.11,771.26c-3.83-2.61-8.42-2.16-12.66-2.97c-8.24-1.58-16.54-2.94-24.86-4.02
			c-2.88-0.37-3.19-1.58-3.08-3.99c0.39-8.74,0.59-17.49,0.89-26.24c0.14-3.97,0.14-3.92-3.83-5.12c-5.57-1.69-11.19-3.26-16.63-5.3
			c-2.73-1.02-3.94-0.25-5.32,1.96c-4.63,7.41-9.43,14.72-14.18,22.06c-2.15,3.33-2.2,3.35-5.46,1.77
			c-11.25-5.44-22.46-10.97-33.76-16.31c-2.48-1.18-3.15-2.35-2.14-5.05c3.15-8.51,5.92-17.16,9.06-25.67
			c0.87-2.36,0.67-3.61-1.53-5.04c-5.03-3.26-9.95-6.72-14.71-10.36c-2.23-1.71-3.67-1.42-5.69,0.27
			c-6.97,5.83-14.13,11.44-21.13,17.23c-1.59,1.32-2.66,1.57-4.28-0.01c-9.94-9.7-19.97-19.3-30.3-29.26
			c1.99-2.65,3.9-5.21,5.82-7.75c4.24-5.61,8.42-11.27,12.79-16.77c1.45-1.83,1.4-3.02-0.1-4.82c-3.83-4.62-7.61-9.3-11.01-14.24
			c-1.79-2.6-3.33-2.56-5.94-1.49c-8.23,3.37-16.63,6.34-24.84,9.75c-2.68,1.11-3.88,0.64-5.16-1.87
			c-4.52-8.85-9.31-17.56-13.89-26.38c-1.19-2.29-2.75-3.52-5.28-4.33c-18.48-5.91-34.66-15.52-47.41-30.4
			c-9.84-11.49-15.86-24.72-17.77-39.78c-0.83-6.57,0.33-12.97,1.36-19.41c1.17-7.25,2.38-5.57-4.3-7.7
			c-82.17-26.23-164.38-52.37-246.57-78.53c-64.91-20.66-129.81-41.33-194.71-62c-9.5-3.02-17.77-8.02-24.42-15.53
			c-5.47-6.18-9.15-13.29-10.28-21.48c-0.36-2.64-1.46-3.85-3.78-4.7c-4.21-1.53-8.03-3.83-11.61-6.52
			c-8.89-6.66-14.59-15.36-16.41-26.38c-0.35-2.09-0.94-3.31-2.95-4.19c-13.56-5.95-23.38-15.38-27.38-30.04
			c-0.47-1.73-1.67-2.39-3.14-3.05c-13.61-6.05-22.02-16.45-25.58-30.85c-0.31-1.25-0.24-2.78-1.91-3.24c0-3.43,0-6.86,0-10.29
			c14.75,0.46,29.49,0.86,44.24,1.4c33.43,1.21,66.86,2.5,100.3,3.73c22.29,0.82,44.58,1.57,66.87,2.39
			c42.52,1.58,85.04,3.2,127.56,4.77c31.89,1.18,63.78,2.26,95.67,3.44c41.49,1.54,82.98,3.17,124.47,4.7
			c32.92,1.21,65.84,2.27,98.76,3.52c8.73,0.33,17.52,0.35,26.09,2.4c2.14,0.51,3.05-0.33,4.11-1.94c1.78-2.73,3.64-5.44,5.79-7.86
			c18.53-20.86,41.33-29.69,68.79-22.63c22.43,5.77,37.3,20.79,46.65,41.63c0.8,1.79,1.02,3.9,2.74,5.45
			c2.31-7.92,4.81-15.56,7.96-22.98c5.72-13.45,13.08-26,20.81-38.36c8.33-13.32,12.22-27.85,10.97-43.6
			c-1.66-20.95-9.93-38.98-24.28-54.28c-4.34-4.63-4.27-7.11,0.27-11.51c2.4,0,4.8,0,7.21,0c3.96,2,8.4,2.08,12.61,3.06
			c75.69,17.6,134.46,82.75,144.03,159.8c0.15,1.24,0.14,2.55,1.36,3.85c2.64-6.23,5.57-11.81,9.28-16.97
			c22.13-30.82,62.24-38.48,92.74-17.67c8.18,5.58,14.94,12.59,20.12,21.03c1.16,1.9,2.26,2.53,4.54,1.92
			c4.98-1.34,10.12-1.63,15.28-1.77c11.83-0.32,23.66-0.83,35.48-1.27c33.43-1.25,66.85-2.51,100.27-3.74
			c22.97-0.85,45.94-1.65,68.91-2.49c33.08-1.22,66.17-2.47,99.25-3.69c22.45-0.83,44.91-1.6,67.36-2.43
			c32.74-1.22,65.48-2.48,98.22-3.69c23.48-0.86,46.97-1.63,70.45-2.51c40.79-1.52,81.59-3.09,122.38-4.6
			c1.49-0.05,3.08-0.54,4.69,0.55c0,2.78,0,5.68,0,8.58c-2.11,16.26-10.75,27.8-25.38,34.95c-1.85,0.9-3.4,1.53-4.09,3.97
			c-3.99,13.94-13.32,23.25-26.32,29.1c-2.15,0.97-3.55,1.99-3.85,4.66c-1.72,15.45-10.84,25.61-24.32,32
			c-4.28,2.03-6.12,4.31-7.3,9.03c-4.37,17.45-16.37,28.17-33.05,33.59c-38.4,12.48-76.89,24.66-115.36,36.93
			c-109.21,34.83-218.42,69.64-327.63,104.46c-0.65,0.21-1.28,0.5-1.95,0.63c-2.28,0.44-2.87,1.55-2.47,3.96
			c5.48,32.77-7.95,57.35-33.64,76.36c-10.57,7.82-22.48,13.05-35.18,16.4c-3,0.79-5.03,2.06-6.52,4.99
			c-4.26,8.4-9.03,16.54-13.37,24.9c-1.26,2.44-2.5,2.63-4.82,1.65c-8.19-3.47-16.51-6.65-24.66-10.2
			c-2.61-1.15-3.88-0.58-5.42,1.64c-3.53,5.06-7.27,9.98-11.12,14.79c-1.47,1.84-1.41,3.08-0.02,4.9
			c5.54,7.2,10.93,14.52,16.38,21.79c1.04,1.39,2.14,2.55,0.26,4.34c-10.19,9.68-20.28,19.46-30.59,29.39
			c-6.31-5.07-12.44-9.99-18.58-14.92c-1.87-1.5-3.82-2.93-5.58-4.56c-1.42-1.32-2.49-1.13-3.96-0.04
			c-4.97,3.66-9.96,7.3-15.11,10.68c-2.22,1.46-2.88,2.65-1.89,5.35c3.09,8.34,5.69,16.87,8.75,25.23c0.98,2.67,0.57,3.8-2.05,5.03
			c-11.47,5.37-22.85,10.92-34.18,16.59c-2.43,1.22-3.54,0.67-4.88-1.46c-4.64-7.4-9.55-14.64-14.16-22.06
			c-1.44-2.31-2.71-2.74-5.33-1.76c-5.44,2.04-11.01,3.79-16.63,5.23c-2.8,0.71-3.41,2.04-3.34,4.65
			c0.25,8.91,0.17,17.84,0.49,26.75c0.1,2.8-0.74,3.83-3.49,4.19c-12.91,1.73-25.8,3.58-38.67,5.52c-2.3,0.34-2.51-1.01-2.92-2.54
			c-2.24-8.44-4.5-16.87-6.77-25.3c-1.09-4.08-1.11-4.04-5.47-4.03c-6,0.02-12.01,0-18.01-0.03c-1.59-0.01-2.87-0.12-3.45,2.02
			c-2.7,9.91-5.6,19.76-8.39,29.65c-0.11,0.41,0.18,0.93,0.29,1.4C975.85,771.26,974.48,771.26,973.11,771.26z M1008.7,123.07
			c-0.52-0.55-1.11-1.63-1.83-0.95c-0.51,0.49,0.37,1.31,1.03,1.74c0.26,0.62,0.46,1.3,0.8,1.87
			c19.04,31.81,23.53,66.34,19.38,102.54c-1.48,12.97-4.18,25.66-7.63,38.23c-1.06,3.86-1,3.96,3.13,3.99
			c8.06,0.06,16.12,0.05,24.17,0c4.45-0.02,4.46-0.08,4.67-4.6c0.95-20.96,0.1-41.83-4.35-62.38
			c-5.73-26.49-14.21-51.84-31.39-73.52C1014.36,127.08,1011.9,124.76,1008.7,123.07z M941.18,101.07l-0.12-0.16l0.11,0.12
			c1.27,2.03,2.58,4.05,3.82,6.1c8.02,13.31,12.73,27.72,13.54,43.23c0.9,17.33-3.86,33.23-13.18,47.79
			c-5.46,8.53-10.62,17.23-15.08,26.32c-6.53,13.29-11.59,27.09-14.1,41.74c-0.7,4.09-0.69,4.19,3.17,4.27
			c4.11,0.08,8.24-0.15,12.35,0.07c2.95,0.17,3.8-1.25,4.31-3.81c2.5-12.73,7.42-24.57,13.68-35.88c3.41-6.15,6.78-12.32,9.66-18.74
			c7.95-17.75,12.89-36.17,11.68-55.81c-1.29-21-9.49-38.75-25.5-52.66C944.23,102.57,943.07,101.18,941.18,101.07z M441,233.22
			c0-0.02,0-0.04,0-0.06c-12.68-0.46-25.37-0.93-38.06-1.39c-22.63-0.81-45.26-1.6-67.88-2.43c-33.25-1.23-66.51-2.49-99.76-3.74
			c-24.51-0.92-49.02-1.88-73.53-2.77c-16.97-0.62-33.94-1.17-50.92-1.72c-3.72-0.12-3.73-0.04-2.9,3.77
			c3.24,15.01,15.01,26.19,30.37,28.24c17.5,2.34,35.05,4.29,52.58,6.43c18.38,2.24,36.76,4.48,55.13,6.72
			c21.1,2.58,42.2,5.15,63.3,7.72c18.04,2.2,36.07,4.38,54.11,6.59c21.1,2.58,42.19,5.2,63.3,7.77c20.93,2.55,41.87,5.03,62.8,7.59
			c23.82,2.91,47.63,5.92,71.45,8.83c21.1,2.58,42.21,5.05,63.31,7.62c21.61,2.63,43.22,5.28,64.82,7.97
			c13.27,1.65,26.62,2.84,39.76,5.2c18.81,3.38,32.66,13.79,40.12,31.72c4.61,11.07,5.08,22.62,2.87,34.36
			c-2.22,11.84-3.27,23.73-1.71,35.8c3.92,30.36,19.31,52.28,47.41,64.79c14.14,6.29,29.04,7.8,44.31,5.56
			c3.89-0.57,3.91-0.73,3.95-4.39c0.05-4.46-0.17-8.93,0.08-13.38c0.15-2.74-1-3.62-3.45-3.86c-6.18-0.61-12.12-2.21-17.89-4.48
			c-39.02-15.34-57.1-60.43-39.01-97.31c3.33-6.8,7.56-13.04,11.83-19.27c3.98-5.8,7.91-11.62,11.3-17.8
			c13.66-24.87,6.84-54.1-10.98-71.5c-13.25-12.92-29.39-19.54-47.6-20.46c-28.95-1.45-57.93-2.23-86.9-3.28
			c-22.8-0.83-45.6-1.61-68.4-2.46c-31.88-1.19-63.76-2.44-95.64-3.62C493.12,235.03,467.06,234.14,441,233.22z M1191.57,488.27
			c22.69-11.75,38.4-36.81,39.96-62.82c0.78-12.93-0.73-25.66-2.48-38.43c-3.93-28.67,12.12-55.91,44.21-61.58
			c10.12-1.79,20.38-2.77,30.59-4.02c21.1-2.59,42.22-5.08,63.32-7.66c23.66-2.9,47.3-5.88,70.96-8.76
			c24-2.93,48.01-5.76,72.01-8.69c26.55-3.25,53.09-6.59,79.64-9.83c24-2.93,48.01-5.74,72.01-8.68
			c34.89-4.27,69.77-8.64,104.66-12.91c32-3.91,64.01-7.71,96-11.63c17.02-2.08,29.8-14.96,31.53-31.73c-1.6-0.85-3.33-0.38-5-0.32
			c-46.8,1.71-93.61,3.45-140.42,5.17c-46.63,1.72-93.27,3.43-139.91,5.14c-37.55,1.38-75.1,2.74-112.65,4.12
			c-47.32,1.74-94.64,3.5-141.96,5.22c-40.46,1.47-80.93,2.82-121.39,4.41c-14.89,0.59-28.59,5.13-40.84,13.81
			c-24.69,17.5-34.38,51.26-18.13,79.47c3.08,5.36,6.5,10.49,9.95,15.61c3.94,5.83,7.88,11.64,11.22,17.85
			c7.79,14.47,9.86,29.78,6.98,45.86c-2.23,12.45-7.44,23.53-15.73,33.02c-2.32,2.66-2.87,4.99-1.9,8.27
			c1.41,4.76,2.34,9.66,3.57,14.47C1189.01,478.4,1189.74,483.33,1191.57,488.27z M1118.27,356.47c-9.95,0-19.9-0.02-29.85,0.01
			c-4.64,0.01-4.64,0.05-5.83,4.57c-0.13,0.5-0.2,1.01-0.32,1.51c-10.48,43.79-20.94,87.59-31.45,131.38
			c-9.58,39.96-19.21,79.91-28.82,119.86c-0.24,1-0.4,2.02-0.59,3.02c-0.37,2.04,0.61,2.85,2.54,2.82c0.69-0.01,1.37,0.02,2.06,0.02
			c13.55,0,27.11,0.02,40.66-0.01c5.1-0.01,5.11-0.05,6.37-5.25c3.66-15.14,7.31-30.29,10.99-45.43c1.15-4.74,1.2-4.75,6.06-4.76
			c18.19-0.01,36.37-0.01,54.56,0c6.07,0,6.08,0,7.54,6.13c3.53,14.82,7.04,29.65,10.6,44.47c1.16,4.81,1.21,4.83,6.17,4.84
			c13.9,0.02,27.8,0.03,41.69-0.01c4.3-0.02,4.43-0.2,3.46-4.36c-3.25-13.83-6.53-27.66-9.84-41.48
			c-8.76-36.64-17.54-73.27-26.3-109.9c-8.2-34.3-16.39-68.61-24.59-102.91c-1.08-4.49-1.11-4.51-5.77-4.52
			C1137.83,356.46,1128.05,356.47,1118.27,356.47z M1180.63,644.23c-2.11-3.75-4.25-6.7-5.52-9.98c-2.32-5.98-6.26-8.1-12.59-7.32
			c-4.38,0.54-4.48,0.09-5.57-4.44c-3.83-15.81-7.7-31.61-11.4-47.45c-0.61-2.6-1.59-3.54-4.36-3.52
			c-15.61,0.14-31.22,0.12-46.83,0.02c-2.55-0.02-3.46,0.81-4.04,3.31c-3.7,16.01-7.61,31.98-11.47,47.96
			c-1.02,4.2-1.06,4.23-5.34,4.23c-19.38,0.01-38.77,0.01-58.16-0.01c-1.16,0-2.39,0.3-3.59-0.54c0.27-1.45,0.47-2.98,0.83-4.47
			c14.84-62.12,29.68-124.25,44.57-186.36c0.64-2.65,0.44-4.88-0.99-7.31c-7.32-12.4-14.46-24.89-21.69-37.33
			c-0.56-0.96-0.82-2.24-2.59-2.68c0,1.75,0,3.39,0,5.03c0,40.14,0.01,80.29-0.02,120.43c0,6.1,0.91,5.32-5.53,5.34
			c-18.53,0.03-37.06,0.03-55.58,0c-5.63,0-4.88,0.54-4.88-4.97c-0.02-40.31,0-80.63-0.03-120.94c0-1.75,0.32-3.58-0.56-5.91
			c-1.32,2.18-2.31,3.76-3.24,5.36c-9.17,15.88-18.24,31.81-27.56,47.6c-2.1,3.55-2.95,7.06-2.94,11.15
			c0.09,56.61,0.06,113.22,0.06,169.83c0,5.84,0.63,5.48-5.6,5.48c-18.18,0-36.37,0.02-54.55-0.01c-6.07-0.01-5.59,0.76-5.6-5.39
			c-0.01-19.04,0.01-38.08-0.04-57.12c0-0.98,0.73-2.32-1.01-3.15c-15.91,27.57-31.79,55.08-48.01,83.17
			C938.37,644.23,1059.04,644.23,1180.63,644.23z M734.19,335.1c-0.65-0.59-0.87-0.93-1.16-1.01c-1.48-0.44-2.95-0.99-4.46-1.17
			c-196.47-24.07-392.95-48.11-589.43-72.14c-0.15-0.02-0.33,0.09-0.47,0.17c-0.13,0.08-0.23,0.2-0.48,0.4
			c0.73,3.72,2.66,6.94,4.99,9.9c6.55,8.32,15.27,13.17,25.54,15.14c25.91,4.98,51.85,9.77,77.78,14.67
			c35.52,6.72,71.02,13.49,106.54,20.19c35.52,6.7,71.06,13.32,106.57,20.01c33.84,6.37,67.66,12.81,101.5,19.19
			c37.21,7.02,74.42,14,111.63,21.02c9.76,1.84,19.51,3.77,29.28,5.56c1.73,0.32,3.73,1.31,5.25-0.64
			c3.18-4.06,6.61-7.89,10.28-11.5c0.76-0.75,1.04-1.73,1.28-2.75C721.97,359.06,726.96,346.72,734.19,335.1z M1864.48,260.7
			c-3.83-0.34-6.84,0.52-9.88,0.89c-21.1,2.51-42.21,5.04-63.31,7.61c-21.44,2.61-42.87,5.27-64.31,7.89
			c-18.04,2.21-36.07,4.39-54.11,6.6c-21.1,2.58-42.19,5.2-63.29,7.77c-20.93,2.54-41.87,5.01-62.8,7.57
			c-21.1,2.58-42.18,5.24-63.28,7.81c-21.1,2.58-42.2,5.05-63.3,7.63c-21.1,2.58-42.18,5.25-63.28,7.82
			c-23.82,2.91-47.66,5.69-71.47,8.64c-5.72,0.71-11.56,1.06-16.95,3.35c-0.36,1.86,0.92,3,1.64,4.29
			c3.77,6.75,7.54,13.62,9.43,21.07c2.47,9.73,6.76,18.04,14.02,25.01c1.95,1.87,3.37,2.81,6.11,2.27
			c21.7-4.19,43.43-8.23,65.15-12.34c39.56-7.46,79.13-14.94,118.69-22.41c39.23-7.41,78.45-14.84,117.68-22.23
			c40.92-7.71,81.84-15.39,122.75-23.09c36.54-6.88,73.08-13.74,109.6-20.68c6.11-1.16,11.81-3.59,16.94-7.16
			C1856.97,274.5,1861.93,268.79,1864.48,260.7z M998.86,277.81c-39.63,0-79.25,0-118.88,0c-1.37,0-2.75,0.05-4.12,0.02
			c-1.93-0.05-2.81,0.85-2.78,2.78c0.04,2.4-0.01,4.8-0.01,7.21c0,10.29-0.04,20.59,0.02,30.88c0.02,3.76,0.12,3.77,3.68,3.92
			c1.2,0.05,2.4,0.01,3.6,0.01c28.65,0,57.3,0,85.94,0c1.37,0,2.74,0.05,4.12,0.01c1.94-0.06,2.84,0.82,2.76,2.78
			c-0.06,1.37,0,2.74,0,4.11c0,35.34,0,70.68,0,106.01c0,23.85-0.01,47.69,0.01,71.54c0,4.61,0.05,4.67,4.4,4.68
			c14.07,0.03,28.13,0.03,42.2,0c4.5-0.01,4.5-0.06,4.57-4.52c0.02-1.2,0-2.4,0-3.6c0-58.15,0-116.31,0-174.46
			c0-7.13-0.59-6.54,6.75-6.54c29.51,0,59.01,0.01,88.52-0.01c4.78,0,4.83-0.05,4.84-4.81c0.03-11.32,0.01-22.65,0.01-33.97
			c0-6.46,0.41-6.01-6.24-6.01C1078.46,277.81,1038.66,277.81,998.86,277.81z M701.6,394.64
			c-178.14-33.56-355.66-67.02-532.98-100.43c-0.87,1.64-0.43,2.6-0.14,3.55c2.33,7.91,7.22,13.9,13.9,18.56
			c5.71,3.99,12.13,6.28,18.82,7.98c38.18,9.68,76.37,19.36,114.54,29.07c107.39,27.32,214.77,54.66,322.16,81.99
			c11.79,3,23.58,5.96,35.37,8.94c4.52,1.14,4.52,1.14,6.53-2.85c1.55-3.07,3.18-6.14,5.48-8.67c3-3.29,4.53-7.03,5.36-11.38
			C692.44,412.09,696.51,403.58,701.6,394.64z M1834.95,293.78c-178.46,33.69-356.14,67.23-533.75,100.76
			c-0.11,1.45,0.56,2.27,1.06,3.15c4.75,8.42,8.26,17.31,10.02,26.84c0.42,2.24,1.28,4.16,2.8,5.91c2.92,3.37,5.32,7.14,7.56,11.01
			c2.14,3.7,2.16,3.71,6.29,2.66c52.29-13.26,104.58-26.49,156.86-39.79c91.12-23.17,182.23-46.37,273.35-69.56
			c14.94-3.8,29.89-7.55,44.81-11.41c8.61-2.23,16.39-6.06,22.57-12.66C1830.79,306.12,1833.8,300.86,1834.95,293.78z
			 M1802.71,331.87c-2.76-0.19-4.67,0.68-6.63,1.18c-110.39,28.01-220.78,56.06-331.16,84.11c-44.32,11.27-88.63,22.55-132.95,33.8
			c-5.17,1.31-4.41,1.31-3.19,5.31c4.5,14.68,4.4,29.38,0.29,44.11c-0.3,1.08-1.26,2.15-0.2,3.33c2.12,0.04,3.99-0.93,5.92-1.54
			c39.49-12.56,78.98-25.18,118.46-37.77c106.55-33.98,213.1-67.97,319.65-101.94c5.43-1.74,10.57-4.05,15.11-7.51
			C1795.62,349.16,1800.9,341.85,1802.71,331.87z M674.4,452.08c-158.43-40.24-316.55-80.4-475.14-120.68
			c1.02,7.73,4.31,13.42,8.9,18.41c5.84,6.37,13.17,10.21,21.34,12.82c91.75,29.2,183.47,58.46,275.2,87.72
			c54.35,17.34,108.69,34.72,163.05,52.02c1.79,0.57,3.61,1.9,5.99,0.94C668.2,486.25,668.5,469.4,674.4,452.08z M923.89,488.71
			c0-41.84,0-83.68,0-125.52c0-6.49,0.38-6.05-6.21-6.06c-12.69,0-25.38-0.01-38.07,0c-6.97,0.01-6.39-0.54-6.39,6.36
			c-0.01,54.7-0.01,109.4-0.01,164.11c0,28.64,0,57.27,0,85.91c0,5.82-0.32,5.51,5.67,5.51c12.86,0,25.72,0.02,38.58,0
			c6.95-0.01,6.42,0.6,6.42-6.31C923.9,571.36,923.89,530.04,923.89,488.71z M815.73,696.26c7.72-6.29,15.03-12.25,22.35-18.21
			c3.94-3.2,3.04-3.09,6.77-0.24c7.37,5.62,14.86,11.08,22.81,15.84c2.67,1.6,2.93,3.1,1.93,5.82c-3.02,8.2-5.66,16.53-8.69,24.73
			c-0.94,2.54-0.3,3.63,1.99,4.7c7.45,3.49,14.89,7.02,22.16,10.86c2.66,1.4,3.84,0.75,5.26-1.52c4.66-7.4,9.54-14.67,14.19-22.07
			c1.33-2.12,2.52-2.6,4.97-1.63c8.76,3.49,17.77,6.26,26.92,8.57c4.74,1.2,4.72,1.26,4.55,6.16c-0.3,8.4-0.55,16.81-0.94,25.2
			c-0.11,2.34,0.59,3.25,3.03,3.6c7.97,1.13,15.9,2.61,23.85,3.85c3.97,0.62,4.02,0.52,5.19-3.54c2.33-8.07,4.61-16.15,6.94-24.21
			c1.15-3.96,1.19-4.02,5.21-3.71c9.09,0.7,18.16,0.61,27.25,0.02c4.63-0.3,4.48-1.17,5.88,4.12c2.14,8.12,4.27,16.24,6.32,24.39
			c0.55,2.19,1.44,3.09,3.92,2.68c8.12-1.34,16.25-2.61,24.42-3.55c3.81-0.44,3.76-1.15,3.7-4.56c-0.15-8.41-0.26-16.82-0.31-25.22
			c-0.03-4.67-0.69-4.02,4.22-5.39c8.76-2.43,17.4-5.2,25.93-8.33c3.8-1.4,3.84-1.4,6.05,2.01c4.58,7.05,9.18,14.09,13.62,21.22
			c1.33,2.12,2.42,2.76,4.88,1.47c7.29-3.8,14.68-7.43,22.15-10.88c2.6-1.21,3.08-2.51,2.1-5.15c-3.04-8.19-5.76-16.5-8.79-24.7
			c-0.88-2.39-0.43-3.63,1.75-4.93c8.1-4.86,15.73-10.41,23.07-16.35c3.87-3.13,3.07-2.73,6.72,0.22
			c6.53,5.29,13.1,10.54,19.54,15.94c1.82,1.53,2.93,1.58,4.68-0.16c6.08-6.05,12.29-11.97,18.55-17.84c1.6-1.5,1.61-2.58,0.29-4.27
			c-4.23-5.41-8.38-10.87-12.38-16.44c-1.48-2.07-3.21-2.73-5.65-2.67c-5.14,0.14-10.3,0.19-15.44-0.02
			c-2.84-0.12-4.73,0.98-6.76,2.85c-53.76,49.67-117.04,70.85-189.87,62.99c-30.38-3.28-58.84-12.77-85.57-27.53
			c-17.52-9.67-33.51-21.42-47.92-35.3c-2.13-2.05-4.23-3.12-7.23-3c-5.31,0.21-10.64,0.1-15.96,0.03
			c-1.98-0.02-3.62,0.25-4.94,2.02c-4.61,6.19-9.31,12.31-14.07,18.39c-1.09,1.39-0.95,2.3,0.26,3.45
			C801.56,682.59,808.46,689.26,815.73,696.26z M894.58,331.32c-1.36-1.23-2.6-0.79-3.72-0.8c-6.86-0.04-13.72-0.01-20.58-0.03
			c-4.83-0.01-4.87-0.03-4.88-4.67c-0.02-16.98-0.02-33.96,0-50.94c0.01-4.63,0.05-4.65,4.95-4.66c11.15-0.02,22.3,0.02,33.45-0.03
			c3.56-0.02,3.92-0.41,2.97-3.9c-2.74-10.15-6.47-19.84-12.78-28.42c-24.96-33.92-72.61-34.1-97.53-0.3
			c-0.98,1.32-2.35,2.49-2.43,4.34c1.06,1.37,2.71,1.49,4.09,2.06c6.85,2.85,13.2,6.52,19.06,11.07
			c27.08,21,34.36,58.57,17.34,87.24c-3.51,5.91-7.36,11.57-11.21,17.24c-3.56,5.25-7.02,10.56-10.01,16.17
			c-16.05,30.13-3.81,67.91,25.56,84.64c0.94,0.54,1.85,1.5,3.54,0.74c-6.51-13.57-7.75-27.87-6.29-42.59
			c1.39-14.08,6.07-26.68,15.75-37.17c3.72-4.03,7.51-8.01,11.47-11.8c1.91-1.83,2.7-3.73,2.55-6.34
			c-0.19-3.42,0.06-6.86-0.08-10.29c-0.1-2.37,0.61-3.47,3.17-3.34c3.25,0.17,6.52,0.03,9.78,0.03c1.39,0,2.72-0.04,3.71-1.3
			C886.79,342.81,891.03,337.28,894.58,331.32z M1181.81,444.7c15.09-21.03,18.73-43,8.15-66.67c-3.3-7.38-8.05-13.94-12.61-20.58
			c-4.36-6.36-8.72-12.72-12.14-19.67c-6.66-13.58-8.49-27.79-5.2-42.53c5.49-24.66,20.65-41.18,43.52-51.1
			c1.65-0.72,3.7-0.76,4.83-2.47c-20.17-33.02-64.01-39.19-91.85-13.01c-8.81,8.29-14.89,18.29-18.68,29.73
			c-0.91,2.76-1.58,5.6-2.36,8.4c-0.63,2.28-0.16,3.68,2.61,3.45c1.36-0.12,2.74-0.02,4.12-0.02c8.92,0,17.83,0.05,26.75-0.03
			c2.31-0.02,3.44,0.6,3.43,3.16c-0.07,18.01-0.07,36.02,0.01,54.02c0.01,2.59-1.07,3.2-3.4,3.15c-5.49-0.11-10.98-0.06-16.47-0.02
			c-1.65,0.02-3.35-0.34-5.4,0.55c2.84,5.43,6.49,10.12,10,14.91c1.68,2.29,3.56,3.21,6.45,3.16c10.29-0.17,20.58,0.02,30.87-0.12
			c2.7-0.04,4.21,0.69,4.41,3.5c0.05,0.67,0.35,1.32,0.51,1.99c6.88,28.82,13.75,57.64,20.62,86.46
			C1180.27,442.11,1180.25,443.37,1181.81,444.7z M722.59,403.79c-0.11,7.8,0.61,16.88,2.91,25.7
			c13.18,50.39,45.01,81.56,96.21,92.15c13,2.68,26.25,2.76,39.28-0.71c4.83-1.29,4.83-1.31,4.85-6.12
			c0.01-1.89,0.03-3.77-0.01-5.66c-0.08-3.72-0.12-3.84-3.77-3.29c-8.72,1.31-17.42,1.26-26.12-0.14
			c-23.01-3.69-42.05-14.32-56.21-32.95c-14.77-19.41-19.16-41.74-17.17-65.58c0.68-8.19,2.33-16.31,2.83-24.5
			c1.07-17.44-4.62-32.03-19.4-42.29c-4.72-3.27-4.8-3.22-7.53,1.61C727.83,360.76,722.54,380.91,722.59,403.79z M1198,516.28
			c2.08,0.05,3.31-0.56,4.58-1.05c20.28-7.88,37.27-20.31,50.61-37.45c21.4-27.5,29.45-58.68,24.84-93.17
			c-2.09-15.66-7.34-30.22-15.21-43.87c-2.09-3.62-2.16-3.61-5.8-1.35c-7.19,4.45-12.59,10.52-16.18,18.17
			c-4.76,10.14-5.58,20.81-3.61,31.66c2.49,13.75,3.54,27.49,1.65,41.41c-3.05,22.54-12.96,41.28-30.49,55.89
			c-3.96,3.3-8.21,6.22-12.76,8.62c-1.85,0.98-2.37,2.07-1.83,4.1C1195.3,504.84,1196.59,510.5,1198,516.28z M715.56,388.49
			c-1.96,1.19-2.8,2.69-3.75,4.02c-18.72,26.49-21.44,54.71-8.14,84.15c10.1,22.36,27.26,38.4,48.36,50.32
			c26.92,15.21,56.03,20.68,86.68,18.55c8.03-0.56,15.98-1.94,23.8-3.97c1.41-0.36,3.27-0.35,3.29-2.51
			c0.04-3.85,0.01-7.7,0.01-11.3c-42.53,8.01-79.3-2.67-110.18-31.54C724.8,467.37,712.41,430.93,715.56,388.49z M687.86,443.45
			c-1.11-0.12-1.35,0.65-1.66,1.19c-10.59,19.01-11.97,38.83-4.16,58.97c7.07,18.25,19.41,32.6,35.38,43.79
			c26.63,18.64,56.43,25.9,88.59,23.84c18.83-1.2,36.15-7.47,52.14-17.41c1.44-0.89,3.53-1.41,3.68-3.7c-1.17-0.5-2.19-0.21-3.18,0
			c-17.63,3.71-35.38,4.22-53.2,1.91c-28.69-3.73-54.67-14.09-77.12-32.52c-18.65-15.31-32-34.2-37.83-57.96
			C689.02,455.58,688.62,449.46,687.86,443.45z M1286.2,388.11c0.27,4.76,0.54,8.69,0.7,12.62c0.17,4.12-0.2,8.22-0.6,12.32
			c-3.69,38.68-21.13,69.68-52.12,93.04c-9.22,6.95-19.39,12.24-30.2,16.32c-4.8,1.82-4.21,0.77-3.22,5.68
			c0.75,3.69,1.74,7.33,2.66,10.98c1.04,4.11,1.07,4.13,5.1,3.25c16.88-3.7,32.79-9.83,47.38-19.18
			c18.59-11.91,33.7-27.1,42.67-47.52c12.75-29.01,10.06-56.73-8.09-82.83C1289.44,391.29,1288.48,389.66,1286.2,388.11z
			 M853.12,565.42c-31.6,15.95-63.54,17.55-96.06,8.94c-32.52-8.61-59.16-26.03-77.46-55.23c-1.59,8.65-1.43,16.93,0.76,25.14
			c5.09,19.06,16.96,33.04,33.08,43.67c16.44,10.83,34.72,16.13,54.3,16.97c25.65,1.1,49.2-5.15,70.36-20.03
			C844.78,580.16,849.47,574.14,853.12,565.42z M1128.49,653.1c-1.51-1.43-2.76-0.94-3.86-0.95c-6.86-0.05-13.72,0.08-20.58-0.08
			c-3.05-0.08-5.63,0.76-8.24,2.25c-35.57,20.26-73.7,28.97-114.57,25.5c-26.84-2.28-52.2-9.57-75.69-22.75
			c-6.38-3.58-12.6-5.57-19.9-5.04c-5.87,0.44-11.81,0.09-17.71,0.09c-0.06,0.39-0.12,0.79-0.18,1.18
			c39.09,29.81,83.35,44.86,132.58,44.39C1047.85,697.25,1090.54,682.23,1128.49,653.1z M1314.34,443.37
			c-1.44,21.87-9.24,41.06-22.79,58.02c-10.3,12.89-22.85,23.13-37.1,31.36c-13.91,8.03-28.8,13.51-44.44,17.05
			c-3.8,0.86-3.84,0.9-2.97,4.72c0.98,4.34,2.02,8.67,3.08,13c0.99,4.05,1.02,4.15,5.07,3.87c7.18-0.51,14.33-1.41,21.36-3
			c24.29-5.47,45.94-16.02,63.34-34.12c14.28-14.87,23.85-32.16,24.67-53.35C1325.09,467.41,1321.97,454.84,1314.34,443.37z
			 M975.74,104.82c0.31,0.41,0.6,0.83,0.94,1.21c22.18,24.33,29.42,53.13,25.55,85.26c-1.82,15.12-6.48,29.4-12.5,43.3
			c-4.5,10.39-8.54,20.95-10.89,32.08c-0.75,3.54-0.61,3.79,3.12,3.82c8.75,0.07,17.5-0.03,26.25,0.07
			c2.48,0.02,3.59-0.85,4.27-3.31c2.53-9.09,4.77-18.22,6.37-27.52c3.99-23.21,4.49-46.4-0.53-69.49
			c-4.75-21.85-14.13-41.43-29.32-58.08C985.41,108.22,980.87,106.15,975.74,104.82z M1322.32,519.11
			c-25.94,39.4-63.75,56.62-109.31,60.15c1.81,7.68,3.6,14.97,5.22,22.31c0.5,2.27,1.68,2.99,3.91,3.03
			c8.06,0.15,16.09,0.12,24.09-1.13c18.46-2.87,35.32-9.5,49.91-21.34c12.42-10.09,21.37-22.57,25.46-38.24
			C1323.73,535.7,1323.78,527.44,1322.32,519.11z M947.22,94.71c1.62,1.43,2.37,2.11,3.15,2.78c19.85,16.97,28.45,39.01,28.47,64.6
			c0.01,14.86-3.32,29.21-8.56,43.13c-3.82,10.13-8.73,19.72-14,29.15c-5.71,10.22-10.13,20.97-12.77,32.41
			c-0.74,3.21-0.38,3.68,2.83,3.72c6.86,0.08,13.72-0.06,20.57,0.06c2.67,0.05,3.87-0.76,4.43-3.59c1.96-9.94,5.33-19.47,9.15-28.85
			c2.52-6.18,5.28-12.28,7.53-18.56c7.58-21.21,10.56-42.92,5.59-65.16c-5.31-23.77-17.97-42.73-38.33-56.35
			C953.19,96.65,951.11,95.11,947.22,94.71z M1082.1,652.33c-56.1,0-112.19,0-168.29,0c24.49,13.43,50.83,19.9,78.48,20.77
			C1023.97,674.1,1054.06,667.46,1082.1,652.33z M845.01,652.64c28.41,25.68,60.38,43.2,96.69,52.44
			c47.25,12.02,93.81,9.23,139.32-8.33c26.22-10.12,49.67-24.76,70.12-44.13c-4.48-0.24-8.54-1.11-12.63,2.22
			c-50.6,41.23-108.52,57.11-172.98,48.19c-39.56-5.47-74.94-21.35-105.93-46.63C855.44,652.99,851.37,651.26,845.01,652.64z
			 M1038.45,150.58c0.17,0.47,0.32,0.94,0.52,1.39c15.28,32.72,21.51,67.33,21.4,103.23c-0.01,3.76-0.45,7.52-0.57,11.28
			c-0.12,3.89-0.06,3.96,3.98,4.02c5.31,0.07,10.62,0.04,15.93,0.01c4.73-0.02,4.78-0.05,4.7-4.85c-0.34-22.16-4.84-43.48-13.2-64
			C1063.45,182.61,1052.68,165.44,1038.45,150.58z M865.62,378.45c-0.53,0.05-0.96-0.05-1.13,0.11
			c-10.17,9.84-18.3,20.89-20.72,35.26c-1.29,7.63-1.83,15.35-1.17,23.07c0.86,10.05,3.73,19.49,9.51,27.9
			c0.97,1.41,1.86,2.96,3.74,3.29c3.17,0.55,6.27,1.69,9.78,1.25C865.62,438.98,865.62,408.73,865.62,378.45z M1041.39,388.07
			c0.74-0.34,1.13-0.41,1.33-0.64c1.03-1.14,2.07-2.29,3.02-3.5c9.25-11.8,17-24.5,23.06-38.21c1.66-3.76,3.18-7.59,4.59-11.45
			c1.25-3.41,1.09-3.64-2.26-3.67c-6.69-0.07-13.38,0.05-20.07-0.06c-2.29-0.04-3.3,0.88-3.99,3.02
			c-3.9,12.08-8.7,23.82-14.25,35.24c-0.61,1.26-1.09,2.47-0.27,3.87C1035.53,377.8,1038.46,382.96,1041.39,388.07z M921.37,330.57
			c3.28,7.5,4.44,14.94,10.05,20.25c1.2,7.64,6.4,13.12,10.56,19.1c4.18,6,8.91,11.57,14.8,16.84c3.02-5.23,6.21-9.75,8.3-14.73
			c1.55-3.7,1.7-7.83-1.3-11.58c-6.74-8.45-12.8-17.4-17.69-27.08c-0.79-1.57-1.58-2.88-3.76-2.84
			C935.66,330.64,928.99,330.57,921.37,330.57z M1110.59,349.02c-2.61-3.71-4.53-6.71-6.72-9.5c-2.28-2.92-2.98-7.64-6.54-8.77
			c-3.59-1.13-7.8-0.22-11.74-0.35c-1.99-0.07-2.97,0.58-3.66,2.59c-7.7,22.23-19.11,42.39-34.31,60.35
			c-1.5,1.77-1.45,3.05-0.31,4.95c3.71,6.15,7.23,12.42,10.84,18.64c0.61,1.06,1.01,2.34,2.19,2.98c0.88-1.03,1.01-2.05,1.25-3.05
			c5.08-21.3,10.17-42.59,15.27-63.88c0.94-3.9,0.97-3.93,4.98-3.94C1091.09,349.01,1100.32,349.02,1110.59,349.02z M808.95,642.8
			c1.85-3.19,3.3-5.91,4.98-8.48c1.22-1.87,1.02-3.23-0.32-5.01c-3.92-5.19-7.86-10.39-11.31-15.89c-1.74-2.77-3.62-3.05-6.38-2.46
			c-5.7,1.23-11.49,1.77-17.32,1.96c-9.75,0.33-19.44-0.21-29.79-2.07c3.4,6.31,6.56,11.95,9.48,17.71c1.26,2.47,2.53,3.02,5.2,1.91
			c7.9-3.28,15.92-6.25,23.9-9.33c4.05-1.56,4.06-1.54,6.53,1.96C798.55,629.68,803.26,636.18,808.95,642.8z M931.89,428.13
			c0.29,0.05,0.57,0.11,0.86,0.17c6.17-10.68,12.26-21.42,18.59-32.01c1.43-2.38,0.71-3.55-0.96-5.16
			c-5.94-5.73-11.21-12.05-16.09-18.71c-0.61-0.83-0.8-2.32-2.41-2.15C931.89,389.59,931.89,408.86,931.89,428.13z M920.4,349.31
			c-2.05-5.34-4.21-10.36-5.86-15.53c-0.83-2.61-2.03-3.72-4.7-3.37c-1.01,0.13-2.07,0.12-3.08,0c-2.36-0.29-3.71,0.68-4.79,2.81
			c-2.24,4.44-5.04,8.55-7.95,12.6c-0.73,1.01-2.1,1.82-1.68,3.49C901.62,349.31,910.86,349.31,920.4,349.31z M1221.51,611.88
			c-0.8,2.37,0.32,4.26,0.76,6.2c2,9.02,2.07,8.94,10.76,12.08c2.02,0.73,3.02,0.37,4-1.54c2.35-4.55,4.97-8.96,7.4-13.46
			c0.7-1.3,1.93-2.46,1.41-4.56C1237.8,612.14,1229.61,611.74,1221.51,611.88z M807.13,609.16c3.71,5.57,7.17,11,11.49,15.91
			c4.88-6.25,4.88-6.25,0.92-11.78c-0.5-0.69-1.01-1.38-1.5-2.08c-3.74-5.33-3.74-5.33-9.73-3.04
			C808.02,608.28,807.8,608.59,807.13,609.16z M964.83,349.54c0.34-0.16,0.69-0.32,1.03-0.48c0-5.12-0.05-10.24,0.02-15.36
			c0.03-2.04-0.47-3.25-2.83-3.16c-3.02,0.12-6.06,0.03-10.04,0.03C956.67,337.76,960.61,343.73,964.83,349.54z M1197.62,627.41
			c-6.37,0-11.84,0-17.81,0c2.43,4.76,4.75,8.95,7.71,13.32C1191.06,636.06,1194.12,632.02,1197.62,627.41z M1039.81,331.2
			c-1.95-1.08-3.85-0.5-5.68-0.6c-1.45-0.08-2.25,0.59-2.25,2.11c0,5.83,0,11.65,0,17.48
			C1035.58,344.08,1038.01,337.77,1039.81,331.2z M836.01,595.95c-5.77,3.01-10.35,5.41-14.99,7.83c1.58,2.95,3.36,5.41,5.74,8.24
			C829.75,606.82,832.57,601.92,836.01,595.95z"/>
		<path class="st1" d="M441,233.22c26.06,0.92,52.11,1.82,78.17,2.78c31.88,1.18,63.76,2.44,95.64,3.62
			c22.8,0.85,45.6,1.63,68.4,2.46c28.97,1.06,57.95,1.83,86.9,3.28c18.22,0.92,34.36,7.53,47.6,20.46
			c17.83,17.4,24.65,46.63,10.98,71.5c-3.39,6.18-7.33,12-11.3,17.8c-4.27,6.22-8.5,12.47-11.83,19.27
			c-18.09,36.88-0.01,81.97,39.01,97.31c5.77,2.27,11.71,3.87,17.89,4.48c2.45,0.24,3.6,1.12,3.45,3.86
			c-0.25,4.45-0.03,8.92-0.08,13.38c-0.04,3.66-0.06,3.82-3.95,4.39c-15.27,2.24-30.17,0.74-44.31-5.56
			c-28.11-12.51-43.49-34.43-47.41-64.79c-1.56-12.08-0.51-23.96,1.71-35.8c2.2-11.74,1.74-23.29-2.87-34.36
			c-7.46-17.93-21.32-28.34-40.12-31.72c-13.14-2.36-26.49-3.55-39.76-5.2c-21.6-2.69-43.21-5.35-64.82-7.97
			c-21.1-2.57-42.21-5.04-63.31-7.62c-23.82-2.91-47.63-5.91-71.45-8.83c-20.93-2.56-41.87-5.04-62.8-7.59
			c-21.1-2.57-42.19-5.19-63.3-7.77c-18.03-2.21-36.07-4.4-54.11-6.59c-21.1-2.57-42.2-5.14-63.3-7.72
			c-18.38-2.24-36.75-4.49-55.13-6.72c-17.53-2.14-35.08-4.09-52.58-6.43c-15.35-2.05-27.12-13.22-30.37-28.24
			c-0.82-3.81-0.82-3.89,2.9-3.77c16.97,0.55,33.95,1.1,50.92,1.72c24.51,0.89,49.02,1.85,73.53,2.77
			c33.25,1.25,66.5,2.51,99.76,3.74c22.63,0.83,45.26,1.62,67.88,2.43c12.69,0.46,25.37,0.93,38.06,1.39
			C441,233.17,441,233.2,441,233.22z"/>
		<path class="st1" d="M1191.57,488.27c-1.83-4.94-2.56-9.87-3.79-14.65c-1.23-4.81-2.17-9.71-3.57-14.47
			c-0.97-3.27-0.42-5.61,1.9-8.27c8.29-9.5,13.5-20.58,15.73-33.02c2.88-16.08,0.81-31.39-6.98-45.86
			c-3.34-6.21-7.28-12.02-11.22-17.85c-3.46-5.11-6.87-10.25-9.95-15.61c-16.25-28.21-6.55-61.97,18.13-79.47
			c12.24-8.67,25.94-13.22,40.84-13.81c40.46-1.59,80.93-2.94,121.39-4.41c47.32-1.72,94.64-3.48,141.96-5.22
			c37.55-1.38,75.1-2.74,112.65-4.12c46.63-1.71,93.27-3.42,139.91-5.14c46.81-1.73,93.62-3.46,140.42-5.17
			c1.67-0.06,3.4-0.53,5,0.32c-1.74,16.77-14.52,29.66-31.53,31.73c-32,3.91-64.01,7.72-96,11.63
			c-34.89,4.27-69.77,8.64-104.66,12.91c-24,2.94-48.01,5.75-72.01,8.68c-26.55,3.24-53.09,6.59-79.64,9.83
			c-24,2.93-48.01,5.76-72.01,8.69c-23.66,2.89-47.3,5.87-70.96,8.76c-21.1,2.58-42.22,5.07-63.32,7.66
			c-10.21,1.25-20.47,2.23-30.59,4.02c-32.09,5.68-48.14,32.92-44.21,61.58c1.75,12.77,3.25,25.5,2.48,38.43
			C1229.98,451.46,1214.27,476.52,1191.57,488.27z"/>
		<path class="st2" d="M1118.27,356.47c9.78,0,19.56-0.01,29.34,0.01c4.66,0.01,4.69,0.03,5.77,4.52
			c8.2,34.3,16.39,68.61,24.59,102.91c8.76,36.64,17.54,73.27,26.3,109.9c3.3,13.82,6.59,27.65,9.84,41.48
			c0.97,4.15,0.84,4.34-3.46,4.36c-13.89,0.05-27.79,0.03-41.69,0.01c-4.96-0.01-5.01-0.03-6.17-4.84
			c-3.56-14.82-7.07-29.65-10.6-44.47c-1.46-6.13-1.47-6.13-7.54-6.13c-18.19,0-36.37-0.01-54.56,0c-4.87,0-4.91,0.02-6.06,4.76
			c-3.68,15.14-7.33,30.29-10.99,45.43c-1.26,5.2-1.26,5.24-6.37,5.25c-13.55,0.02-27.11,0.01-40.66,0.01
			c-0.69,0-1.37-0.02-2.06-0.02c-1.93,0.03-2.91-0.79-2.54-2.82c0.19-1.01,0.35-2.02,0.59-3.02c9.61-39.95,19.24-79.9,28.82-119.86
			c10.51-43.79,20.97-87.59,31.45-131.38c0.12-0.5,0.2-1.01,0.32-1.51c1.19-4.53,1.19-4.56,5.83-4.57
			C1098.37,356.45,1108.32,356.47,1118.27,356.47z M1118.29,429.23c-0.36,0-0.72-0.01-1.09-0.02
			c-7.09,29.72-14.18,59.44-21.29,89.22c7.62,1,39.84,0.69,43.6-0.42C1132.44,488.43,1125.36,458.83,1118.29,429.23z"/>
		<path class="st3" d="M1180.63,644.23c-121.59,0-242.26,0-363.85,0c16.22-28.09,32.1-55.6,48.01-83.17
			c1.74,0.83,1.01,2.17,1.01,3.15c0.05,19.04,0.03,38.08,0.04,57.12c0,6.15-0.47,5.39,5.6,5.39c18.19,0.02,36.37,0.01,54.55,0.01
			c6.23,0,5.6,0.36,5.6-5.48c0.01-56.61,0.03-113.22-0.06-169.83c-0.01-4.09,0.84-7.59,2.94-11.15
			c9.32-15.79,18.39-31.72,27.56-47.6c0.93-1.61,1.92-3.18,3.24-5.36c0.87,2.33,0.55,4.16,0.56,5.91
			c0.02,40.32,0.01,80.63,0.03,120.94c0,5.52-0.75,4.97,4.88,4.97c18.53,0.02,37.05,0.03,55.58,0c6.44-0.01,5.52,0.76,5.53-5.34
			c0.03-40.14,0.02-80.29,0.02-120.43c0-1.64,0-3.28,0-5.03c1.76,0.44,2.03,1.72,2.59,2.68c7.24,12.44,14.37,24.94,21.69,37.33
			c1.43,2.43,1.63,4.66,0.99,7.31c-14.89,62.11-29.73,124.23-44.57,186.36c-0.35,1.49-0.56,3.02-0.83,4.47
			c1.2,0.84,2.43,0.54,3.59,0.54c19.39,0.02,38.77,0.02,58.16,0.01c4.28,0,4.32-0.03,5.34-4.23c3.86-15.98,7.77-31.95,11.47-47.96
			c0.58-2.51,1.49-3.33,4.04-3.31c15.61,0.11,31.22,0.13,46.83-0.02c2.78-0.02,3.76,0.92,4.36,3.52
			c3.71,15.84,7.57,31.64,11.4,47.45c1.1,4.53,1.2,4.98,5.57,4.44c6.32-0.79,10.26,1.34,12.59,7.32
			C1176.38,637.53,1178.52,640.48,1180.63,644.23z"/>
		<path class="st1" d="M734.19,335.1c-7.23,11.62-12.22,23.96-15.37,37.04c-0.24,1.02-0.52,2-1.28,2.75
			c-3.67,3.61-7.1,7.44-10.28,11.5c-1.53,1.94-3.52,0.95-5.25,0.64c-9.77-1.78-19.52-3.71-29.28-5.56
			c-37.21-7.01-74.42-13.99-111.63-21.02c-33.84-6.38-67.66-12.82-101.5-19.19c-35.52-6.69-71.06-13.31-106.57-20.01
			c-35.52-6.7-71.02-13.47-106.54-20.19c-25.92-4.9-51.87-9.69-77.78-14.67c-10.26-1.97-18.99-6.81-25.54-15.14
			c-2.33-2.96-4.26-6.18-4.99-9.9c0.25-0.21,0.35-0.33,0.48-0.4c0.15-0.08,0.32-0.19,0.47-0.17
			c196.48,24.03,392.96,48.07,589.43,72.14c1.52,0.19,2.99,0.74,4.46,1.17C733.32,334.18,733.54,334.52,734.19,335.1z"/>
		<path class="st1" d="M1864.48,260.7c-2.55,8.09-7.51,13.79-13.98,18.31c-5.12,3.58-10.82,6-16.94,7.16
			c-36.53,6.95-73.07,13.81-109.6,20.68c-40.91,7.7-81.83,15.37-122.75,23.09c-39.23,7.39-78.45,14.82-117.68,22.23
			c-39.56,7.48-79.13,14.95-118.69,22.41c-21.72,4.1-43.45,8.14-65.15,12.34c-2.74,0.53-4.16-0.4-6.11-2.27
			c-7.26-6.97-11.55-15.28-14.02-25.01c-1.89-7.45-5.67-14.31-9.43-21.07c-0.72-1.29-2-2.43-1.64-4.29
			c5.39-2.29,11.23-2.64,16.95-3.35c23.81-2.95,47.65-5.74,71.47-8.64c21.1-2.57,42.19-5.25,63.28-7.82
			c21.1-2.58,42.21-5.05,63.3-7.63c21.1-2.58,42.18-5.24,63.28-7.81c20.93-2.56,41.87-5.02,62.8-7.57
			c21.1-2.57,42.19-5.19,63.29-7.77c18.03-2.21,36.07-4.39,54.11-6.6c21.44-2.62,42.87-5.28,64.31-7.89
			c21.1-2.57,42.2-5.1,63.31-7.61C1857.64,261.23,1860.65,260.37,1864.48,260.7z"/>
		<path class="st2" d="M998.86,277.81c39.8,0,79.6,0,119.4,0c6.64,0,6.24-0.44,6.24,6.01c0,11.32,0.02,22.65-0.01,33.97
			c-0.01,4.76-0.05,4.81-4.84,4.81c-29.51,0.02-59.01,0.01-88.52,0.01c-7.34,0-6.75-0.59-6.75,6.54c0,58.15,0,116.31,0,174.46
			c0,1.2,0.02,2.4,0,3.6c-0.07,4.46-0.07,4.51-4.57,4.52c-14.07,0.03-28.13,0.03-42.2,0c-4.34-0.01-4.39-0.07-4.4-4.68
			c-0.02-23.85-0.01-47.69-0.01-71.54c0-35.33,0-70.68,0-106.01c0-1.37-0.06-2.74,0-4.11c0.08-1.96-0.82-2.84-2.76-2.78
			c-1.37,0.04-2.74-0.01-4.12-0.01c-28.65,0-57.3,0-85.94,0c-1.2,0-2.4,0.04-3.6-0.01c-3.55-0.15-3.65-0.16-3.68-3.92
			c-0.06-10.29-0.02-20.58-0.02-30.88c0-2.4,0.05-4.8,0.01-7.21c-0.03-1.93,0.85-2.83,2.78-2.78c1.37,0.03,2.74-0.02,4.12-0.02
			C919.6,277.81,959.23,277.81,998.86,277.81z"/>
		<path class="st1" d="M701.6,394.64c-5.09,8.93-9.16,17.44-10.96,26.76c-0.84,4.35-2.37,8.08-5.36,11.38
			c-2.31,2.53-3.94,5.6-5.48,8.67c-2.01,3.99-2.01,3.99-6.53,2.85c-11.79-2.98-23.58-5.95-35.37-8.94
			c-107.39-27.33-214.77-54.66-322.16-81.99c-38.17-9.71-76.36-19.38-114.54-29.07c-6.69-1.7-13.11-3.99-18.82-7.98
			c-6.67-4.66-11.57-10.65-13.9-18.56c-0.28-0.96-0.73-1.92,0.14-3.55C345.94,327.63,523.46,361.08,701.6,394.64z"/>
		<path class="st1" d="M1834.95,293.78c-1.16,7.08-4.16,12.34-8.44,16.92c-6.17,6.6-13.95,10.43-22.57,12.66
			c-14.92,3.86-29.87,7.61-44.81,11.41c-91.11,23.19-182.23,46.4-273.35,69.56c-52.28,13.29-104.57,26.53-156.86,39.79
			c-4.13,1.04-4.15,1.04-6.29-2.66c-2.24-3.86-4.64-7.63-7.56-11.01c-1.52-1.76-2.38-3.67-2.8-5.91
			c-1.76-9.53-5.27-18.42-10.02-26.84c-0.5-0.89-1.16-1.7-1.06-3.15C1478.81,361.01,1656.49,327.46,1834.95,293.78z"/>
		<path class="st1" d="M1802.71,331.87c-1.81,9.98-7.09,17.29-14.69,23.09c-4.55,3.46-9.68,5.77-15.11,7.51
			c-106.56,33.97-213.1,67.95-319.65,101.94c-39.49,12.6-78.97,25.21-118.46,37.77c-1.94,0.61-3.81,1.58-5.92,1.54
			c-1.06-1.19-0.1-2.26,0.2-3.33c4.11-14.73,4.21-29.42-0.29-44.11c-1.23-4.01-1.99-4,3.19-5.31
			c44.32-11.26,88.63-22.54,132.95-33.8c110.38-28.05,220.77-56.1,331.16-84.11C1798.04,332.55,1799.95,331.68,1802.71,331.87z"/>
		<path class="st1" d="M674.4,452.08c-5.9,17.32-6.21,34.17-0.66,51.23c-2.37,0.96-4.2-0.37-5.99-0.94
			c-54.36-17.3-108.7-34.68-163.05-52.02c-91.73-29.26-183.45-58.52-275.2-87.72c-8.17-2.6-15.5-6.45-21.34-12.82
			c-4.59-5-7.87-10.68-8.9-18.41C357.85,371.67,515.97,411.83,674.4,452.08z"/>
		<path class="st2" d="M923.89,488.71c0,41.33,0,82.65-0.01,123.98c0,6.92,0.54,6.3-6.42,6.31c-12.86,0.02-25.72,0-38.58,0
			c-5.99,0-5.67,0.32-5.67-5.51c0-28.63,0-57.27,0-85.91c0-54.7,0-109.4,0.01-164.11c0-6.89-0.58-6.35,6.39-6.36
			c12.69-0.01,25.38-0.01,38.07,0c6.59,0.01,6.21-0.43,6.21,6.06C923.89,405.03,923.89,446.87,923.89,488.71z"/>
		<path class="st1" d="M815.73,696.26c-7.27-7-14.17-13.67-21.11-20.29c-1.21-1.15-1.35-2.07-0.26-3.45
			c4.76-6.08,9.46-12.2,14.07-18.39c1.32-1.77,2.95-2.04,4.94-2.02c5.32,0.07,10.64,0.17,15.96-0.03c3.01-0.12,5.11,0.95,7.23,3
			c14.41,13.88,30.4,25.63,47.92,35.3c26.72,14.76,55.18,24.25,85.57,27.53c72.83,7.86,136.11-13.32,189.87-62.99
			c2.02-1.87,3.92-2.96,6.76-2.85c5.14,0.21,10.3,0.15,15.44,0.02c2.44-0.06,4.16,0.6,5.65,2.67c4,5.57,8.15,11.04,12.38,16.44
			c1.32,1.69,1.31,2.77-0.29,4.27c-6.26,5.87-12.47,11.79-18.55,17.84c-1.75,1.74-2.86,1.69-4.68,0.16
			c-6.44-5.41-13.01-10.65-19.54-15.94c-3.65-2.95-2.84-3.36-6.72-0.22c-7.34,5.95-14.97,11.49-23.07,16.35
			c-2.17,1.3-2.63,2.54-1.75,4.93c3.03,8.19,5.75,16.5,8.79,24.7c0.98,2.64,0.51,3.95-2.1,5.15c-7.46,3.46-14.86,7.08-22.15,10.88
			c-2.46,1.28-3.56,0.65-4.88-1.47c-4.45-7.13-9.04-14.16-13.62-21.22c-2.21-3.4-2.25-3.4-6.05-2.01
			c-8.53,3.13-17.17,5.9-25.93,8.33c-4.91,1.36-4.25,0.71-4.22,5.39c0.05,8.4,0.16,16.81,0.31,25.22c0.06,3.41,0.11,4.11-3.7,4.56
			c-8.17,0.95-16.31,2.21-24.42,3.55c-2.48,0.41-3.37-0.49-3.92-2.68c-2.05-8.14-4.17-16.27-6.32-24.39
			c-1.4-5.29-1.25-4.41-5.88-4.12c-9.09,0.58-18.17,0.68-27.25-0.02c-4.01-0.31-4.06-0.25-5.21,3.71
			c-2.33,8.07-4.61,16.15-6.94,24.21c-1.17,4.06-1.22,4.16-5.19,3.54c-7.96-1.24-15.88-2.73-23.85-3.85
			c-2.44-0.35-3.14-1.26-3.03-3.6c0.4-8.4,0.64-16.8,0.94-25.2c0.18-4.9,0.19-4.96-4.55-6.16c-9.15-2.32-18.16-5.08-26.92-8.57
			c-2.45-0.98-3.64-0.5-4.97,1.63c-4.65,7.41-9.53,14.67-14.19,22.07c-1.43,2.27-2.6,2.92-5.26,1.52
			c-7.27-3.84-14.71-7.36-22.16-10.86c-2.29-1.07-2.93-2.17-1.99-4.7c3.03-8.2,5.67-16.53,8.69-24.73c1-2.72,0.75-4.22-1.93-5.82
			c-7.95-4.76-15.44-10.22-22.81-15.84c-3.73-2.85-2.83-2.96-6.77,0.24C830.76,684.01,823.45,689.97,815.73,696.26z"/>
		<path class="st1" d="M894.58,331.32c-3.55,5.96-7.79,11.49-12.12,16.96c-0.99,1.25-2.32,1.3-3.71,1.3c-3.26,0-6.53,0.13-9.78-0.03
			c-2.56-0.13-3.27,0.97-3.17,3.34c0.14,3.42-0.11,6.87,0.08,10.29c0.15,2.61-0.65,4.51-2.55,6.34c-3.96,3.79-7.75,7.77-11.47,11.8
			c-9.69,10.49-14.36,23.1-15.75,37.17c-1.46,14.73-0.23,29.02,6.29,42.59c-1.69,0.76-2.6-0.2-3.54-0.74
			c-29.36-16.73-41.6-54.51-25.56-84.64c2.99-5.61,6.45-10.92,10.01-16.17c3.85-5.67,7.7-11.33,11.21-17.24
			c17.03-28.68,9.74-66.24-17.34-87.24c-5.86-4.55-12.21-8.22-19.06-11.07c-1.38-0.57-3.03-0.69-4.09-2.06
			c0.08-1.85,1.46-3.02,2.43-4.34c24.92-33.8,72.57-33.62,97.53,0.3c6.31,8.58,10.04,18.27,12.78,28.42
			c0.94,3.49,0.59,3.88-2.97,3.9c-11.15,0.05-22.3,0.01-33.45,0.03c-4.9,0.01-4.94,0.03-4.95,4.66c-0.02,16.98-0.02,33.96,0,50.94
			c0.01,4.64,0.05,4.66,4.88,4.67c6.86,0.02,13.72-0.02,20.58,0.03C891.98,330.53,893.22,330.09,894.58,331.32z"/>
		<path class="st1" d="M1181.81,444.7c-1.56-1.33-1.54-2.58-1.82-3.74c-6.87-28.82-13.74-57.64-20.62-86.46
			c-0.16-0.67-0.46-1.32-0.51-1.99c-0.21-2.81-1.72-3.54-4.41-3.5c-10.29,0.14-20.58-0.05-30.87,0.12
			c-2.89,0.05-4.77-0.87-6.45-3.16c-3.51-4.8-7.16-9.48-10-14.91c2.05-0.88,3.75-0.53,5.4-0.55c5.49-0.05,10.98-0.09,16.47,0.02
			c2.33,0.05,3.41-0.56,3.4-3.15c-0.08-18.01-0.07-36.02-0.01-54.02c0.01-2.57-1.12-3.18-3.43-3.16
			c-8.92,0.07-17.83,0.03-26.75,0.03c-1.37,0-2.75-0.1-4.12,0.02c-2.77,0.23-3.24-1.16-2.61-3.45c0.77-2.8,1.44-5.64,2.36-8.4
			c3.78-11.43,9.87-21.44,18.68-29.73c27.84-26.19,71.68-20.02,91.85,13.01c-1.13,1.71-3.18,1.75-4.83,2.47
			c-22.87,9.92-38.04,26.44-43.52,51.1c-3.28,14.74-1.46,28.95,5.2,42.53c3.41,6.95,7.78,13.31,12.14,19.67
			c4.56,6.65,9.31,13.2,12.61,20.58C1200.54,401.69,1196.9,423.67,1181.81,444.7z"/>
		<path class="st1" d="M722.59,403.79c-0.05-22.88,5.24-43.03,15.86-61.78c2.73-4.82,2.81-4.88,7.53-1.61
			c14.78,10.25,20.47,24.84,19.4,42.29c-0.5,8.19-2.14,16.31-2.83,24.5c-2,23.85,2.4,46.17,17.17,65.58
			c14.17,18.63,33.21,29.25,56.21,32.95c8.7,1.4,17.4,1.45,26.12,0.14c3.66-0.55,3.69-0.44,3.77,3.29c0.04,1.89,0.02,3.77,0.01,5.66
			c-0.02,4.81-0.02,4.83-4.85,6.12c-13.03,3.47-26.28,3.4-39.28,0.71c-51.2-10.59-83.03-41.76-96.21-92.15
			C723.19,420.67,722.48,411.58,722.59,403.79z"/>
		<path class="st1" d="M1198,516.28c-1.41-5.78-2.71-11.44-4.2-17.05c-0.54-2.03-0.02-3.12,1.83-4.1c4.55-2.41,8.8-5.32,12.76-8.62
			c17.53-14.61,27.43-33.35,30.49-55.89c1.89-13.92,0.84-27.66-1.65-41.41c-1.97-10.85-1.15-21.52,3.61-31.66
			c3.59-7.65,8.99-13.71,16.18-18.17c3.64-2.26,3.71-2.27,5.8,1.35c7.87,13.65,13.12,28.22,15.21,43.87
			c4.6,34.49-3.44,65.67-24.84,93.17c-13.35,17.15-30.34,29.57-50.61,37.45C1201.31,515.72,1200.08,516.32,1198,516.28z"/>
		<path class="st1" d="M715.56,388.49c-3.16,42.44,9.24,78.88,40.07,107.71c30.88,28.87,67.65,39.55,110.18,31.54
			c0,3.6,0.03,7.45-0.01,11.3c-0.03,2.16-1.89,2.15-3.29,2.51c-7.81,2.03-15.76,3.41-23.8,3.97c-30.65,2.13-59.76-3.34-86.68-18.55
			c-21.1-11.92-38.26-27.96-48.36-50.32c-13.3-29.43-10.58-57.65,8.14-84.15C712.76,391.18,713.61,389.68,715.56,388.49z"/>
		<path class="st1" d="M687.86,443.45c0.76,6.01,1.16,12.13,2.63,18.1c5.83,23.76,19.18,42.65,37.83,57.96
			c22.45,18.44,48.44,28.8,77.12,32.52c17.82,2.31,35.58,1.8,53.2-1.91c0.99-0.21,2.01-0.5,3.18,0c-0.14,2.29-2.24,2.8-3.68,3.7
			c-15.99,9.94-33.31,16.21-52.14,17.41c-32.16,2.05-61.96-5.2-88.59-23.84c-15.97-11.18-28.3-25.54-35.38-43.79
			c-7.81-20.14-6.43-39.97,4.16-58.97C686.5,444.1,686.75,443.33,687.86,443.45z"/>
		<path class="st1" d="M1286.2,388.11c2.28,1.55,3.24,3.18,4.28,4.68c18.15,26.09,20.84,53.82,8.09,82.83
			c-8.98,20.42-24.08,35.61-42.67,47.52c-14.59,9.35-30.5,15.48-47.38,19.18c-4.03,0.88-4.06,0.86-5.1-3.25
			c-0.92-3.65-1.91-7.29-2.66-10.98c-1-4.9-1.59-3.86,3.22-5.68c10.81-4.08,20.98-9.37,30.2-16.32
			c30.99-23.36,48.43-54.35,52.12-93.04c0.39-4.1,0.77-8.2,0.6-12.32C1286.74,396.8,1286.47,392.87,1286.2,388.11z"/>
		<path class="st1" d="M853.12,565.42c-3.65,8.72-8.34,14.75-15.02,19.45c-21.16,14.88-44.72,21.13-70.36,20.03
			c-19.58-0.84-37.86-6.14-54.3-16.97c-16.13-10.62-27.99-24.61-33.08-43.67c-2.19-8.21-2.35-16.49-0.76-25.14
			c18.3,29.2,44.93,46.63,77.46,55.23C789.57,582.96,821.51,581.36,853.12,565.42z"/>
		<path class="st1" d="M1128.49,653.1c-37.95,29.13-80.64,44.14-128.16,44.6c-49.23,0.47-93.49-14.58-132.58-44.39
			c0.06-0.39,0.12-0.79,0.18-1.18c5.91,0,11.84,0.35,17.71-0.09c7.3-0.54,13.52,1.45,19.9,5.04c23.48,13.18,48.84,20.47,75.69,22.75
			c40.88,3.48,79.01-5.24,114.57-25.5c2.61-1.49,5.19-2.33,8.24-2.25c6.86,0.16,13.72,0.02,20.58,0.08
			C1125.73,652.16,1126.98,651.67,1128.49,653.1z"/>
		<path class="st1" d="M1314.34,443.37c7.63,11.47,10.75,24.04,10.22,37.55c-0.83,21.18-10.39,38.48-24.67,53.35
			c-17.39,18.1-39.05,28.65-63.34,34.12c-7.04,1.59-14.18,2.48-21.36,3c-4.04,0.29-4.08,0.18-5.07-3.87c-1.06-4.33-2.1-8.66-3.08-13
			c-0.87-3.82-0.84-3.86,2.97-4.72c15.64-3.54,30.53-9.02,44.44-17.05c14.25-8.23,26.8-18.46,37.1-31.36
			C1305.09,484.43,1312.89,465.23,1314.34,443.37z"/>
		<path class="st4" d="M975.74,104.82c5.12,1.33,9.66,3.4,13.25,7.34c15.19,16.65,24.57,36.23,29.32,58.08
			c5.02,23.09,4.53,46.29,0.53,69.49c-1.6,9.3-3.84,18.44-6.37,27.52c-0.68,2.46-1.79,3.33-4.27,3.31
			c-8.75-0.1-17.5,0.01-26.25-0.07c-3.73-0.03-3.87-0.29-3.12-3.82c2.35-11.13,6.38-21.69,10.89-32.08
			c6.03-13.9,10.68-28.18,12.5-43.3c3.87-32.14-3.37-60.94-25.55-85.26C976.34,105.65,976.06,105.22,975.74,104.82z"/>
		<path class="st1" d="M1322.32,519.11c1.47,8.34,1.41,16.59-0.72,24.78c-4.09,15.67-13.04,28.16-25.46,38.24
			c-14.58,11.85-31.45,18.47-49.91,21.34c-8,1.25-16.03,1.28-24.09,1.13c-2.24-0.04-3.41-0.76-3.91-3.03
			c-1.62-7.34-3.4-14.63-5.22-22.31C1258.57,575.72,1296.38,558.51,1322.32,519.11z"/>
		<path class="st4" d="M947.22,94.71c3.88,0.39,5.96,1.94,8.06,3.34c20.36,13.62,33.02,32.58,38.33,56.35
			c4.97,22.24,1.99,43.95-5.59,65.16c-2.25,6.28-5,12.38-7.53,18.56c-3.82,9.37-7.19,18.9-9.15,28.85
			c-0.56,2.83-1.76,3.64-4.43,3.59c-6.85-0.12-13.72,0.02-20.57-0.06c-3.21-0.04-3.57-0.51-2.83-3.72
			c2.63-11.43,7.06-22.18,12.77-32.41c5.27-9.43,10.18-19.02,14-29.15c5.24-13.91,8.57-28.27,8.56-43.13
			c-0.02-25.59-8.61-47.63-28.47-64.6C949.6,96.83,948.84,96.14,947.22,94.71z"/>
		<path class="st4" d="M941.18,101.07c1.89,0.11,3.06,1.5,4.32,2.59c16.02,13.9,24.22,31.66,25.5,52.66
			c1.21,19.64-3.73,38.06-11.68,55.81c-2.87,6.42-6.25,12.59-9.66,18.74c-6.26,11.31-11.18,23.15-13.68,35.88
			c-0.5,2.56-1.36,3.98-4.31,3.81c-4.1-0.22-8.23,0.01-12.35-0.07c-3.86-0.08-3.87-0.18-3.17-4.27c2.51-14.65,7.57-28.45,14.1-41.74
			c4.47-9.09,9.63-17.79,15.08-26.32c9.31-14.57,14.08-30.46,13.18-47.79c-0.81-15.52-5.51-29.93-13.54-43.23
			c-1.24-2.05-2.54-4.07-3.82-6.1L941.18,101.07z"/>
		<path class="st4" d="M1008.71,123.07c3.2,1.69,5.66,4.01,7.97,6.93c17.18,21.68,25.66,47.03,31.39,73.52
			c4.45,20.56,5.29,41.42,4.35,62.38c-0.2,4.52-0.22,4.58-4.67,4.6c-8.05,0.05-16.11,0.06-24.17,0c-4.13-0.03-4.19-0.13-3.13-3.99
			c3.45-12.56,6.14-25.26,7.63-38.23c4.15-36.2-0.34-70.74-19.38-102.54c-0.34-0.57-0.54-1.25-0.8-1.87
			C1008.17,123.6,1008.44,123.33,1008.71,123.07z"/>
		<path class="st1" d="M1082.1,652.33c-28.04,15.12-58.13,21.76-89.8,20.77c-27.66-0.87-53.99-7.34-78.48-20.77
			C969.91,652.33,1026,652.33,1082.1,652.33z"/>
		<path class="st1" d="M845.01,652.64c6.36-1.38,10.43,0.35,14.6,3.76c30.99,25.27,66.37,41.15,105.93,46.63
			c64.46,8.92,122.38-6.96,172.98-48.19c4.09-3.33,8.15-2.46,12.63-2.22c-20.45,19.38-43.9,34.02-70.12,44.13
			c-45.52,17.56-92.07,20.35-139.32,8.33C905.39,695.84,873.43,678.32,845.01,652.64z"/>
		<path class="st4" d="M1038.45,150.58c14.23,14.86,25.01,32.03,32.77,51.08c8.36,20.51,12.85,41.83,13.2,64
			c0.08,4.8,0.03,4.83-4.7,4.85c-5.31,0.03-10.63,0.06-15.93-0.01c-4.04-0.05-4.1-0.12-3.98-4.02c0.12-3.77,0.56-7.53,0.57-11.28
			c0.1-35.9-6.12-70.51-21.4-103.23C1038.76,151.52,1038.62,151.05,1038.45,150.58z"/>
		<path class="st4" d="M1041.39,388.07c-2.93-5.11-5.86-10.27-8.85-15.41c-0.82-1.4-0.34-2.61,0.27-3.87
			c5.55-11.42,10.34-23.16,14.25-35.24c0.69-2.14,1.7-3.06,3.99-3.02c6.69,0.11,13.38-0.01,20.07,0.06
			c3.35,0.03,3.51,0.27,2.26,3.67c-1.41,3.86-2.93,7.69-4.59,11.45c-6.06,13.72-13.81,26.42-23.06,38.21
			c-0.95,1.21-1.99,2.36-3.02,3.5C1042.52,387.66,1042.13,387.73,1041.39,388.07z"/>
		<path class="st4" d="M921.37,330.57c7.62,0,14.3,0.08,20.97-0.04c2.18-0.04,2.97,1.26,3.76,2.84
			c4.89,9.68,10.95,18.62,17.69,27.08c2.99,3.76,2.85,7.88,1.3,11.58c-2.09,4.98-5.28,9.5-8.3,14.73
			c-5.89-5.27-10.63-10.84-14.8-16.84c-4.16-5.98-9.36-11.45-10.56-19.1C925.81,345.51,924.65,338.07,921.37,330.57z"/>
		<path class="st1" d="M808.95,642.8c-5.69-6.62-10.4-13.12-15.03-19.69c-2.47-3.5-2.48-3.51-6.53-1.96
			c-7.98,3.07-16,6.05-23.9,9.33c-2.67,1.11-3.95,0.56-5.2-1.91c-2.92-5.76-6.08-11.4-9.48-17.71c10.35,1.85,20.04,2.4,29.79,2.07
			c5.83-0.2,11.62-0.74,17.32-1.96c2.76-0.59,4.64-0.32,6.38,2.46c3.45,5.5,7.39,10.71,11.31,15.89c1.34,1.77,1.54,3.14,0.32,5.01
			C812.25,636.89,810.81,639.61,808.95,642.8z"/>
		<path class="st1" d="M1221.51,611.88c8.1-0.14,16.29,0.27,24.33-1.28c0.52,2.11-0.71,3.27-1.41,4.56
			c-2.44,4.5-5.05,8.91-7.4,13.46c-0.99,1.91-1.98,2.27-4,1.54c-8.69-3.14-8.75-3.07-10.76-12.08
			C1221.84,616.14,1220.71,614.25,1221.51,611.88z"/>
		<path class="st1" d="M807.13,609.16c0.67-0.57,0.88-0.88,1.18-0.99c5.99-2.29,5.99-2.29,9.73,3.04c0.49,0.7,1,1.39,1.5,2.08
			c3.97,5.53,3.97,5.53-0.92,11.78C814.31,620.16,810.85,614.73,807.13,609.16z"/>
		<path class="st4" d="M964.83,349.54c-4.21-5.8-8.16-11.77-11.81-18.97c3.98,0,7.01,0.09,10.04-0.03c2.36-0.09,2.86,1.12,2.83,3.16
			c-0.07,5.12-0.02,10.24-0.02,15.36C965.51,349.22,965.17,349.38,964.83,349.54z"/>
		<path class="st1" d="M1197.62,627.41c-3.49,4.61-6.56,8.65-10.1,13.32c-2.96-4.37-5.28-8.56-7.71-13.32
			C1185.78,627.41,1191.24,627.41,1197.62,627.41z"/>
		<path class="st4" d="M1039.81,331.2c-1.79,6.57-4.23,12.88-7.92,18.98c0-5.83,0-11.65,0-17.48c0-1.52,0.8-2.19,2.25-2.11
			C1035.95,330.7,1037.85,330.12,1039.81,331.2z"/>
		<path class="st1" d="M836.01,595.95c-3.44,5.97-6.26,10.87-9.25,16.07c-2.38-2.83-4.15-5.29-5.74-8.24
			C825.66,601.36,830.24,598.96,836.01,595.95z"/>
		<path class="st4" d="M1007.9,123.87c-0.65-0.44-1.53-1.26-1.03-1.74c0.72-0.69,1.31,0.4,1.83,0.94
			C1008.44,123.33,1008.17,123.6,1007.9,123.87z"/>
		<polygon class="st4" points="941.17,101.03 941.06,100.91 941.18,101.07 		"/>
		<path class="st0" d="M1118.29,429.23c7.07,29.6,14.15,59.2,21.22,88.78c-3.76,1.11-35.99,1.42-43.6,0.42
			c7.11-29.77,14.2-59.5,21.29-89.22C1117.56,429.22,1117.93,429.23,1118.29,429.23z M1105.33,511.64c7.52,0,14.19,0.03,20.86-0.02
			c3.75-0.03,3.92-0.24,3.13-3.74c-1.25-5.51-2.61-11-3.92-16.5c-2.43-10.15-4.87-20.3-7.3-30.45c-0.24-0.01-0.48-0.02-0.72-0.02
			C1113.44,477.51,1109.5,494.1,1105.33,511.64z"/>
		<path class="st1" d="M1105.33,511.64c4.16-17.53,8.11-34.13,12.05-50.72c0.24,0.01,0.48,0.02,0.72,0.02
			c2.43,10.15,4.87,20.29,7.3,30.45c1.31,5.5,2.67,10.99,3.92,16.5c0.8,3.5,0.62,3.71-3.13,3.74
			C1119.52,511.67,1112.85,511.64,1105.33,511.64z"/>
	</g>
</g>
<g id="Colors">
</g>
</svg>
