<?xml version="1.0" encoding="UTF-8" standalone="no"?>
<!-- Generator: Adobe Illustrator 24.0.1, SVG Export Plug-In . SVG Version: 6.00 Build 0)  -->

<svg
   xmlns:dc="http://purl.org/dc/elements/1.1/"
   xmlns:cc="http://creativecommons.org/ns#"
   xmlns:rdf="http://www.w3.org/1999/02/22-rdf-syntax-ns#"
   xmlns:svg="http://www.w3.org/2000/svg"
   xmlns="http://www.w3.org/2000/svg"
   xmlns:sodipodi="http://sodipodi.sourceforge.net/DTD/sodipodi-0.dtd"
   xmlns:inkscape="http://www.inkscape.org/namespaces/inkscape"
   version="1.1"
   x="0px"
   y="0px"
   viewBox="0 0 2000 848.45"
   style="enable-background:new 0 0 2000 848.45;"
   xml:space="preserve"
   id="svg434"
   sodipodi:docname="triangle.svg"
   inkscape:version="0.92.5 (2060ec1f9f, 2020-04-08)"><metadata
   id="metadata440"><rdf:RDF><cc:Work
       rdf:about=""><dc:format>image/svg+xml</dc:format><dc:type
         rdf:resource="http://purl.org/dc/dcmitype/StillImage" /><dc:title /></cc:Work></rdf:RDF></metadata><defs
   id="defs438" /><sodipodi:namedview
   pagecolor="#ffffff"
   bordercolor="#666666"
   borderopacity="1"
   objecttolerance="10"
   gridtolerance="10"
   guidetolerance="10"
   inkscape:pageopacity="0"
   inkscape:pageshadow="2"
   inkscape:window-width="1920"
   inkscape:window-height="1053"
   id="namedview436"
   showgrid="false"
   inkscape:zoom="0.61624355"
   inkscape:cx="1096.3929"
   inkscape:cy="234.49503"
   inkscape:window-x="0"
   inkscape:window-y="27"
   inkscape:window-maximized="1"
   inkscape:current-layer="ITA_Orig" />
<style
   type="text/css"
   id="style248">
	.st0{fill-rule:evenodd;clip-rule:evenodd;fill:#0A0703;}
	.st1{fill-rule:evenodd;clip-rule:evenodd;fill:#FDC905;}
	.st2{fill-rule:evenodd;clip-rule:evenodd;fill:#034DA1;}
	.st3{fill-rule:evenodd;clip-rule:evenodd;fill:#FFFFFF;}
	.st4{fill-rule:evenodd;clip-rule:evenodd;fill:#E81B23;}
</style>
<g
   id="Layer_1">
</g>
<g
   id="Final">
	<g
   id="ITA_Orig">
		
		
		
		
		<path
   class="st3"
   d="M1180.63,644.23c-121.59,0-242.26,0-363.85,0c16.22-28.09,32.1-55.6,48.01-83.17    c1.74,0.83,1.01,2.17,1.01,3.15c0.05,19.04,0.03,38.08,0.04,57.12c0,6.15-0.47,5.39,5.6,5.39c18.19,0.02,36.37,0.01,54.55,0.01    c6.23,0,5.6,0.36,5.6-5.48c0.01-56.61,0.03-113.22-0.06-169.83c-0.01-4.09,0.84-7.59,2.94-11.15    c9.32-15.79,18.39-31.72,27.56-47.6c0.93-1.61,1.92-3.18,3.24-5.36c0.87,2.33,0.55,4.16,0.56,5.91    c0.02,40.32,0.01,80.63,0.03,120.94c0,5.52-0.75,4.97,4.88,4.97c18.53,0.02,37.05,0.03,55.58,0c6.44-0.01,5.52,0.76,5.53-5.34    c0.03-40.14,0.02-80.29,0.02-120.43c0-1.64,0-3.28,0-5.03c1.76,0.44,2.03,1.72,2.59,2.68c7.24,12.44,14.37,24.94,21.69,37.33    c1.43,2.43,1.63,4.66,0.99,7.31c-14.89,62.11-29.73,124.23-44.57,186.36c-0.35,1.49-0.56,3.02-0.83,4.47    c1.2,0.84,2.43,0.54,3.59,0.54c19.39,0.02,38.77,0.02,58.16,0.01c4.28,0,4.32-0.03,5.34-4.23c3.86-15.98,7.77-31.95,11.47-47.96    c0.58-2.51,1.49-3.33,4.04-3.31c15.61,0.11,31.22,0.13,46.83-0.02c2.78-0.02,3.76,0.92,4.36,3.52    c3.71,15.84,7.57,31.64,11.4,47.45c1.1,4.53,1.2,4.98,5.57,4.44c6.32-0.79,10.26,1.34,12.59,7.32    C1176.38,637.53,1178.52,640.48,1180.63,644.23z"
   id="path259" />
		
		
		
		
		
		
		
		
		
		
		
		
		
		
		
		
		
		
		
		
		
		
		
		
		
		
		
		
		
		
		
		
		
		
		
		
		
		
		
		
		
		
		
		
		<path
   class="st3"
   d="M1180.63,644.23c-121.59,0-242.26,0-363.85,0c16.22-28.09,32.1-55.6,48.01-83.17    c1.74,0.83,1.01,2.17,1.01,3.15c0.05,19.04,0.03,38.08,0.04,57.12c0,6.15-0.47,5.39,5.6,5.39c18.19,0.02,36.37,0.01,54.55,0.01    c6.23,0,5.6,0.36,5.6-5.48c0.01-56.61,0.03-113.22-0.06-169.83c-0.01-4.09,0.84-7.59,2.94-11.15    c9.32-15.79,18.39-31.72,27.56-47.6c0.93-1.61,1.92-3.18,3.24-5.36c0.87,2.33,0.55,4.16,0.56,5.91    c0.02,40.32,0.01,80.63,0.03,120.94c0,5.52-0.75,4.97,4.88,4.97c18.53,0.02,37.05,0.03,55.58,0c6.44-0.01,5.52,0.76,5.53-5.34    c0.03-40.14,0.02-80.29,0.02-120.43c0-1.64,0-3.28,0-5.03c1.76,0.44,2.03,1.72,2.59,2.68c7.24,12.44,14.37,24.94,21.69,37.33    c1.43,2.43,1.63,4.66,0.99,7.31c-14.89,62.11-29.73,124.23-44.57,186.36c-0.35,1.49-0.56,3.02-0.83,4.47    c1.2,0.84,2.43,0.54,3.59,0.54c19.39,0.02,38.77,0.02,58.16,0.01c4.28,0,4.32-0.03,5.34-4.23c3.86-15.98,7.77-31.95,11.47-47.96    c0.58-2.51,1.49-3.33,4.04-3.31c15.61,0.11,31.22,0.13,46.83-0.02c2.78-0.02,3.76,0.92,4.36,3.52    c3.71,15.84,7.57,31.64,11.4,47.45c1.1,4.53,1.2,4.98,5.57,4.44c6.32-0.79,10.26,1.34,12.59,7.32    C1176.38,637.53,1178.52,640.48,1180.63,644.23z"
   id="path349" />
		
		
		
		
		
		
		
		
		
		
		
		
		
		
		
		
		
		
		
		
		
		
		
		
		
		
		
		
		
		
		
		
		
		
		
		
		
		
		
		
	</g>
</g>
<g
   id="Colors">
</g>
</svg>
