<?xml version="1.0" encoding="UTF-8" standalone="no"?>
<!-- Generator: Adobe Illustrator 24.0.1, SVG Export Plug-In . SVG Version: 6.00 Build 0)  -->

<svg
   xmlns:dc="http://purl.org/dc/elements/1.1/"
   xmlns:cc="http://creativecommons.org/ns#"
   xmlns:rdf="http://www.w3.org/1999/02/22-rdf-syntax-ns#"
   xmlns:svg="http://www.w3.org/2000/svg"
   xmlns="http://www.w3.org/2000/svg"
   xmlns:sodipodi="http://sodipodi.sourceforge.net/DTD/sodipodi-0.dtd"
   xmlns:inkscape="http://www.inkscape.org/namespaces/inkscape"
   version="1.1"
   x="0px"
   y="0px"
   viewBox="0 0 2000 848.45"
   style="enable-background:new 0 0 2000 848.45;"
   xml:space="preserve"
   id="svg434"
   sodipodi:docname="wings.svg"
   inkscape:version="0.92.5 (2060ec1f9f, 2020-04-08)"><metadata
   id="metadata440"><rdf:RDF><cc:Work
       rdf:about=""><dc:format>image/svg+xml</dc:format><dc:type
         rdf:resource="http://purl.org/dc/dcmitype/StillImage" /><dc:title /></cc:Work></rdf:RDF></metadata><defs
   id="defs438" /><sodipodi:namedview
   pagecolor="#ffffff"
   bordercolor="#666666"
   borderopacity="1"
   objecttolerance="10"
   gridtolerance="10"
   guidetolerance="10"
   inkscape:pageopacity="0"
   inkscape:pageshadow="2"
   inkscape:window-width="1920"
   inkscape:window-height="1053"
   id="namedview436"
   showgrid="false"
   inkscape:zoom="1.2324871"
   inkscape:cx="1006.6765"
   inkscape:cy="776.69024"
   inkscape:window-x="0"
   inkscape:window-y="27"
   inkscape:window-maximized="1"
   inkscape:current-layer="ITA_Orig" />
<style
   type="text/css"
   id="style248">
	.st0{fill-rule:evenodd;clip-rule:evenodd;fill:#0A0703;}
	.st1{fill-rule:evenodd;clip-rule:evenodd;fill:#FDC905;}
	.st2{fill-rule:evenodd;clip-rule:evenodd;fill:#034DA1;}
	.st3{fill-rule:evenodd;clip-rule:evenodd;fill:#FFFFFF;}
	.st4{fill-rule:evenodd;clip-rule:evenodd;fill:#E81B23;}
</style>
<g
   id="Layer_1">
</g>
<g
   id="Final">
	<g
   id="ITA_Orig">
		
		<path
   class="st1"
   d="M441,233.22c26.06,0.92,52.11,1.82,78.17,2.78c31.88,1.18,63.76,2.44,95.64,3.62    c22.8,0.85,45.6,1.63,68.4,2.46c28.97,1.06,57.95,1.83,86.9,3.28c18.22,0.92,34.36,7.53,47.6,20.46    c17.83,17.4,24.65,46.63,10.98,71.5c-3.39,6.18-7.33,12-11.3,17.8c-4.27,6.22-8.5,12.47-11.83,19.27    c-18.09,36.88-0.01,81.97,39.01,97.31c5.77,2.27,11.71,3.87,17.89,4.48c2.45,0.24,3.6,1.12,3.45,3.86    c-0.25,4.45-0.03,8.92-0.08,13.38c-0.04,3.66-0.06,3.82-3.95,4.39c-15.27,2.24-30.17,0.74-44.31-5.56    c-28.11-12.51-43.49-34.43-47.41-64.79c-1.56-12.08-0.51-23.96,1.71-35.8c2.2-11.74,1.74-23.29-2.87-34.36    c-7.46-17.93-21.32-28.34-40.12-31.72c-13.14-2.36-26.49-3.55-39.76-5.2c-21.6-2.69-43.21-5.35-64.82-7.97    c-21.1-2.57-42.21-5.04-63.31-7.62c-23.82-2.91-47.63-5.91-71.45-8.83c-20.93-2.56-41.87-5.04-62.8-7.59    c-21.1-2.57-42.19-5.19-63.3-7.77c-18.03-2.21-36.07-4.4-54.11-6.59c-21.1-2.57-42.2-5.14-63.3-7.72    c-18.38-2.24-36.75-4.49-55.13-6.72c-17.53-2.14-35.08-4.09-52.58-6.43c-15.35-2.05-27.12-13.22-30.37-28.24    c-0.82-3.81-0.82-3.89,2.9-3.77c16.97,0.55,33.95,1.1,50.92,1.72c24.51,0.89,49.02,1.85,73.53,2.77    c33.25,1.25,66.5,2.51,99.76,3.74c22.63,0.83,45.26,1.62,67.88,2.43c12.69,0.46,25.37,0.93,38.06,1.39    C441,233.17,441,233.2,441,233.22z"
   id="path253" />
		<path
   class="st1"
   d="M1191.57,488.27c-1.83-4.94-2.56-9.87-3.79-14.65c-1.23-4.81-2.17-9.71-3.57-14.47    c-0.97-3.27-0.42-5.61,1.9-8.27c8.29-9.5,13.5-20.58,15.73-33.02c2.88-16.08,0.81-31.39-6.98-45.86    c-3.34-6.21-7.28-12.02-11.22-17.85c-3.46-5.11-6.87-10.25-9.95-15.61c-16.25-28.21-6.55-61.97,18.13-79.47    c12.24-8.67,25.94-13.22,40.84-13.81c40.46-1.59,80.93-2.94,121.39-4.41c47.32-1.72,94.64-3.48,141.96-5.22    c37.55-1.38,75.1-2.74,112.65-4.12c46.63-1.71,93.27-3.42,139.91-5.14c46.81-1.73,93.62-3.46,140.42-5.17    c1.67-0.06,3.4-0.53,5,0.32c-1.74,16.77-14.52,29.66-31.53,31.73c-32,3.91-64.01,7.72-96,11.63    c-34.89,4.27-69.77,8.64-104.66,12.91c-24,2.94-48.01,5.75-72.01,8.68c-26.55,3.24-53.09,6.59-79.64,9.83    c-24,2.93-48.01,5.76-72.01,8.69c-23.66,2.89-47.3,5.87-70.96,8.76c-21.1,2.58-42.22,5.07-63.32,7.66    c-10.21,1.25-20.47,2.23-30.59,4.02c-32.09,5.68-48.14,32.92-44.21,61.58c1.75,12.77,3.25,25.5,2.48,38.43    C1229.98,451.46,1214.27,476.52,1191.57,488.27z"
   id="path255" />
		
		
		<path
   class="st1"
   d="M734.19,335.1c-7.23,11.62-12.22,23.96-15.37,37.04c-0.24,1.02-0.52,2-1.28,2.75    c-3.67,3.61-7.1,7.44-10.28,11.5c-1.53,1.94-3.52,0.95-5.25,0.64c-9.77-1.78-19.52-3.71-29.28-5.56    c-37.21-7.01-74.42-13.99-111.63-21.02c-33.84-6.38-67.66-12.82-101.5-19.19c-35.52-6.69-71.06-13.31-106.57-20.01    c-35.52-6.7-71.02-13.47-106.54-20.19c-25.92-4.9-51.87-9.69-77.78-14.67c-10.26-1.97-18.99-6.81-25.54-15.14    c-2.33-2.96-4.26-6.18-4.99-9.9c0.25-0.21,0.35-0.33,0.48-0.4c0.15-0.08,0.32-0.19,0.47-0.17    c196.48,24.03,392.96,48.07,589.43,72.14c1.52,0.19,2.99,0.74,4.46,1.17C733.32,334.18,733.54,334.52,734.19,335.1z"
   id="path261" />
		<path
   class="st1"
   d="M1864.48,260.7c-2.55,8.09-7.51,13.79-13.98,18.31c-5.12,3.58-10.82,6-16.94,7.16    c-36.53,6.95-73.07,13.81-109.6,20.68c-40.91,7.7-81.83,15.37-122.75,23.09c-39.23,7.39-78.45,14.82-117.68,22.23    c-39.56,7.48-79.13,14.95-118.69,22.41c-21.72,4.1-43.45,8.14-65.15,12.34c-2.74,0.53-4.16-0.4-6.11-2.27    c-7.26-6.97-11.55-15.28-14.02-25.01c-1.89-7.45-5.67-14.31-9.43-21.07c-0.72-1.29-2-2.43-1.64-4.29    c5.39-2.29,11.23-2.64,16.95-3.35c23.81-2.95,47.65-5.74,71.47-8.64c21.1-2.57,42.19-5.25,63.28-7.82    c21.1-2.58,42.21-5.05,63.3-7.63c21.1-2.58,42.18-5.24,63.28-7.81c20.93-2.56,41.87-5.02,62.8-7.57    c21.1-2.57,42.19-5.19,63.29-7.77c18.03-2.21,36.07-4.39,54.11-6.6c21.44-2.62,42.87-5.28,64.31-7.89    c21.1-2.57,42.2-5.1,63.31-7.61C1857.64,261.23,1860.65,260.37,1864.48,260.7z"
   id="path263" />
		
		<path
   class="st1"
   d="M701.6,394.64c-5.09,8.93-9.16,17.44-10.96,26.76c-0.84,4.35-2.37,8.08-5.36,11.38    c-2.31,2.53-3.94,5.6-5.48,8.67c-2.01,3.99-2.01,3.99-6.53,2.85c-11.79-2.98-23.58-5.95-35.37-8.94    c-107.39-27.33-214.77-54.66-322.16-81.99c-38.17-9.71-76.36-19.38-114.54-29.07c-6.69-1.7-13.11-3.99-18.82-7.98    c-6.67-4.66-11.57-10.65-13.9-18.56c-0.28-0.96-0.73-1.92,0.14-3.55C345.94,327.63,523.46,361.08,701.6,394.64z"
   id="path267" />
		<path
   class="st1"
   d="M1834.95,293.78c-1.16,7.08-4.16,12.34-8.44,16.92c-6.17,6.6-13.95,10.43-22.57,12.66    c-14.92,3.86-29.87,7.61-44.81,11.41c-91.11,23.19-182.23,46.4-273.35,69.56c-52.28,13.29-104.57,26.53-156.86,39.79    c-4.13,1.04-4.15,1.04-6.29-2.66c-2.24-3.86-4.64-7.63-7.56-11.01c-1.52-1.76-2.38-3.67-2.8-5.91    c-1.76-9.53-5.27-18.42-10.02-26.84c-0.5-0.89-1.16-1.7-1.06-3.15C1478.81,361.01,1656.49,327.46,1834.95,293.78z"
   id="path269" />
		<path
   class="st1"
   d="M1802.71,331.87c-1.81,9.98-7.09,17.29-14.69,23.09c-4.55,3.46-9.68,5.77-15.11,7.51    c-106.56,33.97-213.1,67.95-319.65,101.94c-39.49,12.6-78.97,25.21-118.46,37.77c-1.94,0.61-3.81,1.58-5.92,1.54    c-1.06-1.19-0.1-2.26,0.2-3.33c4.11-14.73,4.21-29.42-0.29-44.11c-1.23-4.01-1.99-4,3.19-5.31    c44.32-11.26,88.63-22.54,132.95-33.8c110.38-28.05,220.77-56.1,331.16-84.11C1798.04,332.55,1799.95,331.68,1802.71,331.87z"
   id="path271" />
		<path
   class="st1"
   d="M674.4,452.08c-5.9,17.32-6.21,34.17-0.66,51.23c-2.37,0.96-4.2-0.37-5.99-0.94    c-54.36-17.3-108.7-34.68-163.05-52.02c-91.73-29.26-183.45-58.52-275.2-87.72c-8.17-2.6-15.5-6.45-21.34-12.82    c-4.59-5-7.87-10.68-8.9-18.41C357.85,371.67,515.97,411.83,674.4,452.08z"
   id="path273" />
		
		<path
   class="st1"
   d="M815.73,696.26c-7.27-7-14.17-13.67-21.11-20.29c-1.21-1.15-1.35-2.07-0.26-3.45    c4.76-6.08,9.46-12.2,14.07-18.39c1.32-1.77,2.95-2.04,4.94-2.02c5.32,0.07,10.64,0.17,15.96-0.03c3.01-0.12,5.11,0.95,7.23,3    c14.41,13.88,30.4,25.63,47.92,35.3c26.72,14.76,55.18,24.25,85.57,27.53c72.83,7.86,136.11-13.32,189.87-62.99    c2.02-1.87,3.92-2.96,6.76-2.85c5.14,0.21,10.3,0.15,15.44,0.02c2.44-0.06,4.16,0.6,5.65,2.67c4,5.57,8.15,11.04,12.38,16.44    c1.32,1.69,1.31,2.77-0.29,4.27c-6.26,5.87-12.47,11.79-18.55,17.84c-1.75,1.74-2.86,1.69-4.68,0.16    c-6.44-5.41-13.01-10.65-19.54-15.94c-3.65-2.95-2.84-3.36-6.72-0.22c-7.34,5.95-14.97,11.49-23.07,16.35    c-2.17,1.3-2.63,2.54-1.75,4.93c3.03,8.19,5.75,16.5,8.79,24.7c0.98,2.64,0.51,3.95-2.1,5.15c-7.46,3.46-14.86,7.08-22.15,10.88    c-2.46,1.28-3.56,0.65-4.88-1.47c-4.45-7.13-9.04-14.16-13.62-21.22c-2.21-3.4-2.25-3.4-6.05-2.01    c-8.53,3.13-17.17,5.9-25.93,8.33c-4.91,1.36-4.25,0.71-4.22,5.39c0.05,8.4,0.16,16.81,0.31,25.22c0.06,3.41,0.11,4.11-3.7,4.56    c-8.17,0.95-16.31,2.21-24.42,3.55c-2.48,0.41-3.37-0.49-3.92-2.68c-2.05-8.14-4.17-16.27-6.32-24.39    c-1.4-5.29-1.25-4.41-5.88-4.12c-9.09,0.58-18.17,0.68-27.25-0.02c-4.01-0.31-4.06-0.25-5.21,3.71    c-2.33,8.07-4.61,16.15-6.94,24.21c-1.17,4.06-1.22,4.16-5.19,3.54c-7.96-1.24-15.88-2.73-23.85-3.85    c-2.44-0.35-3.14-1.26-3.03-3.6c0.4-8.4,0.64-16.8,0.94-25.2c0.18-4.9,0.19-4.96-4.55-6.16c-9.15-2.32-18.16-5.08-26.92-8.57    c-2.45-0.98-3.64-0.5-4.97,1.63c-4.65,7.41-9.53,14.67-14.19,22.07c-1.43,2.27-2.6,2.92-5.26,1.52    c-7.27-3.84-14.71-7.36-22.16-10.86c-2.29-1.07-2.93-2.17-1.99-4.7c3.03-8.2,5.67-16.53,8.69-24.73c1-2.72,0.75-4.22-1.93-5.82    c-7.95-4.76-15.44-10.22-22.81-15.84c-3.73-2.85-2.83-2.96-6.77,0.24C830.76,684.01,823.45,689.97,815.73,696.26z"
   id="path277" />
		<path
   class="st1"
   d="M894.58,331.32c-3.55,5.96-7.79,11.49-12.12,16.96c-0.99,1.25-2.32,1.3-3.71,1.3c-3.26,0-6.53,0.13-9.78-0.03    c-2.56-0.13-3.27,0.97-3.17,3.34c0.14,3.42-0.11,6.87,0.08,10.29c0.15,2.61-0.65,4.51-2.55,6.34c-3.96,3.79-7.75,7.77-11.47,11.8    c-9.69,10.49-14.36,23.1-15.75,37.17c-1.46,14.73-0.23,29.02,6.29,42.59c-1.69,0.76-2.6-0.2-3.54-0.74    c-29.36-16.73-41.6-54.51-25.56-84.64c2.99-5.61,6.45-10.92,10.01-16.17c3.85-5.67,7.7-11.33,11.21-17.24    c17.03-28.68,9.74-66.24-17.34-87.24c-5.86-4.55-12.21-8.22-19.06-11.07c-1.38-0.57-3.03-0.69-4.09-2.06    c0.08-1.85,1.46-3.02,2.43-4.34c24.92-33.8,72.57-33.62,97.53,0.3c6.31,8.58,10.04,18.27,12.78,28.42    c0.94,3.49,0.59,3.88-2.97,3.9c-11.15,0.05-22.3,0.01-33.45,0.03c-4.9,0.01-4.94,0.03-4.95,4.66c-0.02,16.98-0.02,33.96,0,50.94    c0.01,4.64,0.05,4.66,4.88,4.67c6.86,0.02,13.72-0.02,20.58,0.03C891.98,330.53,893.22,330.09,894.58,331.32z"
   id="path279" />
		<path
   class="st1"
   d="M1181.81,444.7c-1.56-1.33-1.54-2.58-1.82-3.74c-6.87-28.82-13.74-57.64-20.62-86.46    c-0.16-0.67-0.46-1.32-0.51-1.99c-0.21-2.81-1.72-3.54-4.41-3.5c-10.29,0.14-20.58-0.05-30.87,0.12    c-2.89,0.05-4.77-0.87-6.45-3.16c-3.51-4.8-7.16-9.48-10-14.91c2.05-0.88,3.75-0.53,5.4-0.55c5.49-0.05,10.98-0.09,16.47,0.02    c2.33,0.05,3.41-0.56,3.4-3.15c-0.08-18.01-0.07-36.02-0.01-54.02c0.01-2.57-1.12-3.18-3.43-3.16    c-8.92,0.07-17.83,0.03-26.75,0.03c-1.37,0-2.75-0.1-4.12,0.02c-2.77,0.23-3.24-1.16-2.61-3.45c0.77-2.8,1.44-5.64,2.36-8.4    c3.78-11.43,9.87-21.44,18.68-29.73c27.84-26.19,71.68-20.02,91.85,13.01c-1.13,1.71-3.18,1.75-4.83,2.47    c-22.87,9.92-38.04,26.44-43.52,51.1c-3.28,14.74-1.46,28.95,5.2,42.53c3.41,6.95,7.78,13.31,12.14,19.67    c4.56,6.65,9.31,13.2,12.61,20.58C1200.54,401.69,1196.9,423.67,1181.81,444.7z"
   id="path281" />
		<path
   class="st1"
   d="M722.59,403.79c-0.05-22.88,5.24-43.03,15.86-61.78c2.73-4.82,2.81-4.88,7.53-1.61    c14.78,10.25,20.47,24.84,19.4,42.29c-0.5,8.19-2.14,16.31-2.83,24.5c-2,23.85,2.4,46.17,17.17,65.58    c14.17,18.63,33.21,29.25,56.21,32.95c8.7,1.4,17.4,1.45,26.12,0.14c3.66-0.55,3.69-0.44,3.77,3.29c0.04,1.89,0.02,3.77,0.01,5.66    c-0.02,4.81-0.02,4.83-4.85,6.12c-13.03,3.47-26.28,3.4-39.28,0.71c-51.2-10.59-83.03-41.76-96.21-92.15    C723.19,420.67,722.48,411.58,722.59,403.79z"
   id="path283" />
		<path
   class="st1"
   d="M1198,516.28c-1.41-5.78-2.71-11.44-4.2-17.05c-0.54-2.03-0.02-3.12,1.83-4.1c4.55-2.41,8.8-5.32,12.76-8.62    c17.53-14.61,27.43-33.35,30.49-55.89c1.89-13.92,0.84-27.66-1.65-41.41c-1.97-10.85-1.15-21.52,3.61-31.66    c3.59-7.65,8.99-13.71,16.18-18.17c3.64-2.26,3.71-2.27,5.8,1.35c7.87,13.65,13.12,28.22,15.21,43.87    c4.6,34.49-3.44,65.67-24.84,93.17c-13.35,17.15-30.34,29.57-50.61,37.45C1201.31,515.72,1200.08,516.32,1198,516.28z"
   id="path285" />
		<path
   class="st1"
   d="M715.56,388.49c-3.16,42.44,9.24,78.88,40.07,107.71c30.88,28.87,67.65,39.55,110.18,31.54    c0,3.6,0.03,7.45-0.01,11.3c-0.03,2.16-1.89,2.15-3.29,2.51c-7.81,2.03-15.76,3.41-23.8,3.97c-30.65,2.13-59.76-3.34-86.68-18.55    c-21.1-11.92-38.26-27.96-48.36-50.32c-13.3-29.43-10.58-57.65,8.14-84.15C712.76,391.18,713.61,389.68,715.56,388.49z"
   id="path287" />
		<path
   class="st1"
   d="M687.86,443.45c0.76,6.01,1.16,12.13,2.63,18.1c5.83,23.76,19.18,42.65,37.83,57.96    c22.45,18.44,48.44,28.8,77.12,32.52c17.82,2.31,35.58,1.8,53.2-1.91c0.99-0.21,2.01-0.5,3.18,0c-0.14,2.29-2.24,2.8-3.68,3.7    c-15.99,9.94-33.31,16.21-52.14,17.41c-32.16,2.05-61.96-5.2-88.59-23.84c-15.97-11.18-28.3-25.54-35.38-43.79    c-7.81-20.14-6.43-39.97,4.16-58.97C686.5,444.1,686.75,443.33,687.86,443.45z"
   id="path289" />
		<path
   class="st1"
   d="M1286.2,388.11c2.28,1.55,3.24,3.18,4.28,4.68c18.15,26.09,20.84,53.82,8.09,82.83    c-8.98,20.42-24.08,35.61-42.67,47.52c-14.59,9.35-30.5,15.48-47.38,19.18c-4.03,0.88-4.06,0.86-5.1-3.25    c-0.92-3.65-1.91-7.29-2.66-10.98c-1-4.9-1.59-3.86,3.22-5.68c10.81-4.08,20.98-9.37,30.2-16.32    c30.99-23.36,48.43-54.35,52.12-93.04c0.39-4.1,0.77-8.2,0.6-12.32C1286.74,396.8,1286.47,392.87,1286.2,388.11z"
   id="path291" />
		<path
   class="st1"
   d="M853.12,565.42c-3.65,8.72-8.34,14.75-15.02,19.45c-21.16,14.88-44.72,21.13-70.36,20.03    c-19.58-0.84-37.86-6.14-54.3-16.97c-16.13-10.62-27.99-24.61-33.08-43.67c-2.19-8.21-2.35-16.49-0.76-25.14    c18.3,29.2,44.93,46.63,77.46,55.23C789.57,582.96,821.51,581.36,853.12,565.42z"
   id="path293" />
		<path
   class="st1"
   d="M1128.49,653.1c-37.95,29.13-80.64,44.14-128.16,44.6c-49.23,0.47-93.49-14.58-132.58-44.39    c0.06-0.39,0.12-0.79,0.18-1.18c5.91,0,11.84,0.35,17.71-0.09c7.3-0.54,13.52,1.45,19.9,5.04c23.48,13.18,48.84,20.47,75.69,22.75    c40.88,3.48,79.01-5.24,114.57-25.5c2.61-1.49,5.19-2.33,8.24-2.25c6.86,0.16,13.72,0.02,20.58,0.08    C1125.73,652.16,1126.98,651.67,1128.49,653.1z"
   id="path295" />
		<path
   class="st1"
   d="M1314.34,443.37c7.63,11.47,10.75,24.04,10.22,37.55c-0.83,21.18-10.39,38.48-24.67,53.35    c-17.39,18.1-39.05,28.65-63.34,34.12c-7.04,1.59-14.18,2.48-21.36,3c-4.04,0.29-4.08,0.18-5.07-3.87c-1.06-4.33-2.1-8.66-3.08-13    c-0.87-3.82-0.84-3.86,2.97-4.72c15.64-3.54,30.53-9.02,44.44-17.05c14.25-8.23,26.8-18.46,37.1-31.36    C1305.09,484.43,1312.89,465.23,1314.34,443.37z"
   id="path297" />
		
		<path
   class="st1"
   d="M1322.32,519.11c1.47,8.34,1.41,16.59-0.72,24.78c-4.09,15.67-13.04,28.16-25.46,38.24    c-14.58,11.85-31.45,18.47-49.91,21.34c-8,1.25-16.03,1.28-24.09,1.13c-2.24-0.04-3.41-0.76-3.91-3.03    c-1.62-7.34-3.4-14.63-5.22-22.31C1258.57,575.72,1296.38,558.51,1322.32,519.11z"
   id="path301" />
		
		
		
		<path
   class="st1"
   d="M1082.1,652.33c-28.04,15.12-58.13,21.76-89.8,20.77c-27.66-0.87-53.99-7.34-78.48-20.77    C969.91,652.33,1026,652.33,1082.1,652.33z"
   id="path309" />
		<path
   class="st1"
   d="M845.01,652.64c6.36-1.38,10.43,0.35,14.6,3.76c30.99,25.27,66.37,41.15,105.93,46.63    c64.46,8.92,122.38-6.96,172.98-48.19c4.09-3.33,8.15-2.46,12.63-2.22c-20.45,19.38-43.9,34.02-70.12,44.13    c-45.52,17.56-92.07,20.35-139.32,8.33C905.39,695.84,873.43,678.32,845.01,652.64z"
   id="path311" />
		
		
		
		<path
   class="st1"
   d="M808.95,642.8c-5.69-6.62-10.4-13.12-15.03-19.69c-2.47-3.5-2.48-3.51-6.53-1.96    c-7.98,3.07-16,6.05-23.9,9.33c-2.67,1.11-3.95,0.56-5.2-1.91c-2.92-5.76-6.08-11.4-9.48-17.71c10.35,1.85,20.04,2.4,29.79,2.07    c5.83-0.2,11.62-0.74,17.32-1.96c2.76-0.59,4.64-0.32,6.38,2.46c3.45,5.5,7.39,10.71,11.31,15.89c1.34,1.77,1.54,3.14,0.32,5.01    C812.25,636.89,810.81,639.61,808.95,642.8z"
   id="path319" />
		<path
   class="st1"
   d="M1221.51,611.88c8.1-0.14,16.29,0.27,24.33-1.28c0.52,2.11-0.71,3.27-1.41,4.56    c-2.44,4.5-5.05,8.91-7.4,13.46c-0.99,1.91-1.98,2.27-4,1.54c-8.69-3.14-8.75-3.07-10.76-12.08    C1221.84,616.14,1220.71,614.25,1221.51,611.88z"
   id="path321" />
		<path
   class="st1"
   d="M807.13,609.16c0.67-0.57,0.88-0.88,1.18-0.99c5.99-2.29,5.99-2.29,9.73,3.04c0.49,0.7,1,1.39,1.5,2.08    c3.97,5.53,3.97,5.53-0.92,11.78C814.31,620.16,810.85,614.73,807.13,609.16z"
   id="path323" />
		
		<path
   class="st1"
   d="M1197.62,627.41c-3.49,4.61-6.56,8.65-10.1,13.32c-2.96-4.37-5.28-8.56-7.71-13.32    C1185.78,627.41,1191.24,627.41,1197.62,627.41z"
   id="path327" />
		
		<path
   class="st1"
   d="M836.01,595.95c-3.44,5.97-6.26,10.87-9.25,16.07c-2.38-2.83-4.15-5.29-5.74-8.24    C825.66,601.36,830.24,598.96,836.01,595.95z"
   id="path331" />
		
		
		
		<path
   class="st1"
   d="M1105.33,511.64c4.16-17.53,8.11-34.13,12.05-50.72c0.24,0.01,0.48,0.02,0.72,0.02    c2.43,10.15,4.87,20.29,7.3,30.45c1.31,5.5,2.67,10.99,3.92,16.5c0.8,3.5,0.62,3.71-3.13,3.74    C1119.52,511.67,1112.85,511.64,1105.33,511.64z"
   id="path339" />
		
		<path
   class="st1"
   d="M441,233.22c26.06,0.92,52.11,1.82,78.17,2.78c31.88,1.18,63.76,2.44,95.64,3.62    c22.8,0.85,45.6,1.63,68.4,2.46c28.97,1.06,57.95,1.83,86.9,3.28c18.22,0.92,34.36,7.53,47.6,20.46    c17.83,17.4,24.65,46.63,10.98,71.5c-3.39,6.18-7.33,12-11.3,17.8c-4.27,6.22-8.5,12.47-11.83,19.27    c-18.09,36.88-0.01,81.97,39.01,97.31c5.77,2.27,11.71,3.87,17.89,4.48c2.45,0.24,3.6,1.12,3.45,3.86    c-0.25,4.45-0.03,8.92-0.08,13.38c-0.04,3.66-0.06,3.82-3.95,4.39c-15.27,2.24-30.17,0.74-44.31-5.56    c-28.11-12.51-43.49-34.43-47.41-64.79c-1.56-12.08-0.51-23.96,1.71-35.8c2.2-11.74,1.74-23.29-2.87-34.36    c-7.46-17.93-21.32-28.34-40.12-31.72c-13.14-2.36-26.49-3.55-39.76-5.2c-21.6-2.69-43.21-5.35-64.82-7.97    c-21.1-2.57-42.21-5.04-63.31-7.62c-23.82-2.91-47.63-5.91-71.45-8.83c-20.93-2.56-41.87-5.04-62.8-7.59    c-21.1-2.57-42.19-5.19-63.3-7.77c-18.03-2.21-36.07-4.4-54.11-6.59c-21.1-2.57-42.2-5.14-63.3-7.72    c-18.38-2.24-36.75-4.49-55.13-6.72c-17.53-2.14-35.08-4.09-52.58-6.43c-15.35-2.05-27.12-13.22-30.37-28.24    c-0.82-3.81-0.82-3.89,2.9-3.77c16.97,0.55,33.95,1.1,50.92,1.72c24.51,0.89,49.02,1.85,73.53,2.77    c33.25,1.25,66.5,2.51,99.76,3.74c22.63,0.83,45.26,1.62,67.88,2.43c12.69,0.46,25.37,0.93,38.06,1.39    C441,233.17,441,233.2,441,233.22z"
   id="path343" />
		<path
   class="st1"
   d="M1191.57,488.27c-1.83-4.94-2.56-9.87-3.79-14.65c-1.23-4.81-2.17-9.71-3.57-14.47    c-0.97-3.27-0.42-5.61,1.9-8.27c8.29-9.5,13.5-20.58,15.73-33.02c2.88-16.08,0.81-31.39-6.98-45.86    c-3.34-6.21-7.28-12.02-11.22-17.85c-3.46-5.11-6.87-10.25-9.95-15.61c-16.25-28.21-6.55-61.97,18.13-79.47    c12.24-8.67,25.94-13.22,40.84-13.81c40.46-1.59,80.93-2.94,121.39-4.41c47.32-1.72,94.64-3.48,141.96-5.22    c37.55-1.38,75.1-2.74,112.65-4.12c46.63-1.71,93.27-3.42,139.91-5.14c46.81-1.73,93.62-3.46,140.42-5.17    c1.67-0.06,3.4-0.53,5,0.32c-1.74,16.77-14.52,29.66-31.53,31.73c-32,3.91-64.01,7.72-96,11.63    c-34.89,4.27-69.77,8.64-104.66,12.91c-24,2.94-48.01,5.75-72.01,8.68c-26.55,3.24-53.09,6.59-79.64,9.83    c-24,2.93-48.01,5.76-72.01,8.69c-23.66,2.89-47.3,5.87-70.96,8.76c-21.1,2.58-42.22,5.07-63.32,7.66    c-10.21,1.25-20.47,2.23-30.59,4.02c-32.09,5.68-48.14,32.92-44.21,61.58c1.75,12.77,3.25,25.5,2.48,38.43    C1229.98,451.46,1214.27,476.52,1191.57,488.27z"
   id="path345" />
		
		
		<path
   class="st1"
   d="M734.19,335.1c-7.23,11.62-12.22,23.96-15.37,37.04c-0.24,1.02-0.52,2-1.28,2.75    c-3.67,3.61-7.1,7.44-10.28,11.5c-1.53,1.94-3.52,0.95-5.25,0.64c-9.77-1.78-19.52-3.71-29.28-5.56    c-37.21-7.01-74.42-13.99-111.63-21.02c-33.84-6.38-67.66-12.82-101.5-19.19c-35.52-6.69-71.06-13.31-106.57-20.01    c-35.52-6.7-71.02-13.47-106.54-20.19c-25.92-4.9-51.87-9.69-77.78-14.67c-10.26-1.97-18.99-6.81-25.54-15.14    c-2.33-2.96-4.26-6.18-4.99-9.9c0.25-0.21,0.35-0.33,0.48-0.4c0.15-0.08,0.32-0.19,0.47-0.17    c196.48,24.03,392.96,48.07,589.43,72.14c1.52,0.19,2.99,0.74,4.46,1.17C733.32,334.18,733.54,334.52,734.19,335.1z"
   id="path351" />
		<path
   class="st1"
   d="M1864.48,260.7c-2.55,8.09-7.51,13.79-13.98,18.31c-5.12,3.58-10.82,6-16.94,7.16    c-36.53,6.95-73.07,13.81-109.6,20.68c-40.91,7.7-81.83,15.37-122.75,23.09c-39.23,7.39-78.45,14.82-117.68,22.23    c-39.56,7.48-79.13,14.95-118.69,22.41c-21.72,4.1-43.45,8.14-65.15,12.34c-2.74,0.53-4.16-0.4-6.11-2.27    c-7.26-6.97-11.55-15.28-14.02-25.01c-1.89-7.45-5.67-14.31-9.43-21.07c-0.72-1.29-2-2.43-1.64-4.29    c5.39-2.29,11.23-2.64,16.95-3.35c23.81-2.95,47.65-5.74,71.47-8.64c21.1-2.57,42.19-5.25,63.28-7.82    c21.1-2.58,42.21-5.05,63.3-7.63c21.1-2.58,42.18-5.24,63.28-7.81c20.93-2.56,41.87-5.02,62.8-7.57    c21.1-2.57,42.19-5.19,63.29-7.77c18.03-2.21,36.07-4.39,54.11-6.6c21.44-2.62,42.87-5.28,64.31-7.89    c21.1-2.57,42.2-5.1,63.31-7.61C1857.64,261.23,1860.65,260.37,1864.48,260.7z"
   id="path353" />
		
		<path
   class="st1"
   d="M701.6,394.64c-5.09,8.93-9.16,17.44-10.96,26.76c-0.84,4.35-2.37,8.08-5.36,11.38    c-2.31,2.53-3.94,5.6-5.48,8.67c-2.01,3.99-2.01,3.99-6.53,2.85c-11.79-2.98-23.58-5.95-35.37-8.94    c-107.39-27.33-214.77-54.66-322.16-81.99c-38.17-9.71-76.36-19.38-114.54-29.07c-6.69-1.7-13.11-3.99-18.82-7.98    c-6.67-4.66-11.57-10.65-13.9-18.56c-0.28-0.96-0.73-1.92,0.14-3.55C345.94,327.63,523.46,361.08,701.6,394.64z"
   id="path357" />
		<path
   class="st1"
   d="M1834.95,293.78c-1.16,7.08-4.16,12.34-8.44,16.92c-6.17,6.6-13.95,10.43-22.57,12.66    c-14.92,3.86-29.87,7.61-44.81,11.41c-91.11,23.19-182.23,46.4-273.35,69.56c-52.28,13.29-104.57,26.53-156.86,39.79    c-4.13,1.04-4.15,1.04-6.29-2.66c-2.24-3.86-4.64-7.63-7.56-11.01c-1.52-1.76-2.38-3.67-2.8-5.91    c-1.76-9.53-5.27-18.42-10.02-26.84c-0.5-0.89-1.16-1.7-1.06-3.15C1478.81,361.01,1656.49,327.46,1834.95,293.78z"
   id="path359" />
		<path
   class="st1"
   d="M1802.71,331.87c-1.81,9.98-7.09,17.29-14.69,23.09c-4.55,3.46-9.68,5.77-15.11,7.51    c-106.56,33.97-213.1,67.95-319.65,101.94c-39.49,12.6-78.97,25.21-118.46,37.77c-1.94,0.61-3.81,1.58-5.92,1.54    c-1.06-1.19-0.1-2.26,0.2-3.33c4.11-14.73,4.21-29.42-0.29-44.11c-1.23-4.01-1.99-4,3.19-5.31    c44.32-11.26,88.63-22.54,132.95-33.8c110.38-28.05,220.77-56.1,331.16-84.11C1798.04,332.55,1799.95,331.68,1802.71,331.87z"
   id="path361" />
		<path
   class="st1"
   d="M674.4,452.08c-5.9,17.32-6.21,34.17-0.66,51.23c-2.37,0.96-4.2-0.37-5.99-0.94    c-54.36-17.3-108.7-34.68-163.05-52.02c-91.73-29.26-183.45-58.52-275.2-87.72c-8.17-2.6-15.5-6.45-21.34-12.82    c-4.59-5-7.87-10.68-8.9-18.41C357.85,371.67,515.97,411.83,674.4,452.08z"
   id="path363" />
		
		<path
   class="st1"
   d="M815.73,696.26c-7.27-7-14.17-13.67-21.11-20.29c-1.21-1.15-1.35-2.07-0.26-3.45    c4.76-6.08,9.46-12.2,14.07-18.39c1.32-1.77,2.95-2.04,4.94-2.02c5.32,0.07,10.64,0.17,15.96-0.03c3.01-0.12,5.11,0.95,7.23,3    c14.41,13.88,30.4,25.63,47.92,35.3c26.72,14.76,55.18,24.25,85.57,27.53c72.83,7.86,136.11-13.32,189.87-62.99    c2.02-1.87,3.92-2.96,6.76-2.85c5.14,0.21,10.3,0.15,15.44,0.02c2.44-0.06,4.16,0.6,5.65,2.67c4,5.57,8.15,11.04,12.38,16.44    c1.32,1.69,1.31,2.77-0.29,4.27c-6.26,5.87-12.47,11.79-18.55,17.84c-1.75,1.74-2.86,1.69-4.68,0.16    c-6.44-5.41-13.01-10.65-19.54-15.94c-3.65-2.95-2.84-3.36-6.72-0.22c-7.34,5.95-14.97,11.49-23.07,16.35    c-2.17,1.3-2.63,2.54-1.75,4.93c3.03,8.19,5.75,16.5,8.79,24.7c0.98,2.64,0.51,3.95-2.1,5.15c-7.46,3.46-14.86,7.08-22.15,10.88    c-2.46,1.28-3.56,0.65-4.88-1.47c-4.45-7.13-9.04-14.16-13.62-21.22c-2.21-3.4-2.25-3.4-6.05-2.01    c-8.53,3.13-17.17,5.9-25.93,8.33c-4.91,1.36-4.25,0.71-4.22,5.39c0.05,8.4,0.16,16.81,0.31,25.22c0.06,3.41,0.11,4.11-3.7,4.56    c-8.17,0.95-16.31,2.21-24.42,3.55c-2.48,0.41-3.37-0.49-3.92-2.68c-2.05-8.14-4.17-16.27-6.32-24.39    c-1.4-5.29-1.25-4.41-5.88-4.12c-9.09,0.58-18.17,0.68-27.25-0.02c-4.01-0.31-4.06-0.25-5.21,3.71    c-2.33,8.07-4.61,16.15-6.94,24.21c-1.17,4.06-1.22,4.16-5.19,3.54c-7.96-1.24-15.88-2.73-23.85-3.85    c-2.44-0.35-3.14-1.26-3.03-3.6c0.4-8.4,0.64-16.8,0.94-25.2c0.18-4.9,0.19-4.96-4.55-6.16c-9.15-2.32-18.16-5.08-26.92-8.57    c-2.45-0.98-3.64-0.5-4.97,1.63c-4.65,7.41-9.53,14.67-14.19,22.07c-1.43,2.27-2.6,2.92-5.26,1.52    c-7.27-3.84-14.71-7.36-22.16-10.86c-2.29-1.07-2.93-2.17-1.99-4.7c3.03-8.2,5.67-16.53,8.69-24.73c1-2.72,0.75-4.22-1.93-5.82    c-7.95-4.76-15.44-10.22-22.81-15.84c-3.73-2.85-2.83-2.96-6.77,0.24C830.76,684.01,823.45,689.97,815.73,696.26z"
   id="path367" />
		<path
   class="st1"
   d="M894.58,331.32c-3.55,5.96-7.79,11.49-12.12,16.96c-0.99,1.25-2.32,1.3-3.71,1.3c-3.26,0-6.53,0.13-9.78-0.03    c-2.56-0.13-3.27,0.97-3.17,3.34c0.14,3.42-0.11,6.87,0.08,10.29c0.15,2.61-0.65,4.51-2.55,6.34c-3.96,3.79-7.75,7.77-11.47,11.8    c-9.69,10.49-14.36,23.1-15.75,37.17c-1.46,14.73-0.23,29.02,6.29,42.59c-1.69,0.76-2.6-0.2-3.54-0.74    c-29.36-16.73-41.6-54.51-25.56-84.64c2.99-5.61,6.45-10.92,10.01-16.17c3.85-5.67,7.7-11.33,11.21-17.24    c17.03-28.68,9.74-66.24-17.34-87.24c-5.86-4.55-12.21-8.22-19.06-11.07c-1.38-0.57-3.03-0.69-4.09-2.06    c0.08-1.85,1.46-3.02,2.43-4.34c24.92-33.8,72.57-33.62,97.53,0.3c6.31,8.58,10.04,18.27,12.78,28.42    c0.94,3.49,0.59,3.88-2.97,3.9c-11.15,0.05-22.3,0.01-33.45,0.03c-4.9,0.01-4.94,0.03-4.95,4.66c-0.02,16.98-0.02,33.96,0,50.94    c0.01,4.64,0.05,4.66,4.88,4.67c6.86,0.02,13.72-0.02,20.58,0.03C891.98,330.53,893.22,330.09,894.58,331.32z"
   id="path369" />
		<path
   class="st1"
   d="M1181.81,444.7c-1.56-1.33-1.54-2.58-1.82-3.74c-6.87-28.82-13.74-57.64-20.62-86.46    c-0.16-0.67-0.46-1.32-0.51-1.99c-0.21-2.81-1.72-3.54-4.41-3.5c-10.29,0.14-20.58-0.05-30.87,0.12    c-2.89,0.05-4.77-0.87-6.45-3.16c-3.51-4.8-7.16-9.48-10-14.91c2.05-0.88,3.75-0.53,5.4-0.55c5.49-0.05,10.98-0.09,16.47,0.02    c2.33,0.05,3.41-0.56,3.4-3.15c-0.08-18.01-0.07-36.02-0.01-54.02c0.01-2.57-1.12-3.18-3.43-3.16    c-8.92,0.07-17.83,0.03-26.75,0.03c-1.37,0-2.75-0.1-4.12,0.02c-2.77,0.23-3.24-1.16-2.61-3.45c0.77-2.8,1.44-5.64,2.36-8.4    c3.78-11.43,9.87-21.44,18.68-29.73c27.84-26.19,71.68-20.02,91.85,13.01c-1.13,1.71-3.18,1.75-4.83,2.47    c-22.87,9.92-38.04,26.44-43.52,51.1c-3.28,14.74-1.46,28.95,5.2,42.53c3.41,6.95,7.78,13.31,12.14,19.67    c4.56,6.65,9.31,13.2,12.61,20.58C1200.54,401.69,1196.9,423.67,1181.81,444.7z"
   id="path371" />
		<path
   class="st1"
   d="M722.59,403.79c-0.05-22.88,5.24-43.03,15.86-61.78c2.73-4.82,2.81-4.88,7.53-1.61    c14.78,10.25,20.47,24.84,19.4,42.29c-0.5,8.19-2.14,16.31-2.83,24.5c-2,23.85,2.4,46.17,17.17,65.58    c14.17,18.63,33.21,29.25,56.21,32.95c8.7,1.4,17.4,1.45,26.12,0.14c3.66-0.55,3.69-0.44,3.77,3.29c0.04,1.89,0.02,3.77,0.01,5.66    c-0.02,4.81-0.02,4.83-4.85,6.12c-13.03,3.47-26.28,3.4-39.28,0.71c-51.2-10.59-83.03-41.76-96.21-92.15    C723.19,420.67,722.48,411.58,722.59,403.79z"
   id="path373" />
		<path
   class="st1"
   d="M1198,516.28c-1.41-5.78-2.71-11.44-4.2-17.05c-0.54-2.03-0.02-3.12,1.83-4.1c4.55-2.41,8.8-5.32,12.76-8.62    c17.53-14.61,27.43-33.35,30.49-55.89c1.89-13.92,0.84-27.66-1.65-41.41c-1.97-10.85-1.15-21.52,3.61-31.66    c3.59-7.65,8.99-13.71,16.18-18.17c3.64-2.26,3.71-2.27,5.8,1.35c7.87,13.65,13.12,28.22,15.21,43.87    c4.6,34.49-3.44,65.67-24.84,93.17c-13.35,17.15-30.34,29.57-50.61,37.45C1201.31,515.72,1200.08,516.32,1198,516.28z"
   id="path375" />
		<path
   class="st1"
   d="M715.56,388.49c-3.16,42.44,9.24,78.88,40.07,107.71c30.88,28.87,67.65,39.55,110.18,31.54    c0,3.6,0.03,7.45-0.01,11.3c-0.03,2.16-1.89,2.15-3.29,2.51c-7.81,2.03-15.76,3.41-23.8,3.97c-30.65,2.13-59.76-3.34-86.68-18.55    c-21.1-11.92-38.26-27.96-48.36-50.32c-13.3-29.43-10.58-57.65,8.14-84.15C712.76,391.18,713.61,389.68,715.56,388.49z"
   id="path377" />
		<path
   class="st1"
   d="M687.86,443.45c0.76,6.01,1.16,12.13,2.63,18.1c5.83,23.76,19.18,42.65,37.83,57.96    c22.45,18.44,48.44,28.8,77.12,32.52c17.82,2.31,35.58,1.8,53.2-1.91c0.99-0.21,2.01-0.5,3.18,0c-0.14,2.29-2.24,2.8-3.68,3.7    c-15.99,9.94-33.31,16.21-52.14,17.41c-32.16,2.05-61.96-5.2-88.59-23.84c-15.97-11.18-28.3-25.54-35.38-43.79    c-7.81-20.14-6.43-39.97,4.16-58.97C686.5,444.1,686.75,443.33,687.86,443.45z"
   id="path379" />
		<path
   class="st1"
   d="M1286.2,388.11c2.28,1.55,3.24,3.18,4.28,4.68c18.15,26.09,20.84,53.82,8.09,82.83    c-8.98,20.42-24.08,35.61-42.67,47.52c-14.59,9.35-30.5,15.48-47.38,19.18c-4.03,0.88-4.06,0.86-5.1-3.25    c-0.92-3.65-1.91-7.29-2.66-10.98c-1-4.9-1.59-3.86,3.22-5.68c10.81-4.08,20.98-9.37,30.2-16.32    c30.99-23.36,48.43-54.35,52.12-93.04c0.39-4.1,0.77-8.2,0.6-12.32C1286.74,396.8,1286.47,392.87,1286.2,388.11z"
   id="path381" />
		<path
   class="st1"
   d="M853.12,565.42c-3.65,8.72-8.34,14.75-15.02,19.45c-21.16,14.88-44.72,21.13-70.36,20.03    c-19.58-0.84-37.86-6.14-54.3-16.97c-16.13-10.62-27.99-24.61-33.08-43.67c-2.19-8.21-2.35-16.49-0.76-25.14    c18.3,29.2,44.93,46.63,77.46,55.23C789.57,582.96,821.51,581.36,853.12,565.42z"
   id="path383" />
		<path
   class="st1"
   d="M1128.49,653.1c-37.95,29.13-80.64,44.14-128.16,44.6c-49.23,0.47-93.49-14.58-132.58-44.39    c0.06-0.39,0.12-0.79,0.18-1.18c5.91,0,11.84,0.35,17.71-0.09c7.3-0.54,13.52,1.45,19.9,5.04c23.48,13.18,48.84,20.47,75.69,22.75    c40.88,3.48,79.01-5.24,114.57-25.5c2.61-1.49,5.19-2.33,8.24-2.25c6.86,0.16,13.72,0.02,20.58,0.08    C1125.73,652.16,1126.98,651.67,1128.49,653.1z"
   id="path385" />
		<path
   class="st1"
   d="M1314.34,443.37c7.63,11.47,10.75,24.04,10.22,37.55c-0.83,21.18-10.39,38.48-24.67,53.35    c-17.39,18.1-39.05,28.65-63.34,34.12c-7.04,1.59-14.18,2.48-21.36,3c-4.04,0.29-4.08,0.18-5.07-3.87c-1.06-4.33-2.1-8.66-3.08-13    c-0.87-3.82-0.84-3.86,2.97-4.72c15.64-3.54,30.53-9.02,44.44-17.05c14.25-8.23,26.8-18.46,37.1-31.36    C1305.09,484.43,1312.89,465.23,1314.34,443.37z"
   id="path387" />
		
		<path
   class="st1"
   d="M1322.32,519.11c1.47,8.34,1.41,16.59-0.72,24.78c-4.09,15.67-13.04,28.16-25.46,38.24    c-14.58,11.85-31.45,18.47-49.91,21.34c-8,1.25-16.03,1.28-24.09,1.13c-2.24-0.04-3.41-0.76-3.91-3.03    c-1.62-7.34-3.4-14.63-5.22-22.31C1258.57,575.72,1296.38,558.51,1322.32,519.11z"
   id="path391" />
		
		
		
		<path
   class="st1"
   d="M1082.1,652.33c-28.04,15.12-58.13,21.76-89.8,20.77c-27.66-0.87-53.99-7.34-78.48-20.77    C969.91,652.33,1026,652.33,1082.1,652.33z"
   id="path399" />
		<path
   class="st1"
   d="M845.01,652.64c6.36-1.38,10.43,0.35,14.6,3.76c30.99,25.27,66.37,41.15,105.93,46.63    c64.46,8.92,122.38-6.96,172.98-48.19c4.09-3.33,8.15-2.46,12.63-2.22c-20.45,19.38-43.9,34.02-70.12,44.13    c-45.52,17.56-92.07,20.35-139.32,8.33C905.39,695.84,873.43,678.32,845.01,652.64z"
   id="path401" />
		
		
		
		<path
   class="st1"
   d="M808.95,642.8c-5.69-6.62-10.4-13.12-15.03-19.69c-2.47-3.5-2.48-3.51-6.53-1.96    c-7.98,3.07-16,6.05-23.9,9.33c-2.67,1.11-3.95,0.56-5.2-1.91c-2.92-5.76-6.08-11.4-9.48-17.71c10.35,1.85,20.04,2.4,29.79,2.07    c5.83-0.2,11.62-0.74,17.32-1.96c2.76-0.59,4.64-0.32,6.38,2.46c3.45,5.5,7.39,10.71,11.31,15.89c1.34,1.77,1.54,3.14,0.32,5.01    C812.25,636.89,810.81,639.61,808.95,642.8z"
   id="path409" />
		<path
   class="st1"
   d="M1221.51,611.88c8.1-0.14,16.29,0.27,24.33-1.28c0.52,2.11-0.71,3.27-1.41,4.56    c-2.44,4.5-5.05,8.91-7.4,13.46c-0.99,1.91-1.98,2.27-4,1.54c-8.69-3.14-8.75-3.07-10.76-12.08    C1221.84,616.14,1220.71,614.25,1221.51,611.88z"
   id="path411" />
		<path
   class="st1"
   d="M807.13,609.16c0.67-0.57,0.88-0.88,1.18-0.99c5.99-2.29,5.99-2.29,9.73,3.04c0.49,0.7,1,1.39,1.5,2.08    c3.97,5.53,3.97,5.53-0.92,11.78C814.31,620.16,810.85,614.73,807.13,609.16z"
   id="path413" />
		
		<path
   class="st1"
   d="M1197.62,627.41c-3.49,4.61-6.56,8.65-10.1,13.32c-2.96-4.37-5.28-8.56-7.71-13.32    C1185.78,627.41,1191.24,627.41,1197.62,627.41z"
   id="path417" />
		
		<path
   class="st1"
   d="M836.01,595.95c-3.44,5.97-6.26,10.87-9.25,16.07c-2.38-2.83-4.15-5.29-5.74-8.24    C825.66,601.36,830.24,598.96,836.01,595.95z"
   id="path421" />
		
		
		
		<path
   class="st1"
   d="M1105.33,511.64c4.16-17.53,8.11-34.13,12.05-50.72c0.24,0.01,0.48,0.02,0.72,0.02    c2.43,10.15,4.87,20.29,7.3,30.45c1.31,5.5,2.67,10.99,3.92,16.5c0.8,3.5,0.62,3.71-3.13,3.74    C1119.52,511.67,1112.85,511.64,1105.33,511.64z"
   id="path429" />
	</g>
</g>
<g
   id="Colors">
</g>
</svg>
