<?xml version="1.0" encoding="UTF-8" standalone="no"?>
<!-- Generator: Adobe Illustrator 24.0.1, SVG Export Plug-In . SVG Version: 6.00 Build 0)  -->

<svg
   xmlns:dc="http://purl.org/dc/elements/1.1/"
   xmlns:cc="http://creativecommons.org/ns#"
   xmlns:rdf="http://www.w3.org/1999/02/22-rdf-syntax-ns#"
   xmlns:svg="http://www.w3.org/2000/svg"
   xmlns="http://www.w3.org/2000/svg"
   xmlns:sodipodi="http://sodipodi.sourceforge.net/DTD/sodipodi-0.dtd"
   xmlns:inkscape="http://www.inkscape.org/namespaces/inkscape"
   version="1.1"
   x="0px"
   y="0px"
   viewBox="0 0 2000 848.45"
   style="enable-background:new 0 0 2000 848.45;"
   xml:space="preserve"
   id="svg434"
   sodipodi:docname="ita_fire.svg"
   inkscape:version="0.92.5 (2060ec1f9f, 2020-04-08)"><metadata
   id="metadata440"><rdf:RDF><cc:Work
       rdf:about=""><dc:format>image/svg+xml</dc:format><dc:type
         rdf:resource="http://purl.org/dc/dcmitype/StillImage" /><dc:title></dc:title></cc:Work></rdf:RDF></metadata><defs
   id="defs438" /><sodipodi:namedview
   pagecolor="#ffffff"
   bordercolor="#666666"
   borderopacity="1"
   objecttolerance="10"
   gridtolerance="10"
   guidetolerance="10"
   inkscape:pageopacity="0"
   inkscape:pageshadow="2"
   inkscape:window-width="1920"
   inkscape:window-height="1053"
   id="namedview436"
   showgrid="false"
   inkscape:zoom="1.2324871"
   inkscape:cx="1004.7528"
   inkscape:cy="394.58722"
   inkscape:window-x="0"
   inkscape:window-y="27"
   inkscape:window-maximized="1"
   inkscape:current-layer="ITA_Orig" />
<style
   type="text/css"
   id="style248">
	.st0{fill-rule:evenodd;clip-rule:evenodd;fill:#0A0703;}
	.st1{fill-rule:evenodd;clip-rule:evenodd;fill:#FDC905;}
	.st2{fill-rule:evenodd;clip-rule:evenodd;fill:#034DA1;}
	.st3{fill-rule:evenodd;clip-rule:evenodd;fill:#FFFFFF;}
	.st4{fill-rule:evenodd;clip-rule:evenodd;fill:#E81B23;}
</style>
<g
   id="Layer_1">
</g>
<g
   id="Final">
	<g
   id="ITA_Orig">
		
		
		
		
		
		
		
		
		
		
		
		
		
		
		
		
		
		
		
		
		
		
		
		
		<path
   class="st4"
   d="M975.74,104.82c5.12,1.33,9.66,3.4,13.25,7.34c15.19,16.65,24.57,36.23,29.32,58.08    c5.02,23.09,4.53,46.29,0.53,69.49c-1.6,9.3-3.84,18.44-6.37,27.52c-0.68,2.46-1.79,3.33-4.27,3.31    c-8.75-0.1-17.5,0.01-26.25-0.07c-3.73-0.03-3.87-0.29-3.12-3.82c2.35-11.13,6.38-21.69,10.89-32.08    c6.03-13.9,10.68-28.18,12.5-43.3c3.87-32.14-3.37-60.94-25.55-85.26C976.34,105.65,976.06,105.22,975.74,104.82z"
   id="path299" />
		
		<path
   class="st4"
   d="M947.22,94.71c3.88,0.39,5.96,1.94,8.06,3.34c20.36,13.62,33.02,32.58,38.33,56.35    c4.97,22.24,1.99,43.95-5.59,65.16c-2.25,6.28-5,12.38-7.53,18.56c-3.82,9.37-7.19,18.9-9.15,28.85    c-0.56,2.83-1.76,3.64-4.43,3.59c-6.85-0.12-13.72,0.02-20.57-0.06c-3.21-0.04-3.57-0.51-2.83-3.72    c2.63-11.43,7.06-22.18,12.77-32.41c5.27-9.43,10.18-19.02,14-29.15c5.24-13.91,8.57-28.27,8.56-43.13    c-0.02-25.59-8.61-47.63-28.47-64.6C949.6,96.83,948.84,96.14,947.22,94.71z"
   id="path303" />
		<path
   class="st4"
   d="M941.18,101.07c1.89,0.11,3.06,1.5,4.32,2.59c16.02,13.9,24.22,31.66,25.5,52.66    c1.21,19.64-3.73,38.06-11.68,55.81c-2.87,6.42-6.25,12.59-9.66,18.74c-6.26,11.31-11.18,23.15-13.68,35.88    c-0.5,2.56-1.36,3.98-4.31,3.81c-4.1-0.22-8.23,0.01-12.35-0.07c-3.86-0.08-3.87-0.18-3.17-4.27c2.51-14.65,7.57-28.45,14.1-41.74    c4.47-9.09,9.63-17.79,15.08-26.32c9.31-14.57,14.08-30.46,13.18-47.79c-0.81-15.52-5.51-29.93-13.54-43.23    c-1.24-2.05-2.54-4.07-3.82-6.1L941.18,101.07z"
   id="path305" />
		<path
   class="st4"
   d="M1008.71,123.07c3.2,1.69,5.66,4.01,7.97,6.93c17.18,21.68,25.66,47.03,31.39,73.52    c4.45,20.56,5.29,41.42,4.35,62.38c-0.2,4.52-0.22,4.58-4.67,4.6c-8.05,0.05-16.11,0.06-24.17,0c-4.13-0.03-4.19-0.13-3.13-3.99    c3.45-12.56,6.14-25.26,7.63-38.23c4.15-36.2-0.34-70.74-19.38-102.54c-0.34-0.57-0.54-1.25-0.8-1.87    C1008.17,123.6,1008.44,123.33,1008.71,123.07z"
   id="path307" />
		
		
		<path
   class="st4"
   d="M1038.45,150.58c14.23,14.86,25.01,32.03,32.77,51.08c8.36,20.51,12.85,41.83,13.2,64    c0.08,4.8,0.03,4.83-4.7,4.85c-5.31,0.03-10.63,0.06-15.93-0.01c-4.04-0.05-4.1-0.12-3.98-4.02c0.12-3.77,0.56-7.53,0.57-11.28    c0.1-35.9-6.12-70.51-21.4-103.23C1038.76,151.52,1038.62,151.05,1038.45,150.58z"
   id="path313" />
		<path
   class="st4"
   d="M1041.39,388.07c-2.93-5.11-5.86-10.27-8.85-15.41c-0.82-1.4-0.34-2.61,0.27-3.87    c5.55-11.42,10.34-23.16,14.25-35.24c0.69-2.14,1.7-3.06,3.99-3.02c6.69,0.11,13.38-0.01,20.07,0.06    c3.35,0.03,3.51,0.27,2.26,3.67c-1.41,3.86-2.93,7.69-4.59,11.45c-6.06,13.72-13.81,26.42-23.06,38.21    c-0.95,1.21-1.99,2.36-3.02,3.5C1042.52,387.66,1042.13,387.73,1041.39,388.07z"
   id="path315" />
		<path
   class="st4"
   d="M921.37,330.57c7.62,0,14.3,0.08,20.97-0.04c2.18-0.04,2.97,1.26,3.76,2.84    c4.89,9.68,10.95,18.62,17.69,27.08c2.99,3.76,2.85,7.88,1.3,11.58c-2.09,4.98-5.28,9.5-8.3,14.73    c-5.89-5.27-10.63-10.84-14.8-16.84c-4.16-5.98-9.36-11.45-10.56-19.1C925.81,345.51,924.65,338.07,921.37,330.57z"
   id="path317" />
		
		
		
		<path
   class="st4"
   d="M964.83,349.54c-4.21-5.8-8.16-11.77-11.81-18.97c3.98,0,7.01,0.09,10.04-0.03c2.36-0.09,2.86,1.12,2.83,3.16    c-0.07,5.12-0.02,10.24-0.02,15.36C965.51,349.22,965.17,349.38,964.83,349.54z"
   id="path325" />
		
		<path
   class="st4"
   d="M1039.81,331.2c-1.79,6.57-4.23,12.88-7.92,18.98c0-5.83,0-11.65,0-17.48c0-1.52,0.8-2.19,2.25-2.11    C1035.95,330.7,1037.85,330.12,1039.81,331.2z"
   id="path329" />
		
		<path
   class="st4"
   d="M1007.9,123.87c-0.65-0.44-1.53-1.26-1.03-1.74c0.72-0.69,1.31,0.4,1.83,0.94    C1008.44,123.33,1008.17,123.6,1007.9,123.87z"
   id="path333" />
		<polygon
   class="st4"
   points="941.17,101.03 941.06,100.91 941.18,101.07   "
   id="polygon335" />
		
		
		
		
		
		
		
		
		
		
		
		
		
		
		
		
		
		
		
		
		
		
		
		
		
		
		<path
   class="st4"
   d="M975.74,104.82c5.12,1.33,9.66,3.4,13.25,7.34c15.19,16.65,24.57,36.23,29.32,58.08    c5.02,23.09,4.53,46.29,0.53,69.49c-1.6,9.3-3.84,18.44-6.37,27.52c-0.68,2.46-1.79,3.33-4.27,3.31    c-8.75-0.1-17.5,0.01-26.25-0.07c-3.73-0.03-3.87-0.29-3.12-3.82c2.35-11.13,6.38-21.69,10.89-32.08    c6.03-13.9,10.68-28.18,12.5-43.3c3.87-32.14-3.37-60.94-25.55-85.26C976.34,105.65,976.06,105.22,975.74,104.82z"
   id="path389" />
		
		<path
   class="st4"
   d="M947.22,94.71c3.88,0.39,5.96,1.94,8.06,3.34c20.36,13.62,33.02,32.58,38.33,56.35    c4.97,22.24,1.99,43.95-5.59,65.16c-2.25,6.28-5,12.38-7.53,18.56c-3.82,9.37-7.19,18.9-9.15,28.85    c-0.56,2.83-1.76,3.64-4.43,3.59c-6.85-0.12-13.72,0.02-20.57-0.06c-3.21-0.04-3.57-0.51-2.83-3.72    c2.63-11.43,7.06-22.18,12.77-32.41c5.27-9.43,10.18-19.02,14-29.15c5.24-13.91,8.57-28.27,8.56-43.13    c-0.02-25.59-8.61-47.63-28.47-64.6C949.6,96.83,948.84,96.14,947.22,94.71z"
   id="path393" />
		<path
   class="st4"
   d="M941.18,101.07c1.89,0.11,3.06,1.5,4.32,2.59c16.02,13.9,24.22,31.66,25.5,52.66    c1.21,19.64-3.73,38.06-11.68,55.81c-2.87,6.42-6.25,12.59-9.66,18.74c-6.26,11.31-11.18,23.15-13.68,35.88    c-0.5,2.56-1.36,3.98-4.31,3.81c-4.1-0.22-8.23,0.01-12.35-0.07c-3.86-0.08-3.87-0.18-3.17-4.27c2.51-14.65,7.57-28.45,14.1-41.74    c4.47-9.09,9.63-17.79,15.08-26.32c9.31-14.57,14.08-30.46,13.18-47.79c-0.81-15.52-5.51-29.93-13.54-43.23    c-1.24-2.05-2.54-4.07-3.82-6.1L941.18,101.07z"
   id="path395" />
		<path
   class="st4"
   d="M1008.71,123.07c3.2,1.69,5.66,4.01,7.97,6.93c17.18,21.68,25.66,47.03,31.39,73.52    c4.45,20.56,5.29,41.42,4.35,62.38c-0.2,4.52-0.22,4.58-4.67,4.6c-8.05,0.05-16.11,0.06-24.17,0c-4.13-0.03-4.19-0.13-3.13-3.99    c3.45-12.56,6.14-25.26,7.63-38.23c4.15-36.2-0.34-70.74-19.38-102.54c-0.34-0.57-0.54-1.25-0.8-1.87    C1008.17,123.6,1008.44,123.33,1008.71,123.07z"
   id="path397" />
		
		
		<path
   class="st4"
   d="M1038.45,150.58c14.23,14.86,25.01,32.03,32.77,51.08c8.36,20.51,12.85,41.83,13.2,64    c0.08,4.8,0.03,4.83-4.7,4.85c-5.31,0.03-10.63,0.06-15.93-0.01c-4.04-0.05-4.1-0.12-3.98-4.02c0.12-3.77,0.56-7.53,0.57-11.28    c0.1-35.9-6.12-70.51-21.4-103.23C1038.76,151.52,1038.62,151.05,1038.45,150.58z"
   id="path403" />
		<path
   class="st4"
   d="M1041.39,388.07c-2.93-5.11-5.86-10.27-8.85-15.41c-0.82-1.4-0.34-2.61,0.27-3.87    c5.55-11.42,10.34-23.16,14.25-35.24c0.69-2.14,1.7-3.06,3.99-3.02c6.69,0.11,13.38-0.01,20.07,0.06    c3.35,0.03,3.51,0.27,2.26,3.67c-1.41,3.86-2.93,7.69-4.59,11.45c-6.06,13.72-13.81,26.42-23.06,38.21    c-0.95,1.21-1.99,2.36-3.02,3.5C1042.52,387.66,1042.13,387.73,1041.39,388.07z"
   id="path405" />
		<path
   class="st4"
   d="M921.37,330.57c7.62,0,14.3,0.08,20.97-0.04c2.18-0.04,2.97,1.26,3.76,2.84    c4.89,9.68,10.95,18.62,17.69,27.08c2.99,3.76,2.85,7.88,1.3,11.58c-2.09,4.98-5.28,9.5-8.3,14.73    c-5.89-5.27-10.63-10.84-14.8-16.84c-4.16-5.98-9.36-11.45-10.56-19.1C925.81,345.51,924.65,338.07,921.37,330.57z"
   id="path407" />
		
		
		
		<path
   class="st4"
   d="M964.83,349.54c-4.21-5.8-8.16-11.77-11.81-18.97c3.98,0,7.01,0.09,10.04-0.03c2.36-0.09,2.86,1.12,2.83,3.16    c-0.07,5.12-0.02,10.24-0.02,15.36C965.51,349.22,965.17,349.38,964.83,349.54z"
   id="path415" />
		
		<path
   class="st4"
   d="M1039.81,331.2c-1.79,6.57-4.23,12.88-7.92,18.98c0-5.83,0-11.65,0-17.48c0-1.52,0.8-2.19,2.25-2.11    C1035.95,330.7,1037.85,330.12,1039.81,331.2z"
   id="path419" />
		
		<path
   class="st4"
   d="M1007.9,123.87c-0.65-0.44-1.53-1.26-1.03-1.74c0.72-0.69,1.31,0.4,1.83,0.94    C1008.44,123.33,1008.17,123.6,1007.9,123.87z"
   id="path423" />
		<polygon
   class="st4"
   points="941.17,101.03 941.06,100.91 941.18,101.07   "
   id="polygon425" />
		
		
	</g>
</g>
<g
   id="Colors">
</g>
</svg>